<?xml version="1.0" encoding="UTF-8"?>
<svg id="Calque_1" xmlns="http://www.w3.org/2000/svg" version="1.1" viewBox="0 0 966.8 903.2">
  <!-- Generator: Adobe Illustrator 29.3.1, SVG Export Plug-In . SVG Version: 2.1.0 Build 151)  -->
  <defs>
    <style>
      .st0 {
        fill: none;
        stroke: #000;
        stroke-miterlimit: 10;
      }

      .st1 {
        fill: #3746ff;
      }

      .st2 {
        fill: #144176;
      }

      .st3 {
        fill: #fff;
      }

      .st4 {
        fill: #1d1d1c;
      }

      .st5 {
        fill: #00a6c6;
      }

      .st6 {
        fill: #d3223e;
      }

      .st7 {
        fill-rule: evenodd;
      }

      .st7, .st8 {
        fill: #003d57;
      }

      .st9 {
        fill: #1d1d1b;
      }

      .st10 {
        fill: #7b7c80;
      }

      .st11 {
        fill: #c71649;
      }

      .st12 {
        fill: #605761;
      }

      .st13 {
        fill: #c6c6c5;
      }
    </style>
  </defs>
  <line class="st0" x1="45.5" y1="462" x2="921.3" y2="462"/>
  <g>
    <path d="M245,360.1c-21.5-14.8-33.1-22.7-43.9-30.7-5.2,8.6-8.2,18.8-8.2,29.6,0,19.6,9.9,37,25,47.3,6.3-12.4,14.7-26.2,27.2-46.1"/>
    <path d="M301.2,371.5c-8.8,9.4-23,10.8-33.2,4.4-2-1.2-15.9-10.9-15.9-10.9-15.4,21.8-23.4,32.8-31.9,42.8,8.7,5.3,18.9,8.4,29.8,8.4,30.7,0,55.7-24.1,57.1-54.5-1.2,3.6-3.3,7-5.9,9.8"/>
    <path d="M290.6,339.3c-1.9-1.3-14.2-9.4-14.2-9.4-10,14.8-11.6,17-19.3,28,0,0,13.3,8.6,15.3,9.8,6.9,4.3,16.1,3,21.5-3,2.1-2.3,3.5-5.2,4.1-8.2,1.1-5.6-.7-12.8-7.4-17.2"/>
    <path d="M249.5,352.9c7.3-11.6,13.8-21.9,24.1-37.4,0,0,21.6,14.3,23.5,15.6,2.3,1.6,3.9,3.2,5.2,4.8-8.9-20.1-29-34.2-52.4-34.2s-35.2,8.9-45.6,22.7c11.5,6.8,25.3,15.7,45.1,28.4"/>
    <path d="M195.9,317.7c0-4-3.2-7.2-7.2-7.2-4,0-7.2,3.2-7.2,7.2,0,4,3.2,7.2,7.2,7.2,4,0,7.2-3.2,7.2-7.2"/>
    <path d="M201,296.7l3.4-2.4c2-1.4,4.1-1.2,5.3.5h0c1.4,2,.6,4.1-1.3,5.4l-1.7,1.2,2,2.8-1.5,1.1-6.2-8.6ZM207.5,298.9c1.1-.8,1.4-2,.8-2.9h0c-.7-1-1.8-1-3-.2l-1.8,1.3,2.2,3.1,1.8-1.3Z"/>
    <path d="M215.1,293.7h0c-1.2-2.8-.1-6,2.9-7.3,3-1.3,6.1,0,7.3,2.8h0c1.2,2.8.1,6-2.9,7.3-3,1.3-6.1,0-7.3-2.8M223.4,290h0c-.8-1.9-2.9-2.9-4.8-2s-2.6,3-1.8,4.9h0c.8,1.9,2.9,2.9,4.8,2,1.9-.9,2.6-3,1.8-4.9"/>
    <polygon points="229.7 282.4 231.5 282 233.4 290.7 238.9 289.5 239.2 291.2 232 292.7 229.7 282.4"/>
    <polygon points="244.7 286.5 240.1 280.3 242.3 280.2 245.5 284.7 248.2 279.8 250.4 279.7 246.5 286.3 246.8 290.5 244.9 290.6 244.7 286.5"/>
    <polygon points="258 282 254.6 281.6 254.8 279.9 263.4 280.9 263.2 282.6 259.8 282.2 258.8 291 256.9 290.8 258 282"/>
    <polygon points="269.7 282.3 277.2 284.6 276.7 286.1 271 284.4 270.2 287 275.3 288.6 274.8 290.2 269.7 288.6 268.8 291.3 274.7 293.1 274.2 294.7 266.6 292.4 269.7 282.3"/>
    <path d="M280.9,291.8h0c1.4-2.7,4.6-3.8,7.4-2.3,1.7.9,2.4,2.1,2.9,3.4l-1.7.6c-.4-1.1-.9-2-2-2.6-1.8-1-3.9-.2-4.9,1.6h0c-1,1.9-.5,4,1.3,5,1.1.6,2.1.5,3.3.2l.5,1.6c-1.5.5-2.9.6-4.7-.4-2.7-1.5-3.6-4.7-2.2-7.4"/>
    <polygon points="297.4 295.5 298.8 296.6 296 300 299.9 303.3 302.7 299.9 304.1 301.1 297.3 309.2 295.9 308 298.7 304.6 294.9 301.4 292 304.8 290.6 303.6 297.4 295.5"/>
    <polygon points="309.7 306.9 310.8 308.3 308.5 317.3 314.3 312.8 315.4 314.2 307 320.7 306.1 319.5 308.5 310.3 302.5 314.9 301.4 313.4 309.7 306.9"/>
    <rect x="309.6" y="322.8" width="10.6" height="1.9" transform="translate(-116.5 190.2) rotate(-28.6)"/>
    <path d="M316.6,339.5c-.9-.6-1.6-1.6-2-2.7-1.1-3.1.5-6,3.4-7h0c2.8-1,5.9.4,7,3.5,1.1,3.1-.5,6-3.4,7h0c-1.1.4-2.3.4-3.4,0l-.6,1.5-1.6-.7.7-1.6ZM317.3,337.8l.9-2.2,1.7.7-1,2.3c.6.2,1.4.1,2.1-.1h0c1.9-.7,3.1-2.7,2.4-4.6-.7-2-2.8-2.8-4.7-2.2h0c-1.9.7-3.1,2.7-2.4,4.6.2.7.6,1.2,1.1,1.6"/>
    <path d="M322,345.9l6.1-.7.2,1.8-6,.7c-2,.2-2.9,1.4-2.7,3,.2,1.6,1.3,2.5,3.2,2.3l6.1-.7.2,1.8-6,.7c-3.1.4-4.9-1.2-5.3-4-.3-2.7,1.1-4.7,4.1-5"/>
    <polygon points="329.2 361.4 328.6 369.2 326.9 369.1 327.4 363.1 324.6 362.9 324.2 368.2 322.5 368.1 323 362.8 320.1 362.6 319.6 368.6 318 368.5 318.6 360.6 329.2 361.4"/>
    <rect x="201.9" y="418.2" width="10.6" height="1.9" transform="translate(-254.5 345.8) rotate(-54.7)"/>
    <polygon points="197.1 418 195.9 416.8 197.1 407.6 191.9 412.7 190.6 411.4 198.1 404 199.2 405.1 198 414.5 203.3 409.2 204.6 410.5 197.1 418"/>
    <path d="M193.8,401.1l-1.7-.2c.2-1.3,0-2.5-.7-3.6-.6-1-1.5-1.3-2.1-.8h0c-.6.4-.7,1,0,2.9.8,2.2.9,3.6-.7,4.7h0c-1.5,1-3.4.4-4.6-1.3-.8-1.3-1.1-2.6-1-3.9h1.7c0,1.2.1,2.3.7,3.1.6.9,1.4,1.1,2,.8h0c.7-.5.7-1.1,0-3-.8-2.2-.7-3.6.7-4.6h0c1.7-1.1,3.5-.5,4.7,1.4.9,1.4,1.3,2.9,1,4.6"/>
    <polygon points="179.3 390.4 180.6 393.5 179.1 394.2 175.7 386.3 177.2 385.6 178.6 388.7 186.7 385.2 187.5 386.9 179.3 390.4"/>
    <rect x="173.5" y="377.3" width="10.6" height="1.9" transform="translate(-92.6 59.9) rotate(-15.1)"/>
    <polygon points="173.3 369.4 173.7 372.7 172 372.9 171 364.4 172.7 364.2 173.1 367.5 181.9 366.4 182.1 368.3 173.3 369.4"/>
    <path d="M176.9,358.7l-6.1-.4v-1.9c.1,0,6.1.4,6.1.4,2,.1,3.1-.8,3.2-2.5.1-1.6-.8-2.7-2.8-2.8l-6.1-.4v-1.9c.1,0,6.1.4,6.1.4,3.2.2,4.6,2.1,4.5,4.9-.2,2.8-1.9,4.4-4.9,4.2"/>
    <polygon points="174.9 340.4 174 343.6 172.3 343.2 174.5 334.9 176.2 335.3 175.3 338.6 183.9 340.8 183.4 342.6 174.9 340.4"/>
    <path d="M226.4,423.1l4.1,1.2c4.2,1.2,5.8,3.9,4.9,7.1h0c-.9,3.2-3.7,4.8-8,3.6l-4-1.1,3-10.7ZM228.4,431.8c1.6.5,2.9,0,3.3-1.4h0c.4-1.6-.4-2.5-2.1-3l-.6-.2-1.3,4.5.6.2Z"/>
    <polygon points="242.1 426.8 251.6 427.3 251.4 430.3 245.6 430 245.5 431.2 251 431.4 250.8 434.1 245.4 433.8 245.4 435 251.2 435.3 251.1 438.4 241.6 437.9 242.1 426.8"/>
    <path d="M265.6,425.6l4.8-1.5c2.8-.9,5.1-.2,5.9,2.3h0c.8,2.6-.8,4.6-3.6,5.4l-1.2.4.9,2.9-3.5,1.1-3.2-10.6ZM271.7,429.4c.9-.3,1.4-.9,1.2-1.6h0c-.2-.8-.9-1-1.9-.7l-1,.3.7,2.4,1-.3Z"/>
    <path d="M282.1,419.1l3.2-1.8,9.6,7.4-3.5,2-1.2-1-3.4,1.9.2,1.6-3.4,2-1.5-12ZM288.1,423.9l-2.2-1.8.5,2.8,1.8-1Z"/>
    <path d="M292.9,412.3l4-3.7c1.4-1.3,2.7-1.8,3.8-1.8.9,0,1.8.4,2.5,1.2h0c1.1,1.2,1.3,2.6.7,4l4.5,1-3.1,2.9-3.7-.9h0s-.6.5-.6.5l2.2,2.3-2.7,2.5-7.6-8.1ZM300.4,412.5c.7-.6.8-1.3.3-1.8h0c-.5-.5-1.1-.4-1.8.2l-1.2,1.1,1.5,1.6,1.2-1.1Z"/>
    <rect x="307.8" y="396.9" width="3.7" height="11.1" transform="translate(-198 414.3) rotate(-53.8)"/>
    <path d="M317.5,397.9l-1.3-2.8c1.4-.7,2.3-1.8,2.9-2.9.3-.6.3-.9,0-1.1h0c-.3-.2-.6,0-1.3,1.1-1.5,2-3.1,3.7-5.3,2.6h0c-1.9-.9-2.6-3.1-1.3-5.9.9-1.9,2.1-3.1,3.6-3.8l1.5,2.7c-1.1.6-2,1.6-2.4,2.5-.2.5-.2.8,0,.9h0c.3.1.6,0,1.3-1,1.7-2.3,3.3-3.7,5.3-2.7h0c2.1,1,2.5,3.4,1.2,6.1-1,2-2.4,3.6-4.2,4.3"/>
    <rect x="357.2" y="299.1" width="5.2" height="29.4"/>
    <polygon points="376.9 299.1 381.7 299.1 397.4 319.4 397.4 299.1 402.5 299.1 402.5 328.5 398.2 328.5 382 307.6 382 328.5 376.9 328.5 376.9 299.1"/>
    <path d="M428.1,311.5c-5.6-1.3-7-2.4-7-4.7s1.8-3.5,4.8-3.5,5.3,1,8,3l2.8-3.9c-3-2.4-6.4-3.7-10.7-3.7s-10,3.5-10,8.6,3.5,7.3,9.8,8.8c5.5,1.3,6.6,2.4,6.6,4.5s-2,3.7-5.2,3.7-6.5-1.4-9.3-3.8l-3.1,3.7c3.5,3.1,7.8,4.7,12.3,4.7s10.5-3.3,10.5-8.8-3.2-7.1-9.4-8.6"/>
    <polygon points="456.1 303.9 446.7 303.9 446.7 299.1 470.6 299.1 470.6 303.9 461.3 303.9 461.3 328.5 456.1 328.5 456.1 303.9"/>
    <rect x="481.9" y="299.1" width="5.2" height="29.4"/>
    <polygon points="507.8 303.9 498.5 303.9 498.5 299.1 522.3 299.1 522.3 303.9 513 303.9 513 328.5 507.8 328.5 507.8 303.9"/>
    <path d="M532.6,316v-16.9h5.2v16.7c0,5.5,2.8,8.4,7.4,8.4s7.4-2.8,7.4-8.2v-16.9h5.2v16.7c0,8.8-5,13.2-12.6,13.2s-12.5-4.4-12.5-12.9"/>
    <polygon points="577.4 303.9 568.1 303.9 568.1 299.1 591.9 299.1 591.9 303.9 582.6 303.9 582.6 328.5 577.4 328.5 577.4 303.9"/>
    <path d="M368.8,344.2h-11.6v29.4h5.2v-9.4h5.8c6.5,0,11.7-3.5,11.7-10.1s-4.3-9.9-11.2-9.9M368.4,359.5h-6v-10.6h6c3.9,0,6.3,1.8,6.3,5.3s-2.4,5.3-6.3,5.3"/>
    <path d="M404.7,343.7c-9,0-15.4,7-15.4,15.2s6.3,15.1,15.3,15.1,15.4-7,15.4-15.2-6.3-15.1-15.3-15.1M404.7,369.4c-5.8,0-10-4.8-10-10.5s4.1-10.4,9.9-10.4,10,4.8,10,10.5-4.1,10.4-9.9,10.4"/>
    <polygon points="431.6 344.2 436.8 344.2 436.8 368.9 452.2 368.9 452.2 373.6 431.6 373.6 431.6 344.2"/>
    <polygon points="466.1 362 454.5 344.2 460.6 344.2 468.8 357.2 477.1 344.2 483 344.2 471.3 361.9 471.3 373.6 466.1 373.6 466.1 362"/>
    <polygon points="500.4 349 491.1 349 491.1 344.2 514.9 344.2 514.9 349 505.6 349 505.6 373.6 500.4 373.6 500.4 349"/>
    <polygon points="526.2 344.2 548 344.2 548 348.9 531.4 348.9 531.4 356.5 546.1 356.5 546.1 361.1 531.4 361.1 531.4 369 548.2 369 548.2 373.6 526.2 373.6 526.2 344.2"/>
    <path d="M583,365.6c-2.5,2.4-4.8,3.8-8.4,3.8-5.6,0-9.7-4.7-9.7-10.5s4.1-10.4,9.7-10.4,5.9,1.5,8.2,3.7l3.3-3.8c-2.8-2.7-6.1-4.6-11.5-4.6-8.9,0-15.1,6.9-15.1,15.2s6.4,15.1,14.9,15.1,8.9-2,11.9-5.2l-3.3-3.4Z"/>
    <polygon points="597.6 344.2 602.7 344.2 602.7 356.4 616.8 356.4 616.8 344.2 621.9 344.2 621.9 373.6 616.8 373.6 616.8 361.2 602.7 361.2 602.7 373.6 597.6 373.6 597.6 344.2"/>
    <polygon points="636.7 344.2 641.5 344.2 657.2 364.5 657.2 344.2 662.3 344.2 662.3 373.6 657.9 373.6 641.8 352.7 641.8 373.6 636.7 373.6 636.7 344.2"/>
    <rect x="677.1" y="344.2" width="5.2" height="29.4"/>
    <path d="M721.6,367.9c1.9-2.6,3-5.7,3-9.1,0-8.3-6.3-15.1-15.3-15.1s-15.4,7-15.4,15.2,6.3,15.1,15.3,15.1,6.5-1,8.9-2.8l3.5,3.1,3.3-3.7-3.4-2.9ZM717.6,364.5l-5.1-4.6-3.3,3.8,5,4.3c-1.4.9-3.1,1.4-5,1.4-5.8,0-10-4.8-10-10.5s4.1-10.4,9.9-10.4,10,4.8,10,10.5-.5,4-1.5,5.5"/>
    <path d="M736.2,361.1v-16.9h5.2v16.7c0,5.5,2.8,8.4,7.4,8.4s7.4-2.8,7.4-8.2v-16.9h5.2v16.7c0,8.8-5,13.2-12.6,13.2s-12.5-4.4-12.5-12.9"/>
    <polygon points="774.1 344.2 795.8 344.2 795.8 348.9 779.2 348.9 779.2 356.5 793.9 356.5 793.9 361.1 779.2 361.1 779.2 369 796 369 796 373.6 774.1 373.6 774.1 344.2"/>
    <path d="M368.6,389.4h-11.3v29.4h11.2c10.6,0,16.7-6.3,16.7-14.8s-6.1-14.6-16.6-14.6M368.7,411.5h-3.3v-14.9h3.3c4.9,0,8.1,2.8,8.1,7.5s-3.2,7.5-8.1,7.5"/>
    <polygon points="398.6 389.4 422.2 389.4 422.2 396.3 406.6 396.3 406.6 400.7 420.7 400.7 420.7 407.1 406.6 407.1 406.6 411.8 422.4 411.8 422.4 418.7 398.6 418.7 398.6 389.4"/>
    <path d="M469.8,389.4h-12.6v29.4h8.1v-8.4h4c7.3,0,12.6-3.7,12.6-10.6s-4.8-10.4-12.2-10.4M469.2,404h-3.9v-7.8h3.8c2.9,0,4.7,1.4,4.7,3.9s-1.8,3.9-4.7,3.9"/>
    <path d="M501.3,389.1h7.8l12.5,29.6h-8.7l-2.1-5.2h-11.3l-2.1,5.2h-8.6l12.5-29.6ZM508.5,407.1l-3.3-8.3-3.3,8.3h6.6Z"/>
    <path d="M552.7,408.5c3.6-1.6,6-4.6,6-9.1,0-6.5-4.5-10.1-12.2-10.1h-13.9v29.4h8.1v-8.9h3.6l5.9,8.9h9.4l-7-10.2ZM546.2,403.4h-5.4v-7h5.3c2.7,0,4.4,1.2,4.4,3.5s-1.6,3.5-4.4,3.5"/>
    <rect x="573.3" y="389.4" width="8.2" height="29.4"/>
    <path d="M608.6,400.4c-4.1-.9-5.1-1.6-5.1-2.9s1-1.9,2.9-1.9,5.5,1,8.2,2.9l4.1-5.7c-3.2-2.6-7.1-3.9-12.1-3.9s-11.4,4-11.4,9.4,4.8,7.8,11.1,9.3c4,.9,5,1.6,5,2.9s-1.2,2.1-3.4,2.1c-3.4,0-6.6-1.2-9.5-3.5l-4.5,5.4c3.6,3.2,8.6,4.9,13.8,4.9s11.9-3.6,11.9-9.6-4.2-7.7-10.9-9.2"/>
  </g>
  <g>
    <rect class="st4" x="635.2" y="493.9" width="126.9" height="87.3"/>
    <path class="st11" d="M761.9,620.6v-33.5h-5.7c-.6.8-.2,4.3-2,5-6.1-1.4-.5-2.1-2.6-5-.3,0-2.7,0-3,0,.3,0,1.3,1.2-.2,2.6-2.1,14.1,1.8,19.8-.2,30.9h13.8Z"/>
    <path class="st11" d="M671.2,597.5c2.3-1.1,2.3-3.5,2.4-5-.7-.8-3.4-.8-4.5-.6-1.5,1.3-.2,3.5-1.1,5,.6,1.3,2.2.4,3.2.7"/>
    <path class="st11" d="M684.3,614.1l.7.2c.6.1,1.5.2,2.1-.1-.2-.4-.4-.9-.7-1.2-.7.4-1.4.7-2.1,1.1"/>
    <path class="st11" d="M692.7,605.4c-1.6,0-3,2.4-4.4,1.4.8-2.3,2.6-4.1,3.3-6.3,1.3-3,3.5-9.5,2.6-13.4h-6.2c-2,.6-.5,5.8-2.6,6.1-.6-1.4-.4-3.1-2-6.1h-3.3c.3,2.2,0,2.3-.3,2.6-1.1,0-1-1.7-2.5-.8-1.3-.2-1.6,1.8-2.9,1.4-.5-1.1-1.7-2.5-3.1-1.6,1.2,2.6,7.2,3.7,4.4,7.9-.6,1.2-.1,3-1.7,3.7-2.7-.7-5.2-1.7-7.9-2.4.3,1-.5,2.4-.2,3.4,2.9.4,3.7,3.4,6.2,4.3.5.4.8.8.6,1.5-1.7.7-3.6-.8-5.2-1.5-.4.2-.2.6-.2.8,1.5,1.8,6.3,1,4.8,4.7-1.3,3-1,8-5.6,8.4-.4.9.7.8,1,1.2,3.9.4,7.9-3.3,11.2-.2,1.1,0,2.5-.7,3.3.2h9.8c1.8-3.6.4-5.8.6-9.1.2-.8-2.3-1.7-4.2-1.2-.3-.2-.1-.7-.2-1.1,1.3-1.5,6.3.7,5.2-2.8,0-.3,0-1-.6-1M672,601.7h-.9c-1.2-.4-3.9-1.1-4-2.5,1.7.4,3.2,1.3,4.8,1.9v.6ZM683.1,591.3l-.3,3.5c-.1.6-.6,1.7-1.6,1.2-1.2.3-.6-1.2-.7-1.7,1.1-.9,1.3-2.8,2.5-3M683.2,601.5c-1,.7-2.6.4-3.7.2.3-.4.4-1,.4-1.5.7-.6,1.4-1.8,2.7-1.4.5.7.7,1.6.6,2.7M678.6,591.7c.1-1.3,1.7-.8,2.5-1.2l.2.6c-.8.6-1.4,2-2.7,1.5v-.8ZM678.4,605.8c1.5.3,3.2-.8,4.4.4-.5,1.1-.5,2.9-2.3,1.9-.8-.6-2.6-.3-2.5-1.9l.4-.4ZM676.5,590.7c.3-.5.7-1.3,1.5-1,0,.7-.4,1.9-1.5,1.4v-.4ZM675.3,604.2c1-.6,2.4-.5,2.2,1.4h-1.6c-.3-.4-.8-.8-.5-1.4M671.5,603.5c.3-.5.9-.2,1.3-.3.2,1.2,2.1-.3,1.3,1.3h-.2c-.8.4-2.2,0-2.5-1M673.8,617.4c-1.4-2.5.2-6.6.6-9,.3-.3.7-.8,1.3-.6.4,1.3-1.5,2.1-.2,3.3,1.3-.4,3,.8,4.4-.2-.7-1.1-2.1-.6-3.1-1v-.6l2.9-.2c.5.6,2.5,1.2,2.1,2.4-2,2.8-5.3,4.4-7.9,5.9M687,614.2c.5,1.3.6,3,0,4.1l-6.7.2v-.9c1.2-1.5,2.5-2.6,3.9-3.5l-1.3-.4c-1.9-1.3,2.6-3.2,3.3-3.7l1.8,2.9c0,.6-.4,1-.9,1.2M684.4,599c-1.4-3.7,3.6-5.1,5.5-7.4l2.6,1.4c-.3,2.5-4.8,3-4.6,5.7.5.4.9,1.1,1.5,1.2.2.7-.3,1.1-.8,1.5-2,.8-3-1.2-4.3-2.4"/>
    <path class="st11" d="M644.8,590.7c-6.1-.4-9.4.2-9.5.2v4.9h1.1c1.4.4,2.3.4,3.7.4,5.2.5,9.5-.2,14.6-.5-.6-.2-1.2-.3-1.7-.3-.9-.7-1.4-1.1-1.2-2.1,1.4-1.4,3.8-.3,5.4-1.1,1.4.5.5,2.1.8,3-.1.3-.3.2-.5.4,1.6,0,3.2,0,5,.2v-5c-7.6-.5-13,.2-17.9,0"/>
    <path class="st11" d="M702.5,589c2.5.6,5.1.9,7.7,1v-2.9h-11c0,2.3-1.8,5.6-1.8,5.6,1,0,1.9,0,2.8.5v.6c-.9-.2-1.8-.3-2.8-.4v9.5h1.2c0,.2.3.3.2.6l-.2.5h-1.2v1.2c.4,0,.8.1,1.2,0,0,0,0,.1,0,.2.6.1,1,.9,1.7.5v.6h-1.3c-.2,0-.6,0-.7-.3-.3.1-.6.2-1,.1v.9c1-.4,2.2,0,3.2,0,.1.2.3.3.3.6l-.3.4c-1-.4-2.2-.2-3.2-.3v7.4c.3,0,.7.2,1,.2.1.3.4.4.4.8-.4.2-.9.3-1.4.2v4.1h12.8v-4.1c-.5,0-1.7.2-2.1,0,0-.3,1.3-2.9,1.6-3l.5-5.5c-1,.1-2.2,0-3.1.3l-.3-.4c0-.3.1-.4.3-.6.9,0,2.2-.5,3.1,0v-.9c-.5,0-1.1,0-1.5-.4,0-.3.2-.4.3-.6.4.1.8,0,1.2,0v-1.2h-1.2l-.3-.5c0-.3.2-.4.3-.6h1.2v-9.5c-.9,0-1.9.2-2.7.4v-.6c.9-.4,1.8-.5,2.7-.5v-1.9c-2.3-.1-4.5-.4-6.7-.5-.5-.3-1.3-.2-1.7-.8.1-.4.4-.4.7-.4M709.3,596.1v1.9c-.9-.1-1.9.3-2.7-.3.4-1.4,1.8-1.3,2.7-1.6M699,594.8h1.7v.6h-1.7v-.6ZM701.7,597.2c-.7.5-1.6.8-2.4.9l-.5-1.6c.9,0,2.6-.5,2.9.7M697.9,611.1h2.2v.6h-2.2v-.6ZM707.5,618.7c-.8,1.8-2.2.5-3.1,0-.8-.3-1.4,2-2.2.3,0-.4.2-.6.3-.9,1.8-1.2,3.6-.2,5.1.6M705.7,604.2h-3.2v-1.2h3.2v1.2ZM705.1,608.7v1.7c-.6,0-1.3.3-1.7-.3.1-1.3,1.1-1.2,1.7-1.4M704,595c.5.3,1.4.4.9,1.6-.6.5-1-.8-1.5-1l.6-.6ZM703.9,592.6l-.9,1c-.4,0-1-1.1-1.1-1.6.3-.3,1.9.1,2.1.5M705.6,612.8v1.5c-2,.7-3.8,2.8-6,1.9v-1.3c.9-.4,1.9.8,2.6-1.1,1.2.1,2.2-1.6,3.4-.9M701.9,600.9c-1.1.3-2.5.5-3.5-.2.5-1.1,1.7-.5,2.6-.6.3.4.9,0,.9.8"/>
    <path class="st11" d="M645.9,589.2c5.4,0,11.4-.5,16.9,0v-2.1h-27.5c0,.9,0,2.2,0,2.2,3.4-.6,7.7,0,10.6,0"/>
    <path class="st11" d="M641.6,599.2c-1.5,0-3.2-1.5-4.8-2h-.8l-.8.2v23.3s27.4,0,27.4,0v-23.6c-7.2-.8-13.4,2.6-21.1,2.1"/>
    <path class="st11" d="M745,605c-1.6-3.9,2.1-16.9-3.9-17.9-.6,0-1.2.2-1.7.6,1,.7,1.8,1.8,2,3.1-1.4,3-4.2-.7-6.2.3v2.5c-.8.7-1.4,1.6-2.5,1.2-.7-.8-1.6-1.3-1.3-2.5.7-1.5,2.3-.9,3.3-1.6,0,0,0,0,0-.1-2-.5-1.7-3.5-5-3.5h-6.3c-2.9.9-6.6,2.6-10,0l.6,4.2.4,1.4v1.2s1.5,1.3,1.5,1.3l-1.6,1.3.5,3.2c1.2.3,2.4.4,2.5,1.5-.2,1.8-1.5,3.8-1.6,5.6,0,2.2,1.2,11.5,1.1,13.8,1.2-.1,7-.3,8.2-.9,0,0,1.6.9,1.6.9,2.1.2,4.8.7,4.1-2.9l-1.5-9.5c-1.8-4.9,1.5-6.1,2.6-6.1l.9.8c-.3,1-.5,1.9-.5,2.8.2.4.4.7.3,1.4,0,.6,0,.9-.3,1.1.3,4.4,2.5,8.2,2.5,12.5h5.6s2-1.6,2-1.6l-.4-3.9.2-3.7v-6.9c.7.2,1.6.4,2.5.8l.4-.4ZM717.4,594.1c-1.1-.9-1.8-2-1.5-3.5.7-1.6,3-1.1,4-.4.7,1.1,2.1,2.4,0,2.9.2,2.6-1.7,2.2-2.5,1M723.6,615.8v-2.1l-1.6-1.5-.7-2.2c-.8-3.4.1-7.4.7-8.7,0,0,0,0,0,0-.6-.2-1.5.3-1.8-.4.5-.9-.2-2.2.6-2.9.6-.1,2.2,0,2.6.4,0,.7,0,1.7-.7,2.4.7-.1,1.4,0,1.9.5-.2,6.6.5,11,1,17l-2-2.5ZM727.5,593.2c.3,1.4-1.5,1.6-2.2,1.7-.8-.4-1.8-1.9-1.2-3.2.5-.5,1-1.2,1.9-.9.5.8,2,1.3,1.6,2.5M730.8,597.9c-.2,1-1.4,2.1-2.9,1.8-.8-.6-.5-1.6-.7-2.4.2-.6,1.8-1,2.5-.8.3.4,1.3.9,1.1,1.5M733.1,599.7c.3-.5,1.6-1.1,2.2-1,.7.3,1.1,1.6.9,2.5,0,.7-.9.6-1.4.6-.8-.3-1.9-1.1-1.6-2.1M737.3,614.7c-.7.8-.5,4.2-2.1,2.4-1.8-4.6.6-7.8,1-12,1-1.1,2.2-1.5,2.8-1.3.2,0,1,2.1,1.2,2.1.2,2.8-1.5,3,.1,7.7-.4.8-2.5.4-3,1M741.1,602.5c-.6,0-2-.2-2.2-1.1-.1-1-.2-2.3,2-1.9,1.6.4,2.3,2.7.2,3"/>
    <path class="st13" d="M708.6,551c.8,0,2.8,0,3.9,0,2.2.2,3.1,1.4,3.1,2.9s-1.6,3.5-4.3,3.7c-.9,0-2,0-2.7,0v-6.6ZM708.6,558.5c.7,0,2.5.2,3.7,0,3.9-.6,5.8-1.9,5.8-4.6s-1.7-3.7-7-3.7h-4.9v15.6c.4,0,.8,0,1.2,0s.8,0,1.2,0v-7.1Z"/>
    <path class="st13" d="M725.7,560.5c0,.6,0,1,0,1.7-.2,1.4-1.3,3-3.2,3.1-1.6,0-2.3-1.1-2.2-2.3.3-2.5,1.2-2.2,4.2-3.1l1.2-.4v1ZM725.7,559l-.4.2c-1,.4-1,.3-2.8.7-2.1.5-4.4.7-4.5,3.2,0,1.5,1.6,2.7,3.4,2.8,1.8,0,3.6-.7,4.2-2.2v1.9h3.6v-.4h-1.2v-6.8c0-1.8-.3-3.5-4.2-3.7-1.1,0-1.3,0-2.1.1-.9.1-1.7.4-2.3.6v3.3h.5l.6-1.4c.6-1.2,1.1-2.5,3-2.3,1.9.2,2.2,1.2,2.2,2.4v1.6Z"/>
    <path class="st13" d="M735.9,565.6h-5.3v-.4h1.3v-9.8h-1.4v-.4h3.4v2.2c.1-.8,1.4-2.3,3.3-2.3s1.1.1,1.6.4v3.9h-.6l-.7-1.8c-.5-1.3-.9-2.1-1.6-1.7-2,1-1.8,3.3-1.8,5.4v4.1h1.7v.4Z"/>
    <path class="st13" d="M740.4,565.6v-.4h1.4v-9.8h-1.3v-.4h3.6v10.3h1.2v.4h-4.9ZM744.1,552.5c0,.7-.7,1.2-1.4,1.2s-1.4-.5-1.4-1.2.6-1.2,1.4-1.2,1.5.5,1.5,1.2"/>
    <path class="st13" d="M754,557.4c-.6-1.7-1.1-2.3-2.6-2.3s-3,.4-3.1,1.8c0,1.2,1.4,1.7,2.8,2.1,2.3.7,5,1.3,4.9,3.5,0,2-2.1,3.5-4.9,3.5-1.6,0-3.4-.5-4-.9v-3.5h.5l.6,1.8c.7,2,1.4,2,2.6,2.1,1.7.1,3.6-.5,3.7-1.9.2-1.7-2.5-2.1-4.2-2.6-1.2-.4-3.6-1-3.6-3s3.1-3.1,4.7-3.1,2.9.4,3.5.7v3.2h-.6l-.4-1.2Z"/>
    <path class="st3" d="M654.1,531.1h-5v14.2c0,.6-.5,1.1-1.1,1.1h-.5c-.6,0-1.1-.5-1.1-1.1v-14.2h-4.9c-.6,0-1.2-.4-1.2-1.1v-.4c0-.6.5-1.1,1.1-1.1h12.7c.6,0,1.2.4,1.2,1.1v.4c0,.6-.5,1.1-1.1,1.1"/>
    <path class="st3" d="M670.2,546.5h-11.6c-.6,0-1.1-.5-1.1-1.1v-15.8c0-.6.5-1.1,1.1-1.1h11.1c.6,0,1.1.4,1.1,1.1v.4c0,.6-.5,1.1-1.1,1.1h-9.4v5.2h8.6c.6,0,1.1.4,1.1,1.1v.4c0,.6-.5,1.1-1.1,1.1h-8.6v5.1h9.9c.6,0,1.1.4,1.1,1.1v.4c0,.6-.5,1.1-1.1,1.1"/>
    <path class="st3" d="M685.9,546.5h-11.7v-16.8c0-.6.5-1.1,1.1-1.1h.5c.6,0,1.1.5,1.1,1.1v14.2h8.9c.6,0,1.1.4,1.1,1.1v.4c0,.6-.5,1.1-1.1,1.1"/>
    <path class="st3" d="M701.6,546.5h-11.6c-.6,0-1.1-.5-1.1-1.1v-15.8c0-.6.5-1.1,1.1-1.1h11.1c.6,0,1.1.4,1.1,1.1v.4c0,.6-.5,1.1-1.1,1.1h-9.4v5.2h8.6c.6,0,1.1.4,1.1,1.1v.4c0,.6-.5,1.1-1.1,1.1h-8.6v5.1h9.9c.6,0,1.1.4,1.1,1.1v.4c0,.6-.5,1.1-1.1,1.1"/>
    <path class="st3" d="M717.1,546.5h-7.4c-2.3,0-4.1-2-4.1-4.3v-9.4c0-2.3,2-4.2,4.3-4.2h6.8c.6,0,1.1.4,1.1,1.1v.4c0,.6-.5,1.1-1.1,1.1h-5.8c-1.8,0-2.5,1.1-2.5,2.5v8c0,1.8,1.1,2.3,2.5,2.3h6.2c.6,0,1.1.4,1.1,1.1v.4c0,.6-.5,1.1-1.1,1.1"/>
    <path class="st3" d="M731.3,546.5h-6.1c-2.3,0-4.2-1.9-4.2-4.2v-9.5c0-2.3,2-4.2,4.3-4.2h5.8c2.3,0,4.3,1.8,4.3,4.2v9.5c0,2.3-1.9,4.2-4.2,4.2M732.7,533.2c0-1.1-.9-2.1-2.1-2.1h-4.8c-1.2,0-2.1.9-2.1,2.1v8.7c0,1.2.9,2.1,2,2.1h4.8c1.1,0,2.1-.9,2.1-2.1v-8.7Z"/>
    <path class="st3" d="M754.5,546.5h-.5c-.6,0-1.1-.5-1.1-1.1v-11.9l-3.8,5.3c-.3.5-.6.8-1.2.8h-.4c-.6,0-.9-.4-1.2-.8l-3.8-5.3v11.9c0,.6-.5,1.1-1.1,1.1h-.5c-.6,0-1.1-.5-1.1-1.1v-15.7c0-.6.4-1.1,1.1-1.1h.7c.5,0,.9.5,1.2.8l5.1,7.1,5.1-7.1c.3-.4.6-.8,1.1-.8h.7c.6,0,1.1.5,1.1,1.1v15.7c0,.6-.5,1.1-1.1,1.1"/>
  </g>
  <path class="st2" d="M844.3,615.9l.7.2c.6.1,1.5.2,2.1-.1-.2-.5-.4-.9-.7-1.2-.8.4-1.5.7-2.1,1.2"/>
  <g>
    <rect class="st9" x="794.5" y="493.8" width="126.8" height="87.3"/>
    <path class="st2" d="M921.2,620.5v-33.5h-5.7c-.6.8-.2,4.3-2,5-6.1-1.4-.5-2.1-2.6-5-.3,0-2.7,0-3,0,.3,0,1.3,1.2-.2,2.6-2.1,14.1,1.8,19.8-.2,30.9h13.8Z"/>
    <path class="st2" d="M830.5,597.4c2.3-1.1,2.3-3.5,2.4-5-.7-.8-3.4-.8-4.5-.6-1.5,1.3-.2,3.5-1.1,5,.6,1.3,2.2.4,3.2.7"/>
    <path class="st2" d="M852,605.3c-1.6,0-3,2.4-4.4,1.4.8-2.3,2.6-4.1,3.3-6.3,1.3-3,3.5-9.5,2.6-13.4h-6.2c-2,.6-.5,5.8-2.6,6.1-.6-1.4-.4-3.1-2-6.1h-3.3c.3,2.2,0,2.3-.3,2.6-1.1,0-1-1.7-2.5-.8-1.3-.2-1.6,1.8-2.9,1.4-.5-1.1-1.7-2.5-3.1-1.6,1.2,2.6,7.2,3.7,4.4,7.9-.6,1.2-.1,3-1.7,3.7-2.7-.7-5.2-1.7-7.9-2.4.3,1-.5,2.4-.2,3.4,2.9.4,3.7,3.4,6.2,4.3.5.4.7.8.6,1.5-1.7.7-3.6-.8-5.2-1.5-.4.2-.2.6-.2.8,1.5,1.8,6.3,1,4.8,4.7-1.3,3-1,7.9-5.6,8.3-.4.9.7.8,1,1.2,3.9.4,7.9-3.3,11.2-.2,1.1,0,2.5-.7,3.3.2h9.8c1.8-3.6.4-5.8.6-9.1.2-.8-2.3-1.7-4.2-1.2-.3-.2-.1-.7-.2-1.1,1.3-1.5,6.3.7,5.2-2.8,0-.3,0-1-.6-1M831.2,601.6h-.9c-1.2-.4-3.9-1.1-4-2.5,1.7.4,3.2,1.3,4.8,1.9v.6ZM842.4,591.2l-.3,3.5c-.1.6-.6,1.7-1.6,1.2-1.2.3-.6-1.2-.7-1.7,1.1-.9,1.3-2.8,2.5-3M842.5,601.4c-1,.7-2.6.4-3.7.2.3-.4.4-1,.4-1.5.7-.6,1.4-1.8,2.7-1.4.5.7.7,1.6.6,2.7M837.9,591.6c.1-1.3,1.7-.8,2.5-1.2l.2.6c-.8.6-1.4,2-2.7,1.5v-.8ZM837.7,605.7c1.5.3,3.2-.8,4.4.4-.5,1.1-.5,2.9-2.3,1.9-.8-.6-2.6-.3-2.5-1.9l.4-.4ZM835.8,590.6c.3-.4.7-1.3,1.5-1,0,.7-.4,1.9-1.5,1.4v-.4ZM834.6,604c1-.6,2.4-.5,2.1,1.4h-1.6c-.3-.4-.8-.8-.5-1.4M830.8,603.3c.3-.5.9-.2,1.3-.3.2,1.2,2.1-.3,1.3,1.3h-.2c-.8.4-2.2,0-2.5-1M833.1,617.3c-1.4-2.5.2-6.6.6-9,.3-.3.7-.8,1.3-.6.4,1.3-1.5,2.1-.2,3.3,1.3-.4,3,.8,4.4-.2-.7-1.1-2.1-.6-3.1-1v-.6l2.9-.2c.5.6,2.5,1.2,2.1,2.4-2,2.8-5.3,4.4-7.9,5.9M846.3,614.1c.5,1.4.6,3,0,4.1l-6.7.2v-.9c1.2-1.5,2.5-2.6,3.9-3.5l-1.3-.4c-1.9-1.3,2.6-3.2,3.3-3.7l1.8,2.9c0,.6-.4,1-.9,1.2M843.7,598.8c-1.4-3.7,3.6-5.1,5.5-7.4l2.6,1.4c-.3,2.5-4.8,3-4.6,5.7.5.4.9,1.1,1.5,1.2.2.7-.3,1.1-.8,1.5-2,.8-3-1.2-4.3-2.4"/>
    <path class="st2" d="M804.1,590.6c-6.1-.4-9.4.2-9.5.2v4.9h1.1c1.4.4,2.3.4,3.7.4,5.1.5,9.5-.2,14.6-.5-.6-.2-1.2-.3-1.7-.3-.9-.7-1.4-1.1-1.2-2.1,1.4-1.4,3.8-.2,5.4-1.1,1.4.5.5,2.1.8,3-.1.3-.3.2-.5.4,1.6,0,3.2,0,5,.2v-5c-7.6-.5-13,.2-17.8,0"/>
    <path class="st2" d="M861.7,588.9c2.5.6,5.1.9,7.7,1v-2.9h-11c0,2.3-1.8,5.6-1.8,5.6,1,0,1.9,0,2.8.5v.6c-.9-.2-1.8-.3-2.8-.4v9.5h1.2c0,.2.3.3.2.6l-.2.5h-1.2v1.2c.4,0,.8.1,1.2,0,0,0,0,.1,0,.2.6.1,1,.9,1.7.5v.6h-1.3c-.2,0-.6,0-.7-.3-.3.1-.6.2-.9.1v.9c1-.4,2.2,0,3.2,0,.1.2.3.3.3.6l-.3.4c-1-.3-2.1-.2-3.2-.3v7.4c.3,0,.7.2,1,.2.1.3.4.4.4.8-.4.2-.9.3-1.4.2v4.1h12.8v-4.1c-.5,0-1.7.2-2.1,0,0-.3,1.3-2.9,1.6-3l.5-5.5c-1,.1-2.2,0-3.1.3l-.2-.4c0-.3.1-.4.2-.6.9,0,2.2-.5,3.1,0v-.9c-.5,0-1.1,0-1.5-.4,0-.3.2-.4.3-.6.4.1.8,0,1.2,0v-1.2h-1.2l-.3-.5c0-.3.2-.4.3-.6h1.2v-9.5c-.9,0-1.9.2-2.7.4v-.6c.9-.4,1.8-.5,2.7-.5v-1.9c-2.3-.1-4.5-.4-6.7-.5-.5-.3-1.3-.2-1.7-.8.1-.4.4-.5.7-.5M868.6,595.9v1.9c-.9-.1-1.9.3-2.7-.3.4-1.4,1.8-1.3,2.7-1.6M858.2,594.6h1.7v.6h-1.7v-.6ZM861,597.1c-.7.5-1.6.8-2.4.9l-.5-1.6c.9,0,2.6-.5,2.9.7M857.2,610.9h2.2v.6h-2.2v-.6ZM866.8,618.5c-.8,1.8-2.2.5-3.1,0-.8-.3-1.4,2-2.2.3,0-.4.2-.6.3-.9,1.8-1.2,3.6-.2,5.1.6M865,604.1h-3.2v-1.2h3.2v1.2ZM864.4,608.6v1.7c-.6,0-1.3.3-1.7-.3.1-1.3,1.1-1.2,1.7-1.4M863.3,594.9c.5.3,1.4.4.9,1.6-.6.5-1-.8-1.5-1l.6-.6ZM863.2,592.5l-.9,1c-.4,0-1-1.1-1.1-1.6.3-.3,1.9.1,2.1.5M864.9,612.7v1.5c-2,.7-3.8,2.8-6,1.9v-1.3c.9-.4,1.9.8,2.6-1.1,1.2.1,2.2-1.6,3.4-.9M861.2,600.7c-1.1.3-2.5.5-3.5-.2.5-1.1,1.7-.5,2.6-.6.3.4.9,0,.9.8"/>
    <path class="st2" d="M805.2,589.1c5.4,0,11.4-.5,16.9,0v-2.1h-27.5c0,.9,0,2.2,0,2.2,3.4-.6,7.7,0,10.6,0"/>
    <path class="st2" d="M800.9,599c-1.5,0-3.2-1.5-4.8-2h-.8l-.8.2v23.3s27.4,0,27.4,0v-23.6c-7.2-.8-13.4,2.6-21.1,2.1"/>
    <path class="st2" d="M904.2,604.8c-1.6-3.9,2.1-16.8-3.9-17.9-.6,0-1.2.2-1.7.6,1,.7,1.8,1.8,2,3.1-1.4,3-4.2-.7-6.2.3v2.5c-.8.7-1.4,1.6-2.5,1.2-.7-.8-1.6-1.3-1.3-2.5.7-1.5,2.3-.9,3.3-1.6,0,0,0,0,0-.1-2-.5-1.7-3.5-5-3.5h-6.3c-2.9.9-6.6,2.6-10,0l.6,4.2.4,1.4v1.2s1.5,1.3,1.5,1.3l-1.6,1.3.5,3.2c1.2.3,2.4.4,2.5,1.5-.2,1.8-1.5,3.8-1.6,5.6,0,2.2,1.2,11.5,1.1,13.8,1.2-.1,7-.3,8.2-.9,0,0,1.6.9,1.6.9,2.1.2,4.8.7,4.1-2.9l-1.5-9.5c-1.8-4.9,1.5-6.1,2.6-6.1l.9.8c-.3,1-.5,1.9-.5,2.8.2.4.4.7.3,1.4,0,.6,0,.9-.3,1.1.3,4.4,2.4,8.2,2.5,12.5h5.6s2-1.6,2-1.6l-.4-3.9.2-3.7v-6.9c.7.2,1.6.4,2.5.8l.4-.4ZM876.7,594c-1.1-.9-1.8-2-1.5-3.5.7-1.6,3-1.1,4-.4.7,1.1,2.1,2.4,0,2.9.2,2.6-1.7,2.2-2.5,1M882.9,615.7v-2.1l-1.6-1.5-.7-2.2c-.8-3.4.1-7.4.7-8.7,0,0,0,0,0,0-.6-.2-1.5.3-1.8-.4.5-.9-.2-2.1.6-2.9.6-.1,2.2,0,2.6.4,0,.7,0,1.7-.7,2.4.7-.1,1.4,0,1.9.5-.2,6.6.5,11,1,17l-2-2.5ZM886.7,593.1c.3,1.4-1.5,1.6-2.2,1.7-.8-.4-1.8-1.9-1.2-3.2.5-.5,1-1.2,1.9-.9.5.8,2,1.3,1.6,2.5M890.1,597.8c-.2,1-1.4,2.1-2.9,1.8-.7-.6-.5-1.6-.7-2.4.2-.6,1.8-1,2.5-.8.3.4,1.3.9,1.1,1.5M892.4,599.6c.3-.5,1.6-1.1,2.2-1,.7.3,1.1,1.6.9,2.5,0,.7-.9.6-1.4.6-.8-.3-1.8-1.1-1.6-2.1M896.5,614.6c-.7.8-.5,4.2-2.1,2.4-1.8-4.6.6-7.8,1-12,1-1.1,2.2-1.5,2.8-1.3.2,0,1,2.1,1.2,2.1.2,2.8-1.5,3,.1,7.7-.4.8-2.5.4-3,1M900.4,602.4c-.6,0-2-.2-2.2-1.1-.1-1-.2-2.3,2-1.9,1.6.4,2.3,2.7.2,3"/>
    <path class="st3" d="M828.7,566.9c-2.6,0-4.3-.6-5.9-2.3l1.2-1.2c1.4,1.4,2.7,1.9,4.7,1.9s4-1.2,4-3.2-.3-1.7-.8-2.1c-.6-.5-1-.6-2.2-.8l-2-.3c-1.3-.2-2.4-.6-3.1-1.3-.9-.8-1.3-1.8-1.3-3.2,0-2.9,2.1-4.8,5.5-4.8s3.6.6,5.1,1.9l-1.2,1.2c-1.1-1-2.2-1.5-4-1.5s-3.6,1.3-3.6,3.2.2,1.5.8,2c.5.5,1.4.8,2.3.9l1.9.3c1.6.2,2.4.6,3.1,1.2.9.8,1.4,2,1.4,3.4,0,3-2.4,4.9-5.9,4.9"/>
    <path class="st3" d="M845.3,566.8v-1.3c-.8,1-2,1.5-3.3,1.5s-2.3-.4-3-1.1c-.8-.8-1.2-1.9-1.2-3.3v-7.5h1.7v7.3c0,2.1,1.1,3.1,2.9,3.1s3-1.1,3-3.1v-7.3h1.7v11.8h-1.7Z"/>
    <path class="st3" d="M858.2,566.8v-1.4c-1,1.2-2.1,1.6-3.4,1.6s-2.3-.4-2.9-1c-1.2-1.2-1.4-3.2-1.4-5s.2-3.8,1.4-5c.6-.6,1.7-1,2.9-1s2.4.3,3.3,1.5v-6.7h1.7v17.1h-1.7ZM855.2,556.4c-2.6,0-3,2.2-3,4.5s.4,4.5,3,4.5,3-2.2,3-4.5-.4-4.5-3-4.5"/>
    <path class="st3" d="M870.6,559.8h-4.5v7h-1.8v-17.1h6.4c3.1,0,5.3,1.9,5.3,5s-2.2,5-5.3,5M870.5,551.3h-4.4v6.8h4.4c2.1,0,3.6-1.2,3.6-3.4s-1.5-3.4-3.6-3.4"/>
    <path class="st3" d="M885.6,566.8v-1.1c-1,1-1.8,1.3-3.4,1.3s-2.6-.3-3.3-1.1c-.6-.6-.9-1.5-.9-2.4,0-2.1,1.4-3.4,4.1-3.4h3.6v-1.1c0-1.7-.9-2.6-3-2.6s-2.3.4-3,1.3l-1.2-1.1c1.1-1.4,2.3-1.8,4.2-1.8,3.2,0,4.7,1.4,4.7,3.9v8h-1.7ZM885.6,561.4h-3.3c-1.8,0-2.6.7-2.6,2.1s.8,2,2.7,2,1.9,0,2.6-.8c.4-.4.6-1.1.6-2v-1.3Z"/>
    <path class="st3" d="M897.9,557.2c-.6-.6-1.1-.9-2-.9-1.7,0-2.8,1.4-2.8,3.2v7.3h-1.7v-11.8h1.7v1.4c.6-1,1.9-1.6,3.3-1.6s2,.3,2.8,1.1l-1.3,1.3Z"/>
    <path class="st3" d="M901,549.7h1.9v1.9h-1.9v-1.9ZM901.1,555h1.7v11.8h-1.7v-11.8Z"/>
    <path class="st3" d="M910.7,566.9c-2,0-3.6-.5-4.9-1.7l1.2-1.2c.9,1,2.2,1.4,3.7,1.4s3.1-.7,3.1-2.1-.6-1.6-2-1.7l-1.9-.2c-2.3-.2-3.5-1.2-3.5-3.2s1.8-3.5,4.3-3.5,3.2.4,4.3,1.3l-1.1,1.1c-.8-.6-1.9-.9-3.1-.9s-2.6.7-2.6,1.9.6,1.6,2.1,1.7l1.9.2c2.1.2,3.5,1,3.5,3.2s-1.9,3.6-4.8,3.6"/>
    <path class="st3" d="M813.4,531h-5v14.2c0,.6-.5,1.1-1.1,1.1h-.5c-.6,0-1.1-.5-1.1-1.1v-14.2h-4.9c-.6,0-1.2-.4-1.2-1.1v-.4c0-.6.5-1.1,1.1-1.1h12.7c.6,0,1.2.4,1.2,1.1v.4c0,.6-.5,1.1-1.1,1.1"/>
    <path class="st3" d="M829.5,546.4h-11.6c-.6,0-1.1-.5-1.1-1.1v-15.8c0-.6.5-1.1,1.1-1.1h11c.6,0,1.1.4,1.1,1.1v.4c0,.6-.5,1.1-1.1,1.1h-9.4v5.2h8.6c.6,0,1.1.4,1.1,1.1v.4c0,.6-.5,1.1-1.1,1.1h-8.6v5.1h9.9c.6,0,1.1.4,1.1,1.1v.4c0,.6-.5,1.1-1.1,1.1"/>
    <path class="st3" d="M845.2,546.4h-11.7v-16.7c0-.6.5-1.1,1.1-1.1h.5c.6,0,1.1.5,1.1,1.1v14.2h8.9c.6,0,1.1.4,1.1,1.1v.4c0,.6-.5,1.1-1.1,1.1"/>
    <path class="st3" d="M860.9,546.4h-11.6c-.6,0-1.1-.5-1.1-1.1v-15.8c0-.6.5-1.1,1.1-1.1h11c.6,0,1.1.4,1.1,1.1v.4c0,.6-.5,1.1-1.1,1.1h-9.4v5.2h8.6c.6,0,1.1.4,1.1,1.1v.4c0,.6-.5,1.1-1.1,1.1h-8.6v5.1h9.9c.6,0,1.1.4,1.1,1.1v.4c0,.6-.5,1.1-1.1,1.1"/>
    <path class="st3" d="M876.4,546.4h-7.4c-2.3,0-4.1-2-4.1-4.3v-9.4c0-2.3,2-4.2,4.3-4.2h6.8c.6,0,1.1.4,1.1,1.1v.4c0,.6-.5,1.1-1.1,1.1h-5.8c-1.8,0-2.5,1.1-2.5,2.5v8c0,1.8,1.1,2.3,2.5,2.3h6.2c.6,0,1.1.4,1.1,1.1v.4c0,.6-.5,1.1-1.1,1.1"/>
    <path class="st3" d="M890.6,546.4h-6.1c-2.3,0-4.2-1.9-4.2-4.2v-9.5c0-2.3,2-4.1,4.3-4.1h5.8c2.3,0,4.3,1.8,4.3,4.1v9.5c0,2.3-1.9,4.2-4.2,4.2M892,533.1c0-1.1-.9-2.1-2.1-2.1h-4.8c-1.2,0-2.1.9-2.1,2.1v8.7c0,1.2.9,2.1,2,2.1h4.8c1.1,0,2.1-.9,2.1-2.1v-8.7Z"/>
    <path class="st3" d="M913.8,546.4h-.5c-.6,0-1.1-.5-1.1-1.1v-11.9l-3.8,5.3c-.3.5-.6.8-1.2.8h-.4c-.6,0-.9-.4-1.2-.8l-3.8-5.3v11.9c0,.6-.5,1.1-1.1,1.1h-.5c-.6,0-1.1-.5-1.1-1.1v-15.7c0-.6.4-1.1,1.1-1.1h.7c.5,0,.9.5,1.2.8l5.1,7.1,5.1-7.1c.3-.4.6-.8,1.1-.8h.7c.6,0,1.1.5,1.1,1.1v15.7c0,.6-.5,1.1-1.1,1.1"/>
  </g>
  <path class="st8" d="M106.4,526.1c-4.1,4.8-9.4,11.1-14.1,16.9-18.3-22.7-35.4-40.9-46.7-49.3,5.9,13.5,20.4,34.4,39.4,58.6-9.9,12.8-29.5,38.2-39.5,59.8,13.6-10.7,31.9-32,46.7-50.7,18.3,22.7,35.7,42.2,47,50.6-5.9-13.4-20.8-35.7-39.7-59.9,7.4-9.5,10.1-12.9,17.4-23.2,7.9-11.2,20.7-27.2,27.6-23.8-10.3-5.8-24.9,5.3-38.2,21"/>
  <path class="st8" d="M69.6,545.8c-.2-.2-.5-.2-.8-.2s-.9.1-1.4.4c-.5.3-1,.7-1.6,1.2-.5.5-1.1,1.1-1.6,1.8-.6.7-1.1,1.4-1.6,2.2-.5.8-1,1.6-1.4,2.5-.5.9-.8,1.8-1.2,2.7-.3.9-.6,1.8-.8,2.7-.1.6-.2,1.3-.3,1.9-.5.5-1,.9-1.4,1.3-.6.5-1,.9-1.4,1.2-.4.3-.7.5-1,.7l.2.7c.3-.1.8-.5,1.3-.8.4-.3.9-.7,1.4-1.2.3-.3.6-.5.9-.8,0,.5,0,1,.2,1.4.2.5.4.9.6,1.2.3.3.6.5.9.7.3.1.7.2,1.1.2s.9-.1,1.3-.3c.4-.2.8-.5,1.2-.9.3-.3.6-.6.9-1l-.5-.5c0,0-.1.2-.2.2-.3.3-.6.6-.9.9-.3.3-.6.5-.9.6-.3.2-.6.2-.9.2-.5,0-.8-.2-1.1-.6-.3-.4-.4-1-.4-1.7,0-.3,0-.6,0-.8,0-.3,0-.6.1-.9.2-.2.5-.5.7-.7,0,0,.2-.2.3-.3.2-.2.4-.4.6-.6.2-.2.5-.6.9-.9.3-.4.8-.9,1.2-1.4.5-.6,1-1.2,1.7-2,.3-.4.7-.8,1-1.3.3-.5.6-1,1-1.5.3-.5.6-1,.8-1.5s.5-1,.7-1.4c.2-.5.3-.9.5-1.3.1-.4.2-.7.2-1,0-.4-.1-.7-.3-.8M68.9,548.1c-.2.6-.5,1.2-.9,1.8-.4.7-.8,1.4-1.3,2.1-.5.8-1.1,1.5-1.7,2.3-.6.8-1.3,1.6-2,2.4-.7.8-1.5,1.6-2.2,2.4h0s0,0,0,0c.2-1,.5-2,.9-3,.4-1,.8-2,1.4-3,.5-1,1-1.9,1.6-2.7.6-.9,1.1-1.6,1.7-2.2.5-.6,1-1.1,1.5-1.5.5-.4.8-.6,1.1-.6s.2,0,.3.2c0,.1,0,.2,0,.3,0,.4-.1.9-.3,1.4M74.8,548.1c0,.3,0,.7-.2,1-.2.3-.4.6-.7.8s-.6.5-.9.7c-.3.2-.7.4-1,.5l-.3-.5c.4-.2.7-.4,1.1-.7.3-.3.6-.5.7-.8-.3,0-.5-.2-.7-.4-.1-.2-.2-.4-.2-.6s.1-.5.3-.7c.2-.2.5-.3.7-.3s.6.1.7.3c.2.2.3.4.3.7"/>
  <path class="st8" d="M77.6,604.2h3.8v.7h-3.1v2.4h3.1v.7h-3.1v2.5h3.1v.7h-3.8v-6.9ZM80.6,602.1l.3.5-2.3,1.2-.2-.5,2.2-1.3ZM89.3,609.3c-.5,1.1-1.7,2-3.2,2s-3.6-1.6-3.6-3.6,1.5-3.6,3.6-3.6,2.8,1.1,3.2,2h-.8c-.2-.4-1-1.3-2.4-1.3s-2.8,1.3-2.8,2.9,1.2,2.9,2.8,2.9,2.2-1,2.4-1.3h.8ZM90,607.7c0-2.1,1.7-3.6,3.6-3.6s3.6,1.6,3.6,3.6-1.6,3.6-3.6,3.6-3.6-1.6-3.6-3.6h0ZM90.8,607.7c0,1.6,1.2,2.9,2.9,2.9s2.8-1.3,2.8-2.9-1.2-2.9-2.9-2.9-2.8,1.3-2.8,2.9h0ZM98.6,604.2h.8v6.3h3v.7h-3.8v-6.9ZM103.3,604.2h3.8v.7h-3.1v2.4h3.1v.7h-3.1v2.5h3.1v.7h-3.8v-6.9Z"/>
  <path class="st8" d="M54,613.8c1.2,0,1.6.2,2,.5.5.4.8,1.1.8,1.8s-.3,1.4-.7,1.8c-.5.4-.9.6-2,.6h-.9v2.4h-1.4v-6.9h2.1ZM53.3,617.1h.8c.3,0,.6,0,.9-.2.3-.1.5-.4.5-.9s-.2-.7-.5-.9c-.3-.2-.6-.2-.9-.2h-.8v2.1ZM57.6,617.3c0-2.2,1.7-3.7,3.6-3.7s3.7,1.6,3.7,3.6-1.5,3.6-3.7,3.6-3.6-1.7-3.6-3.5h0ZM59,617.3c0,1.3.9,2.4,2.3,2.4s2.2-1.2,2.2-2.4-.8-2.4-2.2-2.4-2.3,1.1-2.3,2.4h0ZM66.2,613.8h1.4v5.7h2.3v1.2h-3.7v-6.9ZM72.2,618.2l-2.1-4.5h1.5l1.3,3.2,1.3-3.2h1.5l-2.1,4.5v2.5h-1.4v-2.5ZM78,615h-1.5v-1.2h4.4v1.2h-1.5v5.7h-1.4v-5.7ZM82.4,613.8h3.9v1.2h-2.5v1.6h2.4v1.2h-2.4v1.7h2.5v1.2h-3.9v-6.9ZM94.4,618.4c-.4,1.4-1.8,2.5-3.4,2.5s-3.6-1.7-3.6-3.6,1.4-3.6,3.6-3.6c2,0,3.1,1.5,3.4,2.5h-1.5c-.2-.5-.8-1.3-1.9-1.3-1.3,0-2.2,1.1-2.2,2.4s.9,2.4,2.2,2.4,1.8-1,1.9-1.2h1.5ZM95.5,620.7v-6.9h1.4v2.8h2.7v-2.8h1.4v6.9h-1.4v-2.9h-2.7v2.9h-1.4ZM107.4,618.6v-4.8s1.3,0,1.3,0v6.9h-1.2l-3.2-4.8v4.8s-1.3,0-1.3,0v-6.9h1.2l3.2,4.8ZM110.7,613.8h1.4v6.9h-1.4v-6.9ZM123.7,613.8v4.3c0,.3,0,.7.2,1.1.2.3.5.5.9.5s.8-.2.9-.5c.2-.3.2-.7.2-1.1v-4.3h1.4v4.3c0,1-.2,1.7-.7,2.1-.4.4-1,.7-1.8.7s-1.3-.1-1.8-.7c-.6-.6-.7-1.2-.7-2.1v-4.3h1.4ZM129,613.8h3.9v1.2h-2.5v1.6h2.4v1.2h-2.4v1.7h2.5v1.2h-3.9v-6.9ZM120.8,619.7c-.1,0-.4,0-.7-.2.5-.6.8-1.4.8-2.2,0-2-1.5-3.6-3.7-3.6s-3.6,1.4-3.6,3.7h0c0,1.3.7,2.5,1.9,3.1,0,0,0,0,0,0,0,0,.2,0,.2.1.5.2,1,.3,1.5.3s1.2-.2,1.8-.4c0,0,.1,0,.2-.1.3.2.8.6,1.6.6h.2v-1.2h-.2ZM114.9,617.3h0c0-1.2.9-2.4,2.3-2.4s2.2,1.2,2.2,2.4-.1.9-.4,1.3l-.7-.7-.8.9.7.7c-.3.2-.6.2-1,.2-1.4,0-2.3-1.1-2.3-2.4"/>
  <path class="st7" d="M96.9,504.8s.7-.8.8-.8c0,0,.5-.5.6-.5,0,0-.1.3-.1.3,0,0-.4.7-.5.8-.1,0-.3.2-.4.2,0,0,0,0,0,0,0,0-.1.1-.2.1,0,0-.2,0-.2,0,0,0,0-.2,0-.2M96.2,507.6c0,0,0-.1.1-.2,0,0,0-.1.1-.2,0,0,1.3-.7,1.6-.9,0,0,0,0,.1-.1,0,0-.8.3-.9.4,0,0-.7.3-.7.2,0,0,.2-.3.2-.4,0,0,1-.2,1.8-.6,0,0,.1,0,.2,0,0,.2-1,1.3-2.5,1.8M94.7,507.8c-.1,0-.4,0-.4-.1,0,0,1.3-.6,1.5-.7,0,0-1.2.4-1.2.3,0-.1,0-.2,0-.2.5,0,1.7-.6,1.7-.5,0,0-1.1,1.2-1.6,1.3M96.1,502.9c0,.2,0,.3-.2.4,0,0-.1,0-.2,0,0,0-.2,0-.3,0,0,0-.2,0-.2,0,0,0-.1,0-.2,0,0,0,0,0,0,0,0-.1,0-.3,0-.4,0,0,.8.1.9.2M96.1,505.6s0,0,0,.1c-.1,0-.1-.2-.1-.4,0,0,0,0,0,0,0,0,0,.2,0,.2M95.8,503.9c-.1,0-.8,0-.8,0,0,0-.1-.6.2-.5,0,0,.6,0,.7,0,0,0,0,.5,0,.5M95.9,504.1c0,0,0,.4,0,.4,0,0-.5,0-.6,0-.2,0-.2-.3-.2-.5,0,0,.8,0,.8,0M95.4,505.2c-.3,0-.2-.3-.2-.5,0,0,.6,0,.7,0,0,0,.2.6,0,.6-.1,0-.4,0-.4,0M95.8,505.3c.2,0,.1.3.2.4,0,0-.6,0-.6,0,0,0,0,0-.1,0,0,0,0-.1,0-.2,0,0,0-.2,0-.2.1,0,.3,0,.5,0M94.7,505.8c0,0,.2,0,.2,0,0,0-.1,0-.2,0,0,0-.1,0-.2,0,0,0-.3,0-.3,0,0,0,0-.1.1-.1.1,0,.3,0,.4,0M94.7,506.1c0,0,.1,0,.2,0,0,0-.3,0-.3,0,0,0-.7,0-.7,0,0,0,.2-.2.2-.2.2,0,.5,0,.7.1M98,504.4s0,0,0,0c0,0,0-.2.1-.3,0,0,.1-.3.2-.4.1,0,1-.9,1-1,0,0-.8.7-.9.6,0,0,.3-.7.4-.8,0,0,.1-.1.2-.1,0,0,0,.1,0,.1.3,0,.3-.6.5-.6s0,.1,0,.1c0,0,.1-.3.2-.4,0,0,.2,0,.2,0,0,0,0,.3-.1.4,0,.3-.2.5-.3.8,0,.2-1.5,1.6-1.7,1.6M96.9,505.3h0s.3,0,.3-.1c0,0,0-.2.2-.1,0,0-.5.9-.7,1.1-.4.3-1.6.7-1.6.7-.2,0-.3,0-.2-.1,0,0,0-.1,0-.1,0,0,1-.3,1.2-.5,0,0-1,.2-1.1.2,0-.1,0-.3.1-.3,0,0,.6,0,.8,0,0,0,.6,0,.8-.1.1-.2.1-.5.1-.5M96.3,505.7c0,0,0-.2.1-.2,0,0,.1-.2.2-.2,0,0,0,0,0,0,0,.2-.2.3-.3.4,0,0,0,.1-.1,0M96.6,503.5c0,.1-.3.4-.3.5,0,0,0,.1,0,.2,0,0,0,0,0,0,0,0,.2-.3.3-.3.1,0-.3.5-.4.6,0,0,0,.2,0,.2,0,0,.3-.4.4-.4,0,0,0,0,0,0,0,0-.4.6-.4.6,0,0,0,.2,0,.2,0,0,.3-.4.3-.4,0,0,0,.1,0,.2,0,0-.3.4-.3.6,0,0,0,0,0,0,0,0,0-.3,0-.4s0-.7,0-.8c0,0,0-.2,0-.3,0,0,.3-.3.4-.3,0,0,0,0,0,0M96.5,503.3c0,0-.3.5-.4.5,0,0,0-.3,0-.3,0,0,.2-.2.3-.3,0,0,0,0,0,0M96.3,503c.1,0,0,.2,0,.3,0,0,0,0-.1,0,0-.1.1-.2.2-.3M96.7,499.3s.8.6,1.1.8c0,0,0,0,0,0,0,0-.1,0-.2,0-.3-.2-1-.7-1-.7,0,0,0,0,0,0M97.6,500.4c.3.2.2.4.1.4,0,0-.1,0-.2-.1,0,0-.2-.1-.2-.1.1.2.2.3.4.4,0,.1-.4.5-.5.6,0,0,0,0-.2,0s-1.1-.7-1.1-.7c0,0-.1,0-.2-.1,0,0,.2-.5.2-.6,0,0,.3-.5.4-.5,0,0,.3.1.3.2,0,0,.9.7.9.7M95.5,500.7c0,0,0,0,.2,0,.1,0,.3.2.4.2.2.2.8.6.9.6,0,0,.2.1.1.2-.1-.1-.4-.2-.4-.3,0,0,.1.1.2.2,0,0,.1.1.2.2,0,0-.1,0-.2-.1-.4-.3-.6-.4-1-.7,0,0-.3-.1-.3-.3M96.8,501.9c0,0,0,0,0,.1,0,0-.2-.2-.2-.2,0,0-.1,0-.2,0,0,0,0,.1.1.2,0,0,.1,0,.2.1-.1.2-.3.4-.4.7,0,0-1.4-.5-1.5-.5,0,0,0-.1,0-.2,0,0,.3-.4.3-.5,0-.1.3-.6.4-.6,0,0,0,0,.2,0,.2.1,1,.7,1.1.8M92,503.1c0,0,.4,0,.5,0,0,0,0,0-.2,0s-.3,0-.3,0h0ZM90.5,503.2c0,0,.4,0,.5,0,0,0,0,0-.2,0s-.3,0-.3,0h0ZM92.2,503.4s.3,0,.3,0c0,0-.2,0-.3,0,0,0-.2,0-.2,0,0,0,0,0,.1,0M92.3,503.7h0c0,0-.2,0-.2,0,0,0,.2,0,.2,0M93.7,501.5c-.1,0-.6-.3-.8-.5-.1-.1-.3-.3-.4-.4-.1-.1-.3-.5-.3-.5,0,0,0,0,0,0,0,0,.1.2.2.2.3.4.6.8,1.1,1,.1,0,.3.1.4.2,0,0,.1,0,.1,0,0,0-.2,0-.3,0M93.2,501c.2,0,.4,0,.6,0,0,0,0,0,0,.1,0,0-.2,0-.3,0,0,0-.2,0-.2-.1,0,0-.1,0-.1-.1M92.8,499.6c-.2,0-.4,0-.5,0,0,0,0-.1,0-.2,0,0,0-.4-.6-.4-.3,0-.5.2-.6.3,0,0-.5,0-1-.2-.4-.1-.8-.4-.9-.5-.3-.2-.2-.2-.2-.3,0,0,.7-1.5,2.2-1.5s.8,0,.9.2c0,0-.4,0-.5,0h0c0,0,.8.1.9.2,0,0,.1,0,.1.1,0,0-.4,0-.5,0,0,0,0,0,0,0,.3,0,.8,0,.9.2,0,0-.2,0-.2,0,0,0,0,0,0,0,.2,0,.5,0,.5.2,0,0-.3,0-.3,0,0,0,.3,0,.4,0,0,0,.1,0,.1.2,0,0-.4,0-.5,0,0,0,0,0,0,0,0,0,.6,0,.6.2,0,0-.6,0-.8,0,0,0,0,0,0,0,.2,0,.4,0,.6,0,0,0,.2,0,.2,0,0,0,.1,0,0,.2,0,0-.4,0-.5,0,0,0,0,0,0,0,0,0,.6,0,.6.1,0,0,0,.1,0,.1,0,0-.5,0-.6,0,0,0-.1,0-.1,0,0,0,.7.1.7.1,0,0,0,.1,0,.2-.2,0-.3,0-.5,0,0,0,0,0,0,0,.1,0,.5,0,.6,0,0,0,0,.1,0,.1-.1,0-.3,0-.6,0h0c.2,0,.7.1.7.2s0,0-.1,0c-.2,0-.7,0-.7,0,0,0,0,0,0,0,.1,0,.7,0,.8,0,0,0,0,.1,0,.1-.2,0-.3,0-.5,0,0,0,0,0,0,0,.2,0,.3,0,.5,0v.2c-.1,0-.3,0-.4,0,0,0,0,0,0,0,0,0,.3,0,.4,0,0,0,0,.1,0,.2-.2,0-.4,0-.6,0h0c.2,0,.4.1.6.1,0,0,0,0,0,.1,0,0-.6,0-.7,0,0,0-.4-.3-.4-.4,0,0,0,0,.1,0h0c0,0-.1,0-.2,0,0,0-.1-.1-.1-.1,0,0,.2,0,.3,0,0,0-.3,0-.4-.1,0,0,0,0,0,0,0,0,.3,0,.4,0,0,0,0,0,0,0-.1,0-.3,0-.3,0,0,0,0-.2,0-.2,0,0,.2,0,.4,0h0ZM88.7,498.5c0,0,0-.2.1-.1,0,0,0,0,0,0,.3.5.9.6.9.7,0,0,0,0,0,0,0,0,0,0,0,0,0,0,.3,0,.4,0,0,0,.4.1.7.2h0c0,0-.3,0-.3,0h0c.2,0,.5,0,.6,0,0,0,0,0,0,0,0,.1-.6.3-1.2.2-.5,0-.7,0-1.2-.2-.4,0,0-1.1,0-1.1M88.6,499.8c.4,0,.9.2,1.4.2.3,0,.7,0,1,0,0,0,.1,0,.1,0,0,0-.4.1-.4.1,0,0,0,0,0,0,.2,0,.3,0,.5,0,0,0-.1.1-.2.2,0,0-.3.2-.6.3-.3.1-1.2.3-1.6.3-.3,0-.5,0-.8,0,0,0,.4-.9.5-1.1M88.6,501.2c-.2,0-.4,0-.6,0,0-.1.1,0,.2,0,.8,0,1.5,0,2.2-.3.3,0,.7-.3,1-.5,0,0,0,0,0,0,0,0-.4.3-.5.4-.5.3-1.6.5-2.3.5M90.7,503.5c0,0,.2,0,.2,0,0,0-.2,0-.2,0h0ZM86.6,507c-.1,0-.3-.4-.3-.4,0,0,.1,0,.2,0,0,0,.3.2.6.3.3.1.9.1.9.2,0,0,0,0,0,.2,0,0-.1,0-.3,0-.1,0-.9-.4-1-.4.2.2.4.3.6.4.2.1.6.2.7.2.1,0,.2,0,.2.1,0,0-.2.1-.3,0-.7-.1-1.4-.8-1.4-.9M84,505.8c0,0,.1,0,.2,0,0,0,.3.1.3.1,0,0,1.5.5,1.6.6,0,0,.2.2,0,.3-.1,0-1.5-.6-1.6-.6,0,.1.2.2.4.3.2,0,1.3.7,1.3.7,0,0,0,.1.1.2,0,0,0,.1.1.2-.5,0-2.5-1.4-2.5-1.8M85.7,504.9c0,.2-.2,0-.3,0,0,0-.2-.1-.3-.3-.1-.2-.5-.7-.5-.8,0,0-.1-.2-.1-.3,0-.2.5.3.6.5.1.1.4.4.5.6.1.2.2.3.2.4M85.8,505.8c0,0-.3-.3-.4-.4,0-.1-.2-.2-.2-.3,0,0,0,0,0,0,.1,0,.4.3.4.3,0,0,0,.1,0,.2,0,0,.1.1,0,.2M87.5,502.7c.1,0,.1.5.1.5,0,0-.7.2-.8.1,0,0-.1-.3-.1-.4,0-.1.7-.3.8-.2M87.6,503.9c0,.1-.8.2-.8,0,0-.1,0-.3,0-.4,0,0,.7,0,.8,0,0,0,0,.2,0,.4M88,502.5c.1,0,.2.4.2.4.3,1.1,0,2.4,0,2.4,0,0-.3,0-.3,0,0,0,.5-1.2.1-2.5,0,0,0-.3,0-.3M94.6,502.8c-.4,1.3.2,2.5.1,2.5,0,0-.2,0-.3,0,0,0-.4-1.3,0-2.4,0,0,.1-.5.2-.4.1,0,0,.2,0,.3M88.2,505.5s0,0,0,0c0,0,.1,0,.2.1-.2,0-.4,0-.5,0,0,0,0-.2,0-.2,0,0,.2,0,.3,0M94.8,505.5c0,0,0,.2,0,.2-.2,0-.4,0-.5,0,0,0,.1,0,.2-.1,0,0,0,0,0,0,0,0,.2,0,.3,0M87.4,504.6c-.1,0-.6,0-.7,0,0,0,0-.4.1-.5.1,0,.6,0,.7,0,0,.1,0,.4-.1.4M86.9,504.7c.2,0,.7,0,.7,0,0,.1,0,.4-.2.4-.1,0-.4,0-.6,0-.2,0,0-.5,0-.5M86.5,505.8c0-.1.1-.4.2-.5,0,0,.4,0,.5,0,.1,0,0,.5-.2.5,0,0-.6,0-.6,0M87.5,506c0,0,.2.3.1.3,0,0-1.1-.2-1.1-.2.1.1.3.2.5.3.2,0,.7.2.7.2,0,0,0,0,0,.1,0,.1,0,.1-.2.1-.1,0-.7-.2-.9-.3-.2,0-.7-.5-.7-.5,0-.1,1.4,0,1.5,0M87.9,503.3c-.2,0-.2-.2-.1-.2,0,0,.2,0,.3,0,0,0,0,0,0,.1,0,0-.1,0-.1,0M87.8,503c0,0-.1-.3.1-.2,0,0,0,.1,0,.2,0,0-.1,0-.2,0M87.7,502.7c0,0,.2-.1.2,0,0,0-.2.1-.2,0M94.7,503.3s0-.1,0-.1c0,0,.2,0,.3,0,0,0,0,.2-.1.2,0,0-.1,0-.1,0M94.7,503s0-.2,0-.2c.2,0,.2.2.1.2,0,0-.2,0-.2,0M94.8,502.7c0,0,.2,0,.2,0,0,0-.2,0-.2,0M84.8,500.2c.4-.3.7-.6,1.2-.9,0,0,0,.1,0,.2,0,0-.2.2-.2.2,0,0-.5.4-.9.7,0,0,0-.1,0-.1M85.6,501.4s0-.1.1-.1c.1-.1.3-.2.4-.4-.1,0-.2.1-.3.2-.1,0-.3.2-.3.3,0,0-.1,0-.1,0,0,0,0,0,.1-.1,0,0,.3-.3.4-.4-.2,0-.5.4-.6.4,0,0,0,0,0,0,0-.1.2-.2.2-.3,0,0-.3.2-.3.2,0,0,0,0,0,0,0-.1.3-.2.3-.4,0,0-.3.3-.4.3,0,0-.1-.3.2-.4.2-.1,1.1-.8,1.2-.8,0,0,.2.1.2.2,0,0,.1.2.2.4,0,.2.2.4.2.6,0,0-1.2.9-1.2.9,0,0-.2,0-.2,0M85.8,501.9s0,0,0,0c0,0,.2-.2.3-.2-.1,0-.3,0-.4.2,0,0,0,0,0,.1,0,0,0,0,0-.1,0,0,.2-.2.3-.2.3-.2.3-.3.6-.5.2-.1.3-.3.5-.4,0,0,.1,0,.1.2,0,0-.2.2-.3.2-.2.1-.3.2-.5.3-.2.2-.3.3-.5.4,0,0-.1.1-.2,0M86,501.9c.4-.3.8-.6,1.2-.9,0,0,.5.6.6.8,0,0,.1.2.1.3,0,0-1.3.5-1.4.5,0,0-.4-.5-.5-.8M86.3,503c0,0,.3-.1.3,0,0,.1,0,.9,0,1.1,0,.2,0,.5,0,.6,0,0,0,.4,0,.5,0,.1-.1.5-.2.6,0,0-.1.3-.2.3-.1,0-.1-.1-.2-.2,0,0-.1-.4-.1-.7,0-.2,0-.8.1-1.1,0-.4.3-.9.4-1M80.5,500.1c.1,0,3.7,1.5,5.3,3.1,0,0,0,.1,0,.2,0,0-.1,0-.1-.1-.1-.1-.3-.3-.4-.4,0,0,.5.6.5.6,0,0,0,.2,0,.2,0,0,0,0,0,0-.1-.1-.3-.3-.4-.4,0,0,.3.4.4.5,0,0,.2.2,0,.3,0,0,0,0-.1-.1,0,0-.2-.3-.3-.3,0,0,.5.5.4.8,0,0,0,0-.1-.1-.2-.3-1.5-1.7-2-2.1-.5-.5-2.9-1.9-3-1.9,0,0-.1,0,0,0M87.1,508.7c0,0,0,0,0,0,0,0-.2,0-.4,0-.1,0-.3,0-.3,0,0,0,.2,0,.2-.1-.1,0-.3,0-.5,0-.1,0-.2,0-.3-.1,0,0,0,0,0,0-.2,0-.5,0-.4-.2,0,0-.1,0-.2,0,0,0-.1,0-.1,0,0,0-.5-.6-.5-.7,0,0-.2-.3,0-.3,0,0,1.1.6,2.1,1,0,0,.1.1.1.1,0,0,0,0-.1,0,0,0-.1,0-.2,0,0,0-.9-.3-1-.3,0,0,.2.1.2.2.2,0,.4.2.6.2.2,0,.4.1.6.2.1,0,.6,0,.6.2,0,.1-.4.2-.5,0M87.6,508.1c0,.1.8.4.8.4s-.1,0-.3.1c-.1,0-.4-.1-.6-.3-.6-.4-1-1-1.1-1.2,0,0-.1-.1,0-.2.1.1.9,1.1,2,1.1s.3.2.2.3c-.2,0-.9-.2-1-.3M90.5,509.1c0,0-1.3,0-1.8,0,0,0,0-.5,0-.5,0,0,1.5,0,2,0h.2s0,.6,0,.6c0,0-.2,0-.3,0M88,511.1c0-.2.3-.5.4-.5,0,0,.2,0,0,.3,0,0,0,.1-.1.2,0,.2-.2.4-.3.4-.1,0,0-.2,0-.3M89.2,511s0-.1,0-.2c0,0,.5,0,.5,0,0,0,0,0,0,0,0,.1,0,.1-.1.2,0,0-.4,0-.4,0M89.7,510.8c0,0-.2,0-.2,0-.1,0-.2,0-.3,0,0,0,0,0,0,0,0-.1.3,0,.4,0,0,0,.2,0,.1,0M89.8,511c0,0,0-.2,0-.2,0,0,.1,0,.1,0,0,0,0,.2,0,.2,0,.2,0,.3,0,.5,0,0,0,.2,0,.2,0,0,0,0-.1,0,0-.1,0-.4,0-.5,0,0,0-.1,0-.2M88.9,510.9c0,.1-.1.3-.2.4,0,0,0,.2-.1.2-.1,0,0-.2,0-.3,0-.1.1-.3.2-.4,0,0,0-.2.1-.2.1,0,0,.2,0,.3M88.5,511.4s0,0,0,0c0,0-.3,0-.3-.1,0-.1.4,0,.4,0M88.3,511.2c0-.2.3,0,.3,0,0,0,0,0,0,0,0,0,0,.1,0,.1,0,0-.1,0-.1,0,0,0-.1,0-.2,0M88.8,510.8c0,0-.2,0-.2,0,0,0,0,0,0,0,.1,0,.4.1.1.2M88.7,510.9c0,0,0,.1,0,.1,0,0-.2,0-.2-.1,0,0,0,0,0-.1,0,0,.2,0,.2,0M83.2,520.9s-.3-.5-.4-.6c0,0-.4-.6-.4-.8,0-.1-.6-1.2-.8-2-.2-.7-.2-1.4-.2-1.7.1-1.8.2-1.7.3-2.4,0,0,.4.6.6.9.5.8,1.9,1.9,1.9,2,0,0,.2,0,.1.2,0,0-.3.8-.3.9,0,0,0,0,0,0,0,0-.1-.2-.2-.2-.3-.3-.8-.9-.8-1,0,0-.7-.9-.8-1.1,0-.1-.2-.4-.3-.3,0,0-.1,0-.1.8,0,.8.1,2.7,1.8,5.1,0,0,0,0,0,.2,0,0-.2.1-.2.2,0,0,0,0,0,0,0,0,0,0-.1-.1M91.3,525.5s0-3.4,0-3.4c0,0,0,0-.2,0,0,0-1.2,0-1.5,0-.3,0-1.1-.2-1.7-.4-1.5-.5-2.6-1.4-2.8-1.5-1.3-1.1-2-2.4-2.4-3.2-.4-.8-.5-1.1-.5-1.2,0,0,0-.2-.1-.2,0,0,0,.1,0,.2,0,.1.1.5.2.6.2.4.4.8.6,1.2,0,.1.3.5.3.6,0,0-.4-.6-.5-.8-.1-.2-.3-.7-.4-.8,0,.2,0,.3,0,.6,0,.3.4,1.1.5,1.3.1.2.3.5.5.8,0,.1.2.2.2.3,0,0-.6-.7-.7-.9,0,.1,0,.1.1.4.3.7,1,1.2,1,1.3,0,0,.4.4.4.4,0,0,.5.4.5.4-.2,0-.3-.2-.4-.3-.1-.1-.6-.5-.8-.7,0,0,0,0,0,0,.6.7,1.6,1.7,3.1,2.3,2.5,1,3.8,1.3,4.6,3.1h0ZM91.4,519.2c.2,0,.5,0,.7,0,0,0,0,0,0,0-.2,0-.5,0-.7,0v-.2c.1,0,.7,0,.7,0s-.5,0-.7,0v-.2c.1,0,.6,0,.6,0s-.5,0-.6,0v-.2c.2,0,.7,0,.7,0s-.5,0-.7,0v-.2c.2,0,.7,0,.7,0s-.6,0-.7,0v-.2c0,0,.6,0,.6,0s-.5,0-.6,0c0,0,0-.1,0-.2.2,0,.7,0,.7,0s-.6,0-.7,0v-.2c.1,0,.6,0,.6,0s-.5,0-.6,0v-.2c.2,0,.7,0,.7,0s-.5,0-.7,0v-.2c.1,0,.7,0,.7,0s-.5,0-.7,0v-.2c.1,0,.6,0,.6,0s-.5,0-.6,0v-.2c.3,0,.5,0,.7,0,0,0,0,0,0,0,0,0-.7,0-.8,0v-.2c.4,0,1.3,0,1.4,0,0,0,.3,0,.4,0,0,.2-.6.3-.7.3,0,.1.5,0,.6,0,.1,0,.1,0,.1.2,0,0-.6.1-.6.2,0,0,.5,0,.6,0,0,0,0,0,0,.1-.1.1-.5,0-.6.2,0,0,.6,0,.6,0,0,0,0,.1,0,.1,0,0-.6,0-.6.1,0,0,.5,0,.6,0,0,0,0,0,0,.1,0,.1-.2,0-.4.1,0,0-.2,0-.2,0,0,0,.5,0,.5,0,0,0,0,0,0,.1,0,.1-.3.1-.4.2,0,0,0,0,0,0,.1,0,.2,0,.3,0,0,0,0,0,0,.2,0,0-.7.1-.7.2,0,0,.2,0,.2,0,.2,0,.3,0,.5,0,0,0,0,.1,0,.2,0,0-.4.1-.4.2,0,0,0,0,.1,0,.2,0,.4-.2.4.1,0,0-.5.1-.6.2,0,0,.1,0,.2,0,.1,0,.3,0,.5,0,0,0,.1.1,0,.2,0,0-.7.1-.7.2,0,0,.1,0,.2,0,.1,0,.5,0,.6,0,0,0,.1.1,0,.2,0,0,0,0-.1,0-.1,0-.3,0-.5.1,0,0,0,0,0,0,0,0,0,0,.1,0,.1,0,.7-.2.8,0-.1,0-.4.1-.6.2,0,0,0,0,0,0,0,0,.8-.1.8-.1,0,0,.2.1.2.2,0,0-.2,0-.2,0-.3,0-.5.1-.8.1,0,0,0,0,0,0,.3,0,.6-.1.9-.1.2,0,.3,0,.4,0-.1,0-1,.2-1.1.3,0,0,.1,0,.1,0,.3,0,.6,0,.8-.2.1,0,.2,0,.3,0,0,0,.4,0,.2.2-.1,0-1.2.3-1.3.3,0,0-.1,0-.1,0,.2,0,1.7-.3,1.8-.3,0,0,.3,0,.4,0,0,0-1.4.5-1.7.5,0,0,0,0,0,0,.6,0,1.7-.5,1.9-.5.5-.2,1.1-.6,1.4-.9,1.4-1.2,2-2,2.4-2.6.4-.6.6-.9.6-.9,0,.1,0,.2,0,.4,0,.1-.3.9-.4,1,0,.1-.2.5-.3.6,0,.1-.2.4-.4.6-.3.5-1.4,1.9-1.7,2.1-.3.2-.4.4-1,.8-.7.5-2.6,1.2-4.4,1.3-.6,0-.6,0-.9,0,0,0,0-.2,0-.2.2,0,1,0,1,0,0,0-.7,0-1,0,0,0,0-.2,0-.2.2,0,.7,0,.7-.1,0,0-.5,0-.7,0,0,0,0-.2,0-.2,0,0,.1,0,.2,0,.1,0,.7,0,.7-.1s-.8,0-.9,0c0,0,0-.2,0-.2.2,0,.8,0,.8-.1,0,0-.8,0-.8,0,0,0,0-.2,0-.2,0,0,.8,0,.8,0,0,0-.9,0-.9-.1,0-.1.7-.1.7-.2s-.4,0-.7,0c0,0,0-.2,0-.2.3,0,.7,0,.7,0s-.6,0-.7,0c0,0,0-.1,0-.2,0,0,.7,0,.7,0,0,0-.5,0-.7,0v-.2ZM91.4,515.2c.2,0,.5,0,.8,0,.2,0,.5,0,.7,0,.1,0,.2,0,.3,0,0,.1-.2.1-.4.2-.4,0-1,0-1.4,0M93.3,515c-.1,0,0,2,.4,2.9.4,1,1.2,1.7,2.2,1.5.7-.1,1.7-1,1.7-1,0,0-.1,0-.1,0-.8.2-1.1-.3-1-.5,0,0,.1-.1.1-.2,0,0,0-.2-.2-.2-.1,0-.3,0-.4,0-.3.1-.4.1-.6.2-.2,0-.5,0-.6,0,0,0-.2-.2-.2-.3,0,0,0-.2,0-.2,0-.2,0-.2-.1-.4,0,0,0-.1-.2-.2,0,0-.2,0-.3,0,0-.1,0-.2,0-.3,0-.1-.7-1.3-.8-1.4M96.6,517.3c0,0,.6-.5.7-.5,0,0,.2.2.2.3,0,.1-.6.5-.7.5,0,0-.1-.2-.2-.3M100.6,515.4s0,0,0,0c0,.5-.6,1.6-.8,1.9-.2.3-1.2,1.8-1.3,1.9,0,0-.8.9-1.1,1.1-.3.2-.7.5-1.1.7-.2.1-1.6.7-2.5.9-1.2.2-2.4.1-2.4,0,0,0,.1,0,.2,0,.4,0,1.5,0,1.7,0,.2,0,.8-.1,1.1-.2.2,0,1-.3,1.3-.4.3-.1.8-.4,1.1-.6.3-.2.7-.5.9-.7.2-.2,1.3-1.4,1.6-1.8.2-.3.9-1.4.9-1.5,0-.1.4-.9.5-1.3M91.6,525.3c0,0-.2,0-.2,0,0,0,.2,0,.3,0,0,0,0,0,0,.1M91.7,525.1c0,0-.3,0-.3,0,0,0,.4,0,.4-.1,0,0,0,.1-.1.2M91.9,524.8s-.5,0-.5-.1.5,0,.6,0c0,0-.1.1-.2.2M92.1,524.5c-.2,0-.9,0-.7-.2.2,0,.6,0,.9,0,0,0-.2.2-.2.2M92.5,524.2c-.2,0-.5,0-.8,0-.1,0-.3,0-.3,0,0-.1.5-.1.6-.1.3,0,.5,0,.7,0,0,0-.2.2-.2.2M92.9,523.8c-.3,0-.5.1-.9,0,0,0-.6,0-.6,0,0,0,1.2-.2,1.4-.2.1,0,.3,0,.4,0,0,0-.3.2-.4.2M93.4,523.5c0,0-.5,0-.6,0,0,0-.7,0-.9,0-.1,0-.5,0-.5,0,0-.1.4-.1.6-.1.9,0,1.7-.2,1.9-.2-.1,0-.5.3-.5.3M95.9,522.4c-1.5.6-1.8.6-2,.7-.1,0-.2,0-.3,0,0,0-.6,0-.7.1-.2,0-1.3,0-1.3,0,0,0-.1-.2.1-.2.2,0,.4,0,.6,0,.2,0,1.2-.1,1.2-.2-.3,0-1.3.1-1.6,0,0,0-.5,0-.5,0,0,0,.1,0,.2,0,0,0,.7,0,1,0,0,0,0,0,0,0,0,0,0,0,0,0,0,0-.6,0-.8,0,0,0-.3,0-.3,0,0-.1.2-.1.3-.1.5,0,1.1,0,1.6-.1,0,0,.8-.1,1-.2,0,0,.1,0,0,0-.2,0-1.3.2-2.7.2,0,0-.2,0-.2,0,0,0,.2,0,.3,0,.2,0,.8,0,.8,0,.2,0,.7,0,1.3-.2.6-.1.6-.1,1-.2.4-.1,1.2-.4,1.6-.6.6-.3,1.6-1,2.3-2.1.2-.3,1-1.3,1.4-2.2.1-.2.2-.5.3-.7h0c0,0,0,.2,0,.3-.1.6-.6,1.4-.7,1.5,0,.1-.5.7-.5.8,0,0-.2.3-.3.4,0,0,.2-.1.3-.2,0,0,.4-.5.6-.8.1-.3.5-.9.5-1,0-.1,0-.1.1-.1,0,0,0,.1,0,.2,0,.2-.2.4-.2.6,0,.2-.5.7-.5.9,0,0,.5-.7.5-.7,0,0-.1.5-.2.7-.1.2-1.1,1.4-1.1,1.5,0,0-.2.2-.3.4,0,0,0,0,.1,0,.4-.3,1-1.3,1.2-1.4,0,.1-.5.8-.7,1.1-.2.3-1.6,1.6-3.2,2.2M99.3,521c0,0-.2-.1-.2-.2h0c0,0,0,0,.1-.3,1.6-2,1.6-4.3,1.6-5.6,0,0,0-.3,0-.3,0,0-.1.1-.2.2,0,0-1.5,2-1.7,2.2-.2.2-.2.2-.3.3,0-.3-.2-.5-.3-.8,0,0,0-.1,0-.2,0,0,.1-.1.2-.2.6-.4,2.2-2,2.5-2.8,0,0,0,0,0,0,0,.1,0,.2,0,.4.2.9.2,1.8.2,2.1,0,.3,0,2-.9,3.7,0,.1-.3.6-.4.7-.1.2-.2.4-.4.5,0,0-.1.1-.1.1,0,0,0,0,0,0M97.9,517.1c0,0,.2-.2.3,0-.1.1-.3.2-.4.4.1,0,.3-.1.4-.2,0,0,0,0,0,0-.1.2-.3.3-.4.4,0,0,.2,0,.2,0,0,0,0,0,.1,0,0,0,0,.1,0,.2-.3.5-.9.6-1.2.4,0,0-.2-.2-.2-.2,0,0,1-.8,1.2-.9M97.8,516c0,.1-.1.2-.2.3-.1.1-1.4,1-1.6,1.1,0,0-.2,0-.3,0,0,0,2-1.5,2.2-1.7h0s0,.1,0,.1M98.1,515.2c.1,0,0,.2-.1.2-1,.7-1.9,1.4-2.8,2.1,0,0-.1.1-.2,0,0,0,3.1-2.3,3.2-2.4M98,515.1h0s0,0,0,0c-.7.5-2.7,2-2.9,2.1,0,0,0,0,0,0,0,0,0-.1.1-.2.3-.2,2.8-2,2.9-2.1M98.7,509.6s.3-.3.7-.3c.4,0,.8.2,1.1.6.2.2.4.5.4.9,0,0,0,0,0,0,0,.1-.4,0-.5,0-.3,0-.7.3-1,.5-.2.2-.6.6-.9.8-.3.2-3.2,2.7-7.2,2.7s-7.7-3.2-7.9-3.5c-.3-.2-.7-.6-1.1-.6s-.5.1-.5,0,0,0,0,0c0-.4.2-.7.4-.9.3-.4.7-.6,1.1-.6.4,0,.7.3.7.3.5.3,3.5,3.3,7.2,3.3s7-2.9,7.4-3.2c0,0,0,0,0,0M95,511.4c0,0-.3.1-.3.2-.3.1-.5.2-.7.3-.2,0-.3,0-.5.1-.2,0-.4.1-.7.1h0c.6,0,1.2-.2,1.7-.3.1,0,.3,0,.4-.1,0,0,.2,0,.2,0,0,0-.1.1-.2.1,0,0-.2,0-.3.1-.2,0-.4.1-.5.2-.2,0-.4,0-.6.1-.1,0-.3,0-.4,0,0,0-.1,0-.1,0,.4,0,.9-.2,1.3-.2,0,0,0,0,0,0-.3.1-.8.3-1.2.3-.4,0-.8.2-1.2.2-.6,0-1.2,0-1.7,0-.1,0-.9-.2-1.1-.3-.1,0-1.2-.5-1.5-.6,0,0,0,0,0-.1.3,0,1,.3,1.1.3,0,0-.8-.3-1-.4,0,0,0,0,0-.1,1,.2,2.1.5,3.3.5.5,0,1,0,1.4,0,.3,0,.5,0,.8-.1.1,0,.3,0,.4,0,.1,0,.3,0,.4,0,.2,0,.3-.1.5-.2,0,0,0,0,0,0,0,0,0,0,0,0,0,0,0,0,.1,0,0,0,.2,0,.2,0M90,511.7c0-.1.1-.1.1-.1,0,0,.4,0,.5,0,0,0,0,.1,0,.1-.2,0-.5,0-.5,0,0,0,0,0,0,0M90.2,511.5c0,0-.1,0-.1,0,0,0,0,0,0,0,0,0,.6,0,.6,0,0,0,0,0,0,.1,0,0-.4,0-.5,0M90.7,510.9c-.1,0-.4,0-.5,0,0,0,0-.1,0-.1.1,0,.4,0,.5,0,0,0,0,0,0,.1M90.7,511.4c0-.1,0-.2,0-.3,0,0,0-.2,0-.2.1,0,.1.1,0,.3,0,.1,0,.2,0,.3,0,0,0,.4,0,.4-.2,0,0-.3,0-.4M90.1,511c0,0,.5,0,.5,0,0,0,0,.1,0,.2,0,0-.5,0-.5-.1,0,0,0-.2,0-.1M91.6,511.6s0,0,0,0c0,.1,0,.1-.2.1,0,0-.2,0-.3,0,0,0-.1,0-.2,0,0,0,0-.1,0-.1,0,0,.5,0,.5,0M91.1,511.3s0-.1,0-.2c0,0,.5,0,.6,0,0,0,0,0,0,.1,0,0-.5,0-.5,0M91.5,511.3s.2,0,.2.1,0,0,0,0c0,0-.3,0-.3,0,0,0-.2,0-.3,0,0,0,0-.1,0-.2,0,0,.1,0,.2,0,0,0,.2,0,.2,0M91.8,510.8c0,0,0,.1,0,.2,0,0,0,.6,0,.7,0,.2-.2,0-.2-.3,0-.3-.1-.7,0-.7M91.2,510.8c0,0,.4,0,.5,0,0,0,0,.1,0,.2,0,0-.5,0-.5,0,0,0,0-.1,0-.1M93.9,510.6c0,0-.2,0-.2,0,0,0,.2-.1.3-.2,0,0,0,0,0,0,0,0,0,0,0,0,0,0-.1.1-.2.2M94.2,510.7s0,0,0,.1c0,0-.3.2-.4.2s-.1,0,0-.1c0,0,0,0,.2,0,.1,0,.2-.1.3,0M93.6,511.3c0-.1,0-.2-.1-.3,0,0,0-.1,0-.2,0,0,0-.2,0-.2,0,0,0,.1,0,.2,0,.2,0,.3.2.4,0,0,.2.3,0,.3,0,0,0,0,0,0,0,0,0-.2,0-.2M93.2,511.7c0,0,0-.1,0-.1,0,0,.3,0,.3,0,0,0,.1.1,0,.2,0,0-.2,0-.3,0M93.1,511.5s0,0,0-.1c0,0,.2,0,.4-.1,0,0,0,.1,0,.2,0,0-.3,0-.4,0M93.3,511c0,0,0,.1,0,.1,0,0,0,0-.1,0,0,0-.2,0-.2,0,0,0-.1-.1,0-.2,0,0,.2,0,.3,0,0,0,0,0,0,0M93,510.9s0,0,0,0c0,0,.3-.2.4,0,0,.1-.2.1-.3.1M92.7,511.2c0-.1,0-.2,0-.3,0,0,0-.1,0-.1,0,0,.1.2.1.3,0,.2.1.5.2.7,0,0-.1,0-.2,0,0,0,0-.5,0-.5M92.7,511.8c-.1,0-.4,0-.5,0,0,0,0,0,0,0,0,0,0,0,0,0,0,0,.4,0,.4,0,0,0,0,.1,0,.1M92.2,511.6c0,0,0-.1-.1-.2,0,0,.2,0,.3,0,0,0,.2,0,.3,0,0,0,0,.1,0,.1,0,0-.4,0-.4,0M92.6,511.2c0,0-.1,0-.2,0,0,0-.2,0-.3,0,0,0,0-.1,0-.2,0,0,.1,0,.1,0,.1,0,.2,0,.3,0,0,0,0,0,0,.1M92.5,510.9s-.2,0-.3,0c0,0-.2,0-.2,0,0-.2.4-.2.4-.2,0,0,0,.1,0,.2M94,511.4c0,0,.1-.1.2-.1,0,0,.2-.1.2-.1,0,0,0,0,0,0,0,0-.1.1-.2.1,0,0-.2,0-.2,0,0,0,0,0,0,0M94.3,510.7c0,0,0-.2-.1-.2,0,0,0-.2.2,0,0,.2.2.3.3.4,0,0,.2.3,0,.3,0,0-.1,0-.1,0,0,0-.3-.4-.3-.4M94.4,511.1c0,0-.3.1-.4.1,0,0,0,0,0-.1,0,0,.1,0,.2-.1.1,0,.2-.1.3,0,0,0,0,.1,0,.1M94.6,508.6c-.3,0-.3,0-.3-.1,0,0,.1,0,.2-.1,0,0,.2,0,.2,0,0,0,.2,0,.2-.1,0,0,0,0,.1-.1-.1,0-.4.1-.4.1-.2,0-.6.2-.6.2,0-.1,0-.3.2-.3.8,0,1.3-.4,2-1.1h0c0,.1-1.1,1.6-1.7,1.6M97.4,507.9c0,0-.2,0-.3.1,0,.2-.2.2-.4.2,0,0,0,0,0,0-.2.2-.5,0-.7,0,0,0,.2,0,.2.1,0,0-.2.1-.3,0-.1,0-.3-.1-.4,0,0,0,0,0,0,0,0,.1-.5,0-.5,0,0,0,.5-.2.6-.2.2,0,.4,0,.6-.2.2,0,.4-.1.6-.2,0,0,.2,0,.2-.2,0,0,0,0-.1,0,0,0-.9.3-1,.3,0,0-.1,0-.1,0,0,0,.2-.3.2-.3.1,0,1.6-.6,1.7-.7,0,0,.3-.2.4-.1,0,0-.4.8-.6,1M100.7,505.9s-.1.2-.1.2c0,.1-.2.2-.3.3,0,.2-.2.3-.3.3,0,0,0,0,0,0,0,0-.4.3-.5.3,0,0,0,0,0,0,0,0,0,.1-.2.1,0,0-.2,0-.3,0,0,0,0,0,0,0-.1.2-.5.1-.8.1,0,0,.2,0,.3.1,0,0-.2.1-.2.1-.1,0-.4,0-.4,0,.2,0-.2.2-.3.1,0,0,.2-.3.3-.4,0,0,.2,0,.2,0,.1,0,.5-.2.5-.2.3-.1.5-.2.8-.4-.2,0-1.2.5-1.3.5,0,0,0-.2.1-.2,0-.1.1-.3.3-.3,0,0,.5-.2.6-.2,0,0,1.3-.8,1.4-.8,0,0,.2-.1.3,0,0,0,0,.1-.1.2M101.7,503.8c0,.1-.5.8-.7,1,0,0,0,0,0,0,0,0,0,.1-.2.2,0,0-1.5,1.3-2.3,1.5-.3,0-.3,0-.3,0,0-.1.2-.4.3-.4.1,0,1.4-.8,1.5-.9,0,0,0,0,0,0-.1,0-.6.3-.7.3-.1,0-.3,0-.3,0,0,0,1.1-.8,1.3-.9.1,0,1.1-.8,1.2-.9M102.3,501.5c0,0,0,0,0,.2,0,.1-.3.9-.9,1.7-.4.5-2.3,2-2.5,2,.2-.1.5-.8.6-.9,1.5-.9,1.8-1.5,1.8-1.5,0,0-1.3,1.1-1.5,1.1,0-.1.2-.6.3-.7,0,0,.5-.4.8-.6.2-.2,1-1.2,1.1-1.2,0,0,.1-.1.3-.1M101.5,501.9c-.1.1-1.1,1.4-1.7,1.4,0,0,.1-.4.1-.4,0,0,.6-.4,1.1-.9.2-.2.4-.5.4-.5,0,0-.7.6-.8.7,0,0-.4.3-.5.3,0,0,.2-.8.3-.9,0,0,.2-.2.2-.2s-.1.3,0,.3c0,0,.3-.5.3-.5,0,0,.1,0,.2,0,0,0,0,.3,0,.2.1-.1.2-.5.4-.4,0,0,0,.2,0,.3.3-.5.5-.5.5-.6,0,0,0,.2,0,.2,0,0,0,0,.1-.2.1-.2.6-.5.6-.5.1,0-.9,1.7-1.1,1.9M81.9,505.7c0,0,.2,0,.3,0,0,0,1.4.8,1.4.8.1,0,.5.2.6.2.2,0,.2.2.3.3,0,0,.1.1.1.2-.1,0-1.1-.4-1.3-.5.2.2.5.3.8.4,0,0,.4.2.5.2,0,0,.2,0,.2,0,0,0,.2.3.3.4,0,.1-.5,0-.3-.1,0,0-.3,0-.4,0,0,0-.2,0-.2-.1,0-.1.2,0,.3-.1-.3,0-.7,0-.8-.1,0,0,0,0,0,0,0,0-.2,0-.3,0,0,0-.1,0-.2-.1,0,0,0,0,0,0,0,0-.5-.2-.5-.3,0,0,0,0,0,0-.2,0-.4,0-.3-.3-.1,0-.3-.1-.3-.3,0,0,0-.2-.1-.2,0,0,0-.1-.1-.2M82.2,504.7c.1,0,1.2.9,1.3.9,0,0-.1,0-.3,0-.1,0-.6-.3-.7-.3,0,0,0,0,0,0,.1.1,1.4.8,1.5.9.1,0,.4.3.3.4,0,0,0,0-.3,0-.7-.2-2.2-1.4-2.3-1.5,0,0-.2-.2-.2-.2,0,0,0,0,0,0-.2-.2-.6-.7-.6-.9.1,0,1,.6,1.1.7M80.7,501.7c0,0,.9,1,1.1,1.2.2.2.7.5.8.6,0,0,.4.6.3.7-.2,0-1.5-1.1-1.5-1.1,0,0,.4.6,1.8,1.5,0,.2.5.8.6.9-.2,0-2.2-1.5-2.5-2-.5-.8-.8-1.6-.9-1.7,0-.1,0-.1,0-.2.1,0,.2,0,.3.1M96.5,500.7c.2,0,.3.2.5.3,0,0,.3.2.2.2,0,0-.2,0-.2,0-.2-.1-.3-.3-.5-.4,0,0,0,0,0,0h0ZM96.8,500.6s0,0,0,0c0,0,.2,0,.2.1,0,0,.2,0,.2.2,0,0,.1.1.1.2,0,0-.1,0-.2,0-.1-.1-.3-.3-.4-.4M96.3,499.7s0,0,0,0c0,0,0,0,0,0,0,0,.1,0,.1.1,0,0-.2,0-.2-.1M97.2,500.7s0,0,0,0c.1,0,.3.2.3.3,0,0-.1,0-.2,0,0,0-.1-.1-.1-.2M96,500.2c0,0,.2,0,.2.1,0,0-.2,0-.2-.1M95.7,500.9c0,0,.2,0,.2.1,0,0-.2,0-.2-.1M96,502s0,0,0,0c.1,0,.3.1.3.3,0,0-.3-.1-.2,0,0,0-.1-.1-.1-.2M95.2,501.7c.1,0,.2.1.3.2,0,0-.4-.1-.3-.2M95.9,502.2s0,0,0,0c0,0,.2.1.2.2,0,0-.2,0-.2-.1,0,0-.2-.1,0-.2M95.8,501.5c-.1,0-.2-.1-.3-.2h0s0,0,0,0c0,0,.3.2.3.2M95.4,502.3c-.2,0-.3-.1-.4-.2,0,0,.2,0,.3,0,0,0,0,.1,0,.1M95.3,501.5s0,0,0,0c.1,0,.3.1.3.2-.1,0-.2-.1-.3-.2M85.2,520.5c-.2-.2-.4-.3-.6-.5-.1-.1-.3-.3-.4-.4,0,0-.2-.2-.2-.3,0,0,.8.8.9.9.2.2.4.3.6.4.1,0,.4.3.5.3,0,0,.4.2.5.3-.3,0-.5-.2-.7-.4-.2-.1-.4-.3-.6-.4M89.7,512.4c.2,0,.3,0,.5,0h0c-.2,0-.4,0-.6,0-.2,0-.6,0-.6-.1,0,0,0,0,0,0,.2,0,.4,0,.6,0M88.9,512c0,0,.2,0,.2,0,0,0,.8.1,1.1.2,0,0,0,0,0,0-.4,0-.8,0-1.1-.1,0,0-.2,0-.3-.1M90.7,510.1c0,0-.6,0-.6,0h0c0,0,.4,0,.5,0,0,0,.2,0,.2,0M90.5,510.4c0,0-.5,0-.7,0,0,0,0,0,0,0,.2,0,.7,0,.7,0M90.9,509.8s-.8,0-.8,0c0,0,0,0,.1,0,.2,0,.7,0,.7,0M87.4,522.5s-.3,0-.5-.1c-.2,0-.5-.2-.7-.3-.1,0-.5-.3-.8-.5-.2-.1-.4-.3-.5-.4,0,0,0,0,0,0,.4.2,2.1,1.2,2.4,1.3,0,0,.1,0,.1,0M90,508.2c-.3,0-.7,0-1,0,0,0,0,0,0,0,.2,0,.9,0,.9,0M86.4,502c0,0-.1.1-.2.1,0,0,0-.1.2-.2,0,0,.1-.1.2,0,0,0,0,.1-.2.2M87.1,501.4c0,0-.1.1-.2.1,0,0,0,0,.1-.1,0,0,.1,0,.2-.1,0,0,0,0,0,0,0,0,0,0-.1.1M87.4,501.5s0,0,0,0c0,0-.2.1-.3.2,0-.1.2-.2.3-.2M86.6,502.2c0,0-.1.1-.2.1,0-.1.1-.2.2-.2,0,0,.1,0,.2,0,0,0,0,0-.1.1M86.1,503.7c0,0,0-.3.1-.4,0,0,0,.5,0,.5,0,0-.1.8-.1.9,0,0,0,.6,0,.7,0,0,0,.2,0,.2,0,0,0,0,0-.1,0-.6,0-1,0-1.1,0-.2,0-.6.1-.7M87.5,501.7c.1,0-.2.2-.3.2,0-.1.2-.2.3-.2M85.3,502.9s0,0,0,0c0,0,0,0,0,0h0ZM86.5,502.5c0,0,0,0,0-.1,0,0,.2-.2.3,0,0,.1-.2.3-.3.2M86.5,500.4c0,0,.1,0,.2-.1,0,0,0,0,0,0,0,0-.1,0-.2.1M87.6,502s0,0,0,0c0,0-.1.1-.1.1,0,0-.1,0-.2,0,0-.1.2-.2.3-.3M86.8,501c0,0,.2-.2.2-.1,0,0-.1.1-.2.1M86.2,499.8s.1-.1.2-.1c0,0-.1.2-.2.2,0,0,0,0,0,0M89.3,500.1s0,0,0,0c.2,0,.8,0,.9,0,0,0-.5,0-.7,0,0,0-.2,0-.2,0M88,506.3s0,0,0,0c.2,0,.4,0,.6,0h0c-.1,0-.6.1-.7,0M89.5,508c-.2,0-.7,0-.7,0,0,0,.6,0,.6,0,0,0,0,0,0,0M87.9,506c0,0,0,0,.1,0,.1,0,.6,0,.6,0,0,0-.7,0-.7,0M88.2,506.9c0,0,.6,0,.7,0,0,0,0,0,0,0-.2,0-.7,0-.7,0M88.1,506.6c0,0,.6,0,.7,0,0,0,0,0,0,0-.2,0-.7.1-.7,0M88.6,507.7c0,0,.7-.1.9,0,0,0-.1,0-.2,0-.1,0-.6.1-.7,0M88.4,507.2c0,0,.6-.1.9,0h0c0,0-.9.2-.9,0M88.5,507.4c0,0,.6,0,.7,0,0,0,0,0,0,0-.2,0-.7,0-.7,0M90.5,522.3c-.4,0-.8,0-1.2-.1h0s0,0,0,0c.4,0,.8,0,1.2,0,0,0,.2,0,.3,0,0,0,.2,0,.2,0,0,0-.5,0-.6,0M88.9,522.1s0,0-.1,0c-.1,0-.6-.1-.7-.1-.5-.1-1-.3-1.4-.5h0s0,0,0,0c.2,0,1,.4,1.3.4.3,0,.9.2.9.2M89,500.4h0s0,0,0,0c.1,0,.5,0,.6,0,0,0-.5,0-.6,0M88.9,500.7h0c.1,0,.3,0,.5,0h0c-.1,0-.3,0-.5,0M89.2,515c0,.2,0,0-.1.2,0,0-.8-.3-.9-.2,0,0,0,0,0,0,.2.1.7.3.7.4,0,0,0,0,0,.1,0,0-.9-.5-1-.4,0,0,0,0,.1.1,0,0,.7.4.7.4,0,0,0,0,0,.1,0,0-1.1-.6-1.1-.6,0,0,0,0,0,0,0,0,1,.6,1,.7,0,0,0,0,0,0,0,0-1.2-.8-1.2-.7s1,.7,1.1.9h0c-.4-.1-2.5-1.7-2.8-1.9.1-.2.3-.4.4-.6,1.9,1,3.2,1.3,3.2,1.3M85.3,518.5s0,0,0,0c.8,0,.8-.4.8-.5,0,0-.2-.2-.1-.2,0-.1.2-.2.3-.2s.3,0,.5.2c.2.1.9.2,1,.2.1,0,.2-.2.2-.3,0,0,0-.2,0-.3,0,0,.3-.4.3-.5,0,0,.3,0,.3,0,0,0,0-.2,0-.3.2-.4.5-.9.8-1.3,0,0,0,1,0,1.6,0,.8-.2,1.2-.4,1.6-.2.4-.8,1.1-1.7.9-.9-.2-1.5-.6-1.8-.8M85.8,517.6c-.1,0-.6-.4-.7-.5,0,0,.1-.2.2-.3.1,0,.6.4.7.5,0,0-.2.2-.2.3M84.9,516.2s-.1-.2-.1-.2c0,0,0,0,0,0,.2,0,2,1.4,2.1,1.6,0,0,.1,0,.1.1-.1,0-.4-.1-.5-.2-.1,0-1.5-1.1-1.6-1.3M84.8,517.2c.2.1.3.3.5.4.2.1.3.3.5.4,0,0,.2,0,.2.1,0,0-.1.2-.2.2-.1,0-.4.2-.7,0,0,0-.5-.4-.6-.6,0,0,0,0,0,0,0,0,.1,0,.2,0,0,0,0,0,0-.1,0,0-.2-.2-.3-.3,0,0,0,0,0-.1,0,0,0,0,0,0,0,0,.2.1.3.1-.1-.1-.2-.3-.4-.4,0-.2.2,0,.3,0M94,514.8c.8-.2,1.8-.6,2.8-1.1.1.2.2.3.3.5-.7.5-2.1,1.5-2.8,2,0,0,0,0,0-.1,0,0,.7-.5.7-.6,0,0,.1-.2.1-.2,0,0-.9.7-1,.6,0,0,0-.1,0-.1,0,0,.4-.3.7-.6.1-.1,0,0,0,0,0,0-.8.6-.9.6,0,0,0-.1,0-.2,0,0,.5-.3.6-.4.1,0,.2-.2.1-.2,0,0-.7.4-.8.4,0,0-.1-.1-.1-.1,0,0,.7-.4.7-.5,0,0-.8.3-.8.3,0,0,0-.1-.1-.2,0,0,.3,0,.4-.1M97.7,515c-.7.5-2.1,1.5-2.7,2,0,0-.1,0-.1-.1,0,0,1-.7,1-.7h0c0,0-1,.6-1,.6,0,0,0,0,0,0,.7-.5,2.1-1.5,2.7-2,0,.1.2.2.3.4M97.3,514.3s0,0,0,0c0,0-2.2,1.6-2.9,2.1,0,0-.1.1-.2.1,0-.1,0-.2,0-.2.2-.1,2.7-2,2.9-2.1M96.6,514c0,0-.1.1-.2.1,0,0,0-.1.1-.1,0,0,.1,0,.2-.1,0,0,0,0,0,0,0,0,0,0-.1.1M96.9,514.1c.2,0-.2.3-.4.3,0-.2.2-.2.4-.3M97.4,514.8s.1,0,.1,0c0,0-.2.2-.2.2-.1,0-.2.1-.3.1,0-.2.3-.3.4-.4M85.8,514.4c0-.2.4.1.4.3-.2,0-.3-.2-.4-.3M86.2,514.1c0,0,.1,0,.2.2,0,0-.1,0-.2,0,0,0-.1,0-.2-.1,0,0,0,0,0,0,0,0,.1,0,.2,0M88.9,495.8c.8-.5,1.6-.6,2.4-.6s1.1,0,1.7.3c1.2.5,2.4,1.9,2.2,3.7,0-.1,0-.9-.2-1.5-.1-.5-.8-1.5-1.7-2-.4-.2-1-.3-1.6-.4-.6,0-1.6.1-1.9.3-.3.2-.4.2-.6.3,0,0-.2.1-.2,0,0,0,0,0,0,0M89.2,496s-.1,0-.1,0c0,0,.1-.1.2-.1.1,0,.3.2.3.4.2.3.2.6.2.7,0,0,0,.1,0,.1s0-.2-.1-.3c0-.4-.5-.8-.5-.8M92.1,499.6c0,.2-.2.3-.4.3s-.4-.2-.4-.3.2-.3.4-.3.4.2.4.3M92.6,502.5c.1.2.2.4.2.7s-.1.7-.4.9c-.3.2-.6.4-1.1.4-.9,0-1.5-.6-1.5-1.3s.3-.8.5-.9c0,0,.3-.2.4,0,0,0-.2.2-.2.2,0,0-.4.3-.4.8,0,.6.5,1,1.2,1,.8,0,1.2-.4,1.2-1s-.1-.5-.3-.6c-.1-.1-.4-.2-.3-.3,0,0,.4,0,.5.3M92.2,499.6c0,.3-.2.5-.5.5s-.5-.2-.5-.5.2-.5.5-.5.5.2.5.5M92,499.6c0,.1-.1.2-.3.2s-.3-.1-.3-.2.1-.2.3-.2.3.1.3.2M91.5,504.7c0,0,0,.1-.1.1s-.1,0-.1-.1,0-.1.1-.1.1,0,.1.1M89.1,502.4c0,0,0,0,0,.1,0,.2,0,.3,0,.5,0,.2,0,.4,0,.6,0,.2,0,.4,0,.6,0,.2.1.4,0,.5,0,0-.1-.3-.2-.4,0,0-.1-.8-.1-1.1,0-.1,0-.1,0-.2,0,0-.2,0-.3,0,0,.1,0,.2,0,.3,0,.4,0,1,0,1,0,0,0,.2,0,.2,0,0,0-.2,0-.2,0,0,0-.6,0-.8,0-.3-.1-.9-.2-.9,0,0,0-.2,0-.2,0,0,0,.2.1.2.1,0,.3,0,.4,0,0,0,0-.3,0-.3M88.9,502.8s0,0,0,0c0,.1-.3.1-.3.1s0,0,0-.1c0,0,.3,0,.3,0M89.2,505.2c0,.1-.1.2-.3.2s-.3-.1-.3-.2.1-.2.3-.2.3.1.3.2M89.4,505.3c0,.2-.2.4-.4.4s-.4-.2-.4-.4.2-.4.4-.4.4.2.4.4M89.3,502.1s-.1.6,0,1.7c0,.3.2.9.2,1,0,.1.3.7.2.7,0,0-.5.4-.7.5-.2-.2-.5-.3-.7-.5,0-.2.1-.3.2-.7.1-.7,0-1.4,0-1.6,0-.3-.2-.7-.3-.9.4,0,.7-.1,1.1-.1M93.7,502.7c0,0,.2,0,.4,0,0,0,0-.2.1-.2,0,0,0,.2,0,.2,0,0-.2.6-.2.9,0,.2,0,.7,0,.8,0,0,0,.2,0,.2,0,0,0-.2,0-.2,0,0,0-.6,0-1,0-.2,0-.2,0-.3,0,0-.2,0-.3,0,0,0,0,0,0,.2,0,.3-.1,1-.1,1.1,0,0-.1.4-.2.4,0,0,0-.2,0-.5,0-.2,0-.4,0-.6,0-.2,0-.4,0-.6,0-.2,0-.4,0-.5,0,0,0-.1,0-.1,0,0,0,.2,0,.3M94,502.9s0,.1,0,.1-.3,0-.3-.1c0,0,0,0,0,0,0,0,.3,0,.3,0M93.7,505c.1,0,.3.1.3.2s-.1.2-.3.2-.3-.1-.3-.2.1-.2.3-.2M93.7,504.9c.2,0,.4.2.4.4s-.2.4-.4.4-.4-.2-.4-.4.2-.4.4-.4M93.4,502.1c.4,0,.7,0,1.1.1-.1.3-.3.8-.3,1,0,.3,0,1.2,0,1.6,0,.2.1.4.2.7-.2.2-.4.4-.7.5-.2-.1-.7-.5-.7-.5,0,0,.2-.6.2-.7,0-.2.2-.7.2-1,0-1.1,0-1.7,0-1.7M89.2,511.3c0,0,.4,0,.4,0,0,0,0-.1,0-.2,0,0-.4,0-.5,0-.1,0-.1.1-.1.1,0,0,0,0,.1,0M89.2,511.6c0,0,.3,0,.3,0s0,0,0-.1c0,0,0,0,0,0,0,0-.3,0-.4,0,0,0,0,0,0,0,0,0,0,0,0,0,0,0,.2.1.2.1M93.9,500.2c0,0,0,.1,0,.2,0,.2,0,.4,0,.6,0,0,0,.1,0,.2,0,0,0,.1,0,.1.1,0,.1-.2.2-.3,0-.1.4-.8.5-2,0-.3,0-1.3-.4-1.7,0-.1-.3-.6-.8-1-.6-.5-1.6-.8-2.5-.8-.3,0-1.1.1-1.5.4.1.3.2.5.3.6,0,0,.1.4.1.5,0,0,.2,0,.2,0,0-.1,0-.3,0-.5s-.2-.3-.2-.4c0-.1.1-.3.3-.3.1,0,.2.2.3.4,0,.2,0,.5,0,.7,0,0,.2,0,.2,0,0,0,.2-.3.2-.5,0-.2,0-.4-.1-.5,0-.1.2-.2.3-.2.1,0,.1.3.1.5,0,.2-.2.4-.2.6,0,0,.1,0,.2,0s0,0,0,0c0,0,.2-.3.3-.4,0-.2,0-.4,0-.5,0-.1.2-.2.4-.1.1,0,0,.3,0,.5,0,.2-.3.4-.4.5,0,0,.1,0,.2,0,.1,0,.3-.2.4-.4.1-.2,0-.4,0-.5,0-.1.3-.1.4,0,.1,0,0,.3,0,.5,0,.2-.3.3-.5.5,0,0,.1,0,.2,0,.1,0,.3-.2.4-.3.2-.1.1-.3.2-.5,0-.1.3,0,.4,0,0,.1,0,.3-.2.5-.1.2-.4.3-.6.3,0,0,.1,0,.2.1.1,0,.4-.1.5-.2.2,0,.2-.3.3-.4,0-.1.3,0,.4.1,0,.1-.1.3-.3.4-.2.1-.4.2-.6.2,0,0,.1.1.2.2h0c.1,0,.3,0,.5,0,.2,0,.3-.2.4-.3.1,0,.3,0,.3.2,0,.1-.2.3-.4.3-.2,0-.4,0-.6,0h0c0,0,.1.1.2.2.1,0,.2,0,.4,0,.2,0,.3-.2.4-.2.1,0,.3.1.3.3,0,.1-.2.2-.4.3-.2,0-.3,0-.5,0h0c0,0,0,.2.1.3,0,0,.2,0,.3,0,.2,0,.3-.1.4-.2.1,0,.2.1.2.3,0,.1-.2.2-.4.2-.1,0-.3,0-.4,0h0c0,0,0,.2,0,.2,0,0,.1,0,.2,0,.2,0,.3,0,.4,0s.2.2.1.3c0,.1-.3.1-.4,0,0,0-.2,0-.3-.1h0c0,0,0,.2,0,.2,0,0,0,0,0,0,.2,0,.3,0,.4,0,.1,0,.2.2,0,.3,0,.1-.3,0-.5,0,0,0-.1,0-.2,0,0,0,0,0,0,.2,0,0,0,0,0,0,.1.1.3,0,.4,0,.1,0,.1.2,0,.3,0,0-.3,0-.4,0,0,0,0,0-.1,0M93.6,498h0,0ZM91.6,509.3h-.5v-.8h.5v.8ZM91.5,509.2h-.2v-.5h.2v.5ZM91.8,509.5h-.8v-1.1h.8v1.1ZM90.8,509.5h1.1v-.2c.5,0,1,0,1.5,0,.1,0,.3,0,.4,0h0c0,0,0,0-.2,0-.4,0-1.3,0-1.4.2.5,0,1.6,0,1.6,0,0,0-.1,0-.2,0-.2,0-.5,0-.8.1h0c.3,0,1,0,1,0,0,0,0,0,0,0,0,0-1.1.2-1.2.2,0,0-.1,0,0,0,.4,0,.8,0,1.2,0,0,0,.2,0,.2,0,0,0-1.1.3-1.5.3h0c.5,0,1,0,1.4,0,0,0,.1,0,.2,0,0,0-.1,0-.2.1-.4.1-.9.2-1.3.3-.2,0-.3,0-.5,0-.8,0-1.7,0-2.5,0-.3,0-.6,0-.9-.1-.1,0-.2,0-.4,0,0,0,.2-.3.2-.3,0,0,.3,0,.3,0,0,0-.2,0-.3,0,0,0,0-.1,0-.2,0,0,.1,0,.2,0,0,0-.1,0-.2,0,0,0,.2-.3.2-.4.5,0,1.1,0,1.6,0,.1,0,.2,0,.3,0v.2ZM91.9,508.5s.6,0,.7,0c.2,0,.6,0,.8,0,.1,0,.3,0,.5,0,0,0,.2,0,.1.1,0,0-.3,0-.4,0-.2,0-.5,0-.6,0,0,0,.1.1.2.1.1,0,.2,0,.4,0,.2,0,.3,0,.4,0,0,.1,0,.2,0,.2,0,0-.2,0-.2,0-.6,0-1.2,0-1.8,0v-.6M99.6,521s1.3-1.7,1.6-3.9c.3-2.2-.1-3.5-.2-3.6,0,0,0-.2,0-.2,0,0,.1.2.1.2,0,0,.5,1.4.2,3.6-.3,2.2-1.6,3.9-1.6,3.9,0,0-.1.2-.2.2,0,0,0-.1,0-.2M83.2,521.2s-.1-.1-.2-.1c0,0-1.3-1.7-1.6-3.9-.3-2.2.1-3.5.2-3.6,0,0,0-.2.1-.2,0,0,0,.2,0,.2,0,0-.5,1.4-.2,3.6.3,2.2,1.6,3.9,1.6,3.9,0,0,0,.1,0,.1M83.1,510.2h0s0,0,0,0v.2c-.2,0-.2,0-.2,0h0s0,0,0,0l.5-.6s0,0,0,0h0c0,0,0,.1,0,.2,0,0,0,.2,0,.3-.1.2-.2.2-.4,0M83.3,509.9h0s0,0,0,0h-.1c0,.2,0,.2,0,.2,0,0,0,0,0,0,0,0,0,0,.1,0,0,0,0-.1,0-.2M83.5,510.9c0,0-.1,0-.2,0,0,0,0-.1,0-.2,0,0,0-.2.2-.3.1-.2.2-.2.3-.3,0,0,.1,0,.2,0,0,0,0,.1,0,.2,0,0,0,.2-.2.3-.1.2-.2.2-.3.3M83.8,510.3s0,0,0,0c0,0,0,0,0,0,0,0-.1,0-.2.2-.1.1-.2.2-.2.3,0,0,0,0,0,0,0,0,0,0,0,0,0,0,.1,0,.2-.2.1-.1.2-.2.2-.3M83.9,511.3c0,0-.1,0-.2,0,0,0,0,0,0-.2,0,0,0-.1,0-.2l.4-.5s0,0,0,0h0s0,0,0,.1l-.4.4s0,0,0,.1c0,0,0,0,0,0,0,0,0,0,.1,0l.4-.5s0,0,0,0h0s0,0,0,.1l-.4.5c0,0,0,0-.2,0M84.4,511.8s0,0,0-.1v-.2c.1,0,0,0,0,0,0,0,0,0,0,0v.2c-.2,0-.2,0-.2,0h0s0,0,0-.1l.5-.6s0,0,0,0h0c0,0,0,.1,0,.2,0,0,.1.2,0,.3,0,0-.1.1-.2.1v.3c-.1,0-.2,0-.2,0h0ZM84.7,511h0s0,0,0,0h0c0,.1,0,.2,0,.2,0,0,0,0,.1,0,0,0,0,0,0,0,0,0,0-.1,0-.2M84.9,512.1s0,0,0,0l.4-.6s0,0,0,0h0s0,0,0,0l-.4.5s0,0,0,0h0c0,0,0,.1,0,.2,0,0,0,0,0,0h-.2ZM85.6,512.5s0,0,0,0h0c0,0,0-.1,0-.1h0c0,0,0,0-.1,0h0c0,0,0,0-.1,0h0s0,0,0,0l.6-.6s0,0,.1,0h0s0,0,0,.1l-.3.8s0,0,0,0h0ZM85.7,511.9s0,0,0,0l-.2.2s0,0,0,0h0s0,0,0,0v-.2ZM86.3,512.6h0s0,0,0,0v.2c-.1,0-.2,0-.2,0h0s0,0,0,0l.4-.7s0,0,0,0h0c0,0,0,.1,0,.1,0,0,.1.1,0,.3,0,.2-.2.2-.3.1M86.5,512.2h0s0,0,0,0h0c0,.2,0,.2,0,.2,0,0,0,0,.1,0,0,0,0,0,0,0,0,0,0-.1,0-.2M86.8,513.2s0,0,0,0h0c0,0,0-.1,0-.1h0c0,0,0,0-.1,0h0c0,0,0,0,0,0h0s0,0,0,0l.5-.6s0,0,.1,0h0s0,0,0,0l-.2.8s0,0,0,0h0ZM86.9,512.6s0,0,0,0l-.2.2s0,0,0,0h0s0,0,0,0v-.2ZM87.5,512.7s0,0,0,0l-.3.6s0,0,0,0h0s0,0,0,0l.3-.6s0,0,0,0h0s0,0,0,0c0,0,0,0,0,0h.3c0,.2,0,.2,0,.2,0,0,0,0,0,0h0ZM87.7,513.7s0,0,0,0v-.3s0,0,0,0c0,0,0,0,0,0v.2c-.1,0-.1,0-.2,0h0s0,0,0,0l.3-.7s0,0,0,0h0c0,0,0,0,.1.1,0,0,.1.1,0,.3,0,.1,0,.2-.2.2v.4s0,0,0,0h0ZM87.9,512.9h0s0,0,0,0h0c0,.2,0,.2,0,.2,0,0,0,0,.1,0,0,0,0,0,0,0,0,0,0-.1,0-.2M88,513.8s0,0,0,0l.3-.7s0,0,0,0h0s0,0,0,0l-.3.7s0,0,0,0h0ZM88.3,513.9s0,0,0,0l.2-.7s0,0,0,0h.2c0,0,0,.1,0,.2,0,0,0,0,0,0h-.1s0,0,0,0h0c0,.2,0,.2,0,.2h0s0,0,0,.1c0,0,0,0,0,0h0s0,0,0,0h0c0,.2,0,.2,0,.2h.1s0,0,0,.1c0,0,0,0,0,0h-.2ZM89.1,514.1s0,0,0,0l.2-.8s0,0,0,0h0s0,0,0,0l-.2.6s0,0,0,0h.1s0,0,0,.1c0,0,0,0,0,0h-.2ZM89.6,514.2s0,0,0,0v-.8c.1,0,.2,0,.2,0h.2c0,0,0,0,0,.1,0,0,0,0,0,0h-.1s0,0,0,0h0c0,.2,0,.2,0,.2h0s0,0,0,0c0,0,0,0,0,0h0s0,0,0,0h0c0,.2,0,.2,0,.2h.1s0,0,0,0c0,0,0,0,0,0h-.2ZM90.4,514.3s-.1,0-.2,0c0,0-.1,0-.2,0,0,0,0-.1,0-.2h0s0,0,0,0c0,0,0,0,0,0,0,0,0,0,0,0,0,0,0,0,0,0,0,0,0,0,0,0,0,0,0-.1,0-.2h0s0,0-.1-.1c0,0,0,0,0-.2,0,0,0-.1,0-.2,0,0,0,0,.2,0,0,0,.1,0,.2,0,0,0,0,.1,0,.2h0s0,0,0,0c0,0,0,0,0,0,0,0,0,0,0,0,0,0,0,0,0,0,0,0,0,0,0,0,0,0,0,0,0,.1h0s0,0,.1.1c0,0,0,0,0,.2,0,0,0,.2,0,.2M91.3,514.3s0,0-.2,0c0,0-.1,0-.2,0,0,0,0-.1,0-.2h0s0,0,0,0c0,0,0,0,0,0,0,0,0,0,0,0,0,0,0,0,0,0,0,0,0,0,0-.1,0,0,0-.1,0-.2h0s0,0-.1,0c0,0,0,0,0-.2,0,0,0-.1,0-.2,0,0,0,0,.2,0,0,0,.1,0,.2,0,0,0,0,.1,0,.2h0s0,0,0,0c0,0,0,0,0,0,0,0,0,0,0,0s0,0,0,0c0,0,0,0,0,0,0,0,0,0,0,.1h0s0,0,.1,0c0,0,0,0,0,.2,0,0,0,.2,0,.2M91.9,514.3s0,0-.2,0c0,0-.1,0-.2,0,0,0,0-.2,0-.4,0-.2,0-.3,0-.4,0,0,0,0,.2,0,0,0,.1,0,.2,0,0,0,0,.1,0,.2h0s0,0,0,0h0s0,0,0,0c0,0,0,0,0,0,0,0,0,.1,0,.3,0,.2,0,.3,0,.3,0,0,0,0,0,0,0,0,0,0,0,0,0,0,0,0,0,0h.1c0,0,0,.1,0,.2M92.2,514.3s0,0,0,0v-.8c0,0,0,0,0,0h0s0,0,0,0v.8c0,0,0,0,0,0h0ZM92.5,514.3s0,0,0,0v-.8c-.1,0,0,0,0,0h.2s0,0,0,0c0,0,0,0,0,0h-.1s0,0,0,0h0c0,.2,0,.2,0,.2h0s0,0,0,0c0,0,0,0,0,0h0s0,0,0,0h0c0,.2,0,.2,0,.2h.1s0,0,0,0c0,0,0,0,0,0h-.2ZM93.4,514.1s0,0,0,0l-.2-.4s0,0,0,0v.4c0,0,0,0,0,0h0s0,0,0,0l-.2-.8s0,0,0,0c0,0,0,0,0,0l.2.4s0,0,0,0v-.4c0,0,0,0,0,0h0s0,0,0,0l.2.8s0,0,0,0M94,513.9s0,0-.1,0c0,0-.1,0-.2,0,0,0-.1-.1-.2-.4,0-.2,0-.3,0-.4,0,0,0,0,.2-.1,0,0,.1,0,.2,0,0,0,0,0,.1.2h0s0,0,0,0c0,0,0,0,0,0,0,0,0,0,0,0,0,0,0,0,0,0,0,0,0,.1,0,.3,0,.2,0,.3.1.3,0,0,0,0,0,0,0,0,0,0,0,0,0,0,0,0,0,0h.1s0,.1,0,.2M94.3,513.9s0,0,0,0l-.2-.7s0,0,0,0h.2c0,0,0,0,0,0,0,0,0,0,0,0h-.1s0,0,0,.1h0c0,.2,0,.2,0,.2h0s0,0,0,0c0,0,0,0,0,0h0s0,0,0,.1h0c0,.2,0,.2,0,.2h.1s0,0,0,0c0,0,0,0,0,0h-.2ZM95.1,513.6s0,0-.1.1c0,0-.1,0-.2,0,0,0,0,0-.1-.2h0s0,0,0,0c0,0,0,0,0,0,0,0,0,0,0,0,0,0,0,0,0,0,0,0,0,0,0-.1,0,0,0-.1-.1-.1h0s0,0-.1,0c0,0,0,0-.1-.2,0,0,0-.1,0-.2,0,0,0,0,.1-.1,0,0,.1,0,.2,0,0,0,.1,0,.1.2h0s0,0,0,0c0,0,0,0,0,0,0,0,0,0,0,0,0,0,0,0,0,0,0,0,0,0,0,0,0,0,0,0,.1,0h0s0,0,.1,0c0,0,.1,0,.2.2,0,0,0,.2,0,.2M95.6,513.4s0,0,0,0l-.3-.7s0,0,0,0h.2c0-.1,0-.1,0,0,0,0,0,0,0,0h0c0,0,0,.1,0,.1h0c0,.1,0,.2,0,.1h0s0,0,0,0c0,0,0,0,0,0h0s0,0,0,.1h0c0,.2,0,.2,0,.2h0c0,0,0,0,0,0,0,0,0,0,0,0h-.2ZM95.9,512.3s0,0,0,0l.3.6s0,0,0,0h0s0,0,0,0l-.3-.6s0,0,0,0h0s0,0,0,0c0,0,0,0,0,0l.3-.2s0,0,0,0c0,0,0,0,0,0h0ZM96.7,512.8s0,0,0,0l-.4-.7s0,0,0,0h0s0,0,0,0l.3.6s0,0,0,0h0c0,0,0,0,0,0,0,0,0,0,0,0h-.2ZM97.4,512.3s0,0-.1,0h0c0,0,0,0-.1,0h0c0,0,0,.1,0,.1h0c0,0,0,.1,0,.1h0s0,0,0,0l-.3-.8s0,0,0,0h0s0,0,.1,0l.6.5s0,0,0,0h0ZM96.9,511.9s0,0,0,0v.2c.1,0,.1,0,.2,0h0s0,0,0,0l-.2-.2ZM97.9,512c0,0-.1,0-.2,0,0,0-.2-.1-.3-.3-.1-.2-.2-.3-.2-.4,0,0,0-.1,0-.2,0,0,.1,0,.2,0,0,0,.1,0,.2.1h0c0,0,0,0,0,0,0,0,0,0-.1,0,0,0,0,0,0,0,0,0,0,.1.2.3,0,.1.2.2.2.2,0,0,0,0,0,0,0,0,0,0,0-.1h0c0,0,0-.1,0,0,0,0,0,0,0,0,0,0,0,0,0,0h0c0,0,0,0,0,0v.2c.2.1.2.3,0,.3M98.3,511.7s0,0,0,0l-.5-.6s0,0,0,0h0s0,0,0,0l.4.5s0,0,0,0h0c0,0,0,0,0,0,0,0,0,0,0,0l-.2.2ZM98.8,511.2c0,0,0,.1,0,.2,0,0-.1,0-.2,0,0,0-.2,0-.3-.3-.1-.2-.2-.3-.2-.4,0,0,0-.1,0-.2s.1,0,.2,0c0,0,.2,0,.3.3.1.2.2.3.2.3M98.3,510.7s0,0,0,0c0,0,0,0,0,0,0,0,0,.1.2.3.1.1.2.2.2.2,0,0,0,0,0,0,0,0,0,0,0,0,0,0,0-.1-.2-.3-.1-.1-.2-.2-.2-.2M99.1,511.1s0,0,0,0l-.5-.6s0,0,0,0h0s0,0,0,0l.5.6s0,0,0,0h0ZM99.6,510.7s0,0-.1,0l-.2-.2s0,0,0,0c0,0,0,0,0,0v.2c.2,0,.2,0,.1,0h0s0,0,0,0l-.5-.6s0,0,0,0h0c0,0,0-.1.1-.1,0,0,.2,0,.3,0,0,0,0,.2,0,.3l.3.2s0,0,0,0h0ZM99,510.2h0s0,0,0,.1h0c0,.1,0,.2,0,.1,0,0,0,0,0,0,0,0,0,0,0-.1,0,0,0-.1-.2,0M99.8,510.5s0,0,0,0l-.5-.6s0,0,0,0h.2c0-.2,0-.2,0-.1,0,0,0,0,0,0h0c0,0,0,.1,0,.2h0c0,.1,0,.1,0,.1h0c0,0,0,0,0,0,0,0,0,0,0,0h0c0,0,0,.1,0,.1h0c0,.1,0,.1,0,.1h0c0,0,0,0,0,0,0,0,0,0,0,0h-.2ZM102,500.1c0,0-2.4,1.5-3,1.9-.5.5-1.8,1.8-2,2.1,0,0,0,.1-.1.1-.2-.2.4-.7.4-.8,0,0-.3.3-.3.3,0,0,0,0-.1.1-.1-.1,0-.2,0-.3,0,0,.3-.4.4-.5-.1.1-.3.3-.4.4,0,0,0,0,0,0,0,0,0-.2,0-.2,0,0,.5-.5.5-.6-.1.1-.3.2-.4.4,0,0,0,.1-.1.1,0,0,0-.1,0-.2,1.7-1.7,5.2-3.1,5.4-3.1s0,0,0,0M90.9,501.9c-.1,0-1.2.2-1.5.2,0,0,0-.2-.2-.2,0,0,0,0-.2,0-.3,0-.6,0-.9.1,0,0-.1,0-.2,0h0s0,0,0-.1c0,0-.3-.5-.5-.7,0-.1-.1-.2-.2-.3,0,0,0-.1,0-.2,0,0,0-.1-.1-.1,0,0-.1,0-.2,0,0,0,0-.1,0-.2,0-.2-.1-.3-.2-.5,0,0-.3-.5-.4-.5,0,0-.1,0-.2,0-.1,0-.1-.2-.2-.2,0,0-.4.2-.4.3-.4.2-1,.7-1.1.8,0,0,0,.2,0,.2,0,0,.1.1.1.2,0,0,0,0,0,.2,0,0,.4.6.7.9,0,0,.2,0,.2.1,0,0,0,.1,0,.2,0,.1.2.2.3.2,0,0,.2.3.3.4,0,.1.1.2.2.3,0,0-.2.4-.5,0-2-1.7-5.9-3.3-6.2-3.5-.1,0-.2-.1-.2,0,0,0,.4.6.6,1,0,.2.6,1,.6,1.1-.2,0-.3-.2-.4-.2,0,0,0,.2,0,.3,0,.2.4,1.2.9,2,0,.1.1.2,0,.2,0,0-.4-.2-.4-.2,0,0,0,0,0,.1,0,.1.3.6,1.1,1.8,0,0-.1,0-.2,0,0,0,0,.2.1.3,0,.1.5.6.5.7,0,0,.6.6.8.8.3.2.8.5,1,.6.2,0,.8.3.9.3.2,0,.3,0,.4,0,0,0,.2.1.3.2.9.4,1.4.5,2,.4.3,0,.5,0,.6,0,.1,0,.5.4.5.5,0,0-.2.4-.3.6-.2.3-.8,1.4-.9,1.5,0,0-.2.3-.3.3,0,0-1.1-.6-1.3-.8-.2-.2-1.8-1.3-2.1-1.5-.2-.1-1.1-.7-1.9.4-.6,1-.7,2.1.6,3.1.2.1.5.7.4,1.2,0,0,0,.1,0,.2,0,0,1.1-.8,1.2-1.9.5.4,1.1.8,1.7,1.2,0,0-.2.2-.2.3,0,0-.1.2-.2.3,0,0-.2,0-.3.1,0,0,0,.2,0,.3,0,0,0,.1-.1.2,0,0,0,.2-.2.2,0,0-.1,0-.2,0,0,0,0,0-.1,0,0,0,0,0-.1,0-.1,0-.1.2,0,.3,0,0,0,.1,0,.1,0,0,.1.1.2.2,0,.1.6.9.5,1.1,0,0-.1,0-.2,0-.1,0-.2,0-.3-.1,0-.1.2-.4.2-.5,0-.1,0-.1-.2-.2-.1,0-1.5-1.4-1.6-1.6,0-.1-.5-.6-.6-.8-.1-.2-.5-.8-.6-.8,0,0-.2.2-.2.3,0,0,0,.2,0,.2-.2.5-.5,1.9-.2,3.7.3,2.1,1.4,3.7,1.8,4.1,0,0,0,.1.2,0,.2,0,.6-.4.7-.5,0,0,.1,0,.1,0,0,0,0,0,0,0,.6.6,1.5,1.3,2.6,1.7.3.1.7.3,1,.4,1.9.7,3.1,1.1,3.8,3.4,0,.1,0,.1,0,.1,0,0,0,0,0-.1.7-2.3,1.9-2.7,3.8-3.5.3-.1.6-.2,1-.4,1.1-.5,2-1.1,2.6-1.7.1.1.5.5.7.5,0,0,0,0,.1,0,.4-.5,1.5-2,1.8-4.2.3-1.8,0-3.2-.2-3.7,0,0-.1-.5-.2-.5,0,0-.2,0-.2.2,0,0-.1.2-.2.3-.9,1.5-2.6,2.8-2.7,2.9,0,.1.1.3.1.5,0,0-.2.1-.3.1,0,0-.3-.2-.3-.2,0-.1.1-.2.2-.3.1-.1.2-.3.3-.4,0,0,.2-.3.2-.4,0,0,.1-.3.1-.3,0,0,0-.1-.1-.2,0,0-.3-.1-.4-.1,0,0-.3-.4-.3-.4,0-.1,0-.2,0-.3,0,0-.2,0-.3,0,0,0-.3-.4-.4-.5,1.1-.6,1.6-1.1,1.8-1.2h0c0,.9,1.1,2,1.2,1.9,0,0,0-.1,0-.2,0-.1,0-.7.4-1.1,1.3-1,1.2-2,.6-3.1-.7-.9-1.4-.7-1.7-.6-.3.2-1.4,1.1-1.6,1.2-.4.3-1.5,1-1.8,1.1,0,0-.2,0-.2,0-.2-.2-.7-.9-.9-1.4-.2-.4-.4-.8-.4-.9,0,0,.5-.4.7-.4.1,0,.4,0,.7.1.3,0,1.3-.2,1.6-.4.3-.2.2-.2.2-.2,0,0,.3,0,.4,0,1.6-.3,2.9-1.7,3.1-2.1.2-.3.3-.4.2-.5,0,0-.1,0-.2,0,.2-.3.6-.7.6-.9s.3-.5.4-.7c0-.2.1-.3,0-.3,0,0-.4.2-.4.1,0,0,.2-.3.7-1.3.4-.8.4-1.2.4-1.2,0,0-.3.1-.4.1.2-.4.4-.7.6-1.1.2-.4.6-1,.6-1.1,0,0,0,0-.2,0-.4.2-4.2,1.8-6.2,3.5,0,0-.3.1-.5,0,.1-.2.2-.3.2-.4,0,0,.2-.3.3-.4,0,0,.3-.1.3-.2,0,0,0-.1,0-.2,0,0,.1,0,.2-.1,0,0,.2-.2.3-.3,0,0,.4-.4.4-.6,0,0,0-.1,0-.2,0,0,.1,0,.1-.2,0,0,0-.1,0-.2,0,0-.1-.1-.2-.2-.3-.3-1-.7-1.1-.8,0,0-.1-.1-.2-.1-.1,0-.1.2-.2.2,0,0-.1,0-.2,0,0,0-.3.3-.3.4,0,0-.3.5-.3.6,0,0,0,.1,0,.2,0,0-.1,0-.2,0,0,0-.1,0-.1.1,0,0,0,.1,0,.2,0,0-.2.3-.2.3,0,0-.4.6-.4.6,0,0,0,.1,0,.1-.2,0-.4,0-.5-.1-.2,0-.6,0-.6,0-.2,0-.2.1-.3.2-.4,0-.8,0-1.1-.1,0,0,0-.1,0-.2,0,0,0-1.1,0-1.3,0,0,0,0,0,0,1,1.3,1.9,1.3,2.2,1.2.2-.2.6-.9.8-1.6.1-.5.2-.9.2-1.4,0-.5-.2-2.5-2.3-3.3-2.1-.8-3.8.1-4.1.3-.1,0-.2.1-.2.2,0,0,0,.2.1.2,0,0,.1,0,.2,0,0,0,.3.2.5.5.1.2.2.6.2.7,0,.1-.4.3-.7.9-.2-.2-.4.3-.4.5,0,.1-.2.8-.2,1,0,.1,0,.1,0,.2-.1.3-.3.7-.4.8,0,.1-.2.3-.2.7.3.1,1.3.3,3.1-.4,0,.3,0,1,0,1,0,0,0,0,0,0M91.7,500.5s0,0,0,0,0,0,0,0v3.4s0,0,0,0,0,0,0,0v-3.4ZM91.5,500.6s0,0-.1,0c0,0-.3.2-.3.2v3.1s0,0,0,0c0,0,.2,0,.2,0,0,0,0,0,0,0v-3.3ZM91.2,521.7c0,0-.1-5.8-.1-5.8,0,0,0-.5,0-.6,0,0-.1,0-.2,0-.6,0-1,0-1.3-.1-.1,0,0,.2,0,.2.2,0,.5,0,.6,0,0,0,0,0,0,0-.1,0-.7-.1-.6,0,0,.1.5.1.6.2,0,0,0,0,0,0-.1,0-.4,0-.6,0,0,0,0,0,0,.2,0,0,.6,0,.6.2-.2,0-.4,0-.6,0,0,0,0,.1,0,.2,0,0,.5,0,.5.1-.1,0-.4,0-.5,0,0,0,0,.1,0,.2,0,0,.5,0,.5,0,0,0-.4,0-.5,0,0,0,0,.1,0,.2,0,0,.5,0,.5,0,0,0-.4,0-.5,0,0,0,0,.1,0,.2,0,0,.5,0,.5,0,0,0-.4,0-.5,0,0,0,0,.1,0,.2,0,0,.5,0,.5,0,0,0-.5,0-.5,0,0,0,0,.1,0,.2,0,0,.5,0,.5.1,0,0-.4,0-.5,0,0,0,0,.1,0,.2.1,0,.4,0,.6.1,0,0,0,0,0,0s-.4,0-.5,0c0,0,0,.1,0,.2,0,0,.6.1.6.2-.2,0-.5,0-.7,0,0,0,0,.1-.1.2.2,0,.5,0,.6.1h0c-.2,0-.5,0-.7,0,0,0-.1.1-.1.2,0,0,.7.1.7.2,0,0-.7,0-.8,0,0,0-.1,0-.2.2.1,0,.9.2.9.2h0c0,0-.8,0-1-.1,0,0-.1.1-.2.2,0,0,1.1.2,1.2.2h0c-.5,0-.9,0-1.3-.2-.1,0-.3,0-.4,0,.5.1.9.2,1.4.4,0,0,0,0,0,0-.1,0-1.3-.3-1.4-.3,0,0,0,0-.1,0,0,0-1,0-2.4-1-1.2-.9-2.4-2.4-2.6-2.7,0,0,0-.2-.2-.2,0,.2,0,.3.1.4,0,.1,1.2,2.2,1.8,2.9.5.5,1.2,1.2,2,1.7.7.4,2,.9,2.7,1,.6.1,2,.2,2.1.2.1,0,.1-.1.1-.2M83.8,512.3c-.5-.5-1.3-1.2-1.4-1.1,0,0,.2.2.2.2,0,0,1,.9,1,.9,0,0,.2.2.2.3,0,.1.2,0,0-.3M82,512.1c0,0,.2.2.2.2,0,0,.9.8,1,1.4,0,0,0,.2,0,.1,0,0,0,0,0-.2,0-.2-.1-.5-.3-.7,0,0-.9-1-1-.9M81.8,511.7c0,0,.2.2.2.2,0,0,1.3,1,1.4,1.6,0,0,0,.1,0,.1,0,0,0,0,0-.2,0-.2-.2-.5-.4-.7-.2-.2-1.2-1.2-1.3-1.1M81.8,511.3c0,0,.2.3.2.3.1,0,1.4,1.2,1.5,1.6,0,0,0,.1,0,.1s0,0,0-.2c0-.2-.2-.4-.5-.7-.3-.3-1.2-1.2-1.4-1.1M81.9,511.1c0,0,.2.3.2.3.1,0,1.3,1.1,1.6,1.5,0,0,0,.1,0,.1,0,0,0,0,0-.1,0-.1-.2-.3-.6-.6-.3-.3-1.2-1.2-1.4-1.1M98.9,512.5c0,0,.1-.2.2-.3,0,0,1-.9,1-.9,0,0,.3-.2.2-.2,0,0-.9.6-1.4,1.1-.2.2,0,.4,0,.3M99.8,513c-.1.2-.3.5-.3.7,0,.2,0,.1,0,.2,0,0,0,0,0-.1,0-.6,1-1.4,1-1.4,0,0,.2-.2.2-.2,0,0-.9.8-1,.9M99.6,512.7c-.2.2-.4.5-.4.7,0,.2,0,.1,0,.2,0,0,0,0,0-.1.1-.6,1.4-1.6,1.4-1.6,0,0,.2-.2.2-.2,0,0-1.1.8-1.3,1.1M99.6,512.4c-.3.3-.5.5-.5.7,0,.2,0,.2,0,.2,0,0,0,0,0-.1.1-.4,1.4-1.5,1.5-1.6,0,0,.3-.3.2-.3-.1,0-1,.8-1.4,1.1M99.4,512.1c-.3.3-.5.5-.6.6,0,.1,0,.1,0,.1,0,0,0,0,0-.1.2-.4,1.5-1.4,1.6-1.5,0,0,.3-.3.2-.3-.1,0-1,.8-1.4,1.1M91.4,515.3h0M85.3,514.7c.7.5,2.1,1.5,2.8,2,0,0,0,.1,0,.1,0,0-1.1-.7-1.1-.7h0c0,0,.8.6,1.1.8,0,0,0,.1-.1.1-.7-.5-2.1-1.5-2.8-2,0-.1.2-.2.3-.4M85.3,514.4c.2,0,2.8,1.9,2.9,2,0,0,.1,0,0,.2,0,0-.1,0-.2-.1,0,0-2.7-2-2.8-2,0,0,0,0,0,0M84.7,515.2s0,0,0,0h0c.5.4,2.7,2,2.9,2.1,0,0,.1,0,.1.2,0,0,0,0,0,0-.2-.2-2.2-1.6-3-2.2h0ZM84.7,515.5c0,0-.3-.2-.1-.2,1,.8,2.1,1.5,3.1,2.3,0,0,0,0,0,0,0,0-.2,0-.2,0-.7-.5-2.6-1.9-2.8-2.1M85.3,515.2s0-.1,0-.1c0,0,.4.3.5.4-.2,0-.4-.2-.5-.3M91.2,504.8c0,0,0-.2,0-.2-.9,0-1.5-.7-1.5-1.4s.1-.6.3-.9c-.2,0-.5,0-.6,0-.1,0-.1,0-.1.1,0,.3,0,.7,0,1.4,0,.6.3,1.4.5,1.7,0,0,0,0,0,0,0,0-.8.6-.9.6-.1,0-.5-.4-.6-.4,0,0,0,0,0,0-.1,0-.3,0-.4,0,0,0-.2,0-.2,0,.2.7.6,1.5.9,2.1,0,0,.1.2.2.3,0,0,.3.2.7.1.4,0,.9,0,1.2,0h0c0-.1.5-.1.5-.1v-3.3s-.1,0-.1-.2M91.6,504.8s0,0,.4,0h0c0,0-.4,0-.4,0,0,0-.1,0-.1.1s.1,0,.1,0h.4,0c0,0-.4,0-.4,0,0,0-.1,0-.1,0s0,.2,0,.2h.4,0c0,0-.4,0-.4,0,0,0-.1,0-.1.1s0,.1,0,.1h.4,0c0,0-.4,0-.4,0,0,0-.1,0-.1.1s0,.2.1.2h.4,0c0,0-.4,0-.4,0,0,0-.1,0-.1.1s0,.1.1.1h.4,0c0,0-.4,0-.4,0,0,0-.1,0-.1.1s0,.1.1.1h.4,0c0,0-.3,0-.3,0,0,0-.1,0-.1.1s0,.1.1.1h.4c0,0-.4,0-.4,0,0,0-.1,0-.1.1s0,.1.1.1h.4c0,0-.4,0-.4,0,0,0-.1,0-.1.1s0,.1.1.1h.4c0,0-.3,0-.4,0s-.2,0-.2.1,0,.1.1.1h.4c0,0-.6,0-.6,0h0c0,0,.5,0,.5,0h0c.5.1,1.1,0,1.6,0,.1,0,.4,0,.4,0,0,0-.2,0-.3,0-.3,0-.5,0-.7,0,0,0,0,0,0,0,.2,0,.9,0,.9,0,.1,0,.2,0,.2-.1-.2,0-.5,0-.7,0,0,0,0,0,0,0,.2,0,.3,0,.5,0,.2,0,.4,0,.3-.2-.2,0-.4,0-.6,0,0,0,0,0,0,0,.1,0,.3,0,.5,0,.1,0,.3,0,.3-.1-.2,0-.4,0-.6,0,0,0,0,0,0,0,.1,0,.8,0,.8-.1,0,0,0,0,0,0-.3,0-.8,0-1.2-.1h0s1.2,0,1.2,0c0,0,0,0,0,0,0,0-.3,0-.3,0-.2,0-.5,0-.7,0,0,0,0,0,0,0,.3,0,.7,0,.9,0,0,0,.2,0,.2,0,0,0-.3-.1-.4-.1-.2,0-.4,0-.7,0,0,0-.8-.6-.9-.7,0,0,.1-.4.1-.4,0-.1.1-.3.1-.4,0,0,0,0,0-.1,0-.2.2-.6.2-.9,0-.6,0-1.1,0-1.3,0-.2-.2-.2-.4-.3s-.1.1-.1.1c.2.2.3.5.3.8,0,.7-.6,1.3-1.4,1.4,0,0,0,0,0,0,0,0,0,.2,0,.2M97.6,505.1s-.2.4.2,0c.4-.3.8-.3.8-.3-.4.4-1.3.7-1.3.7l-.4.6c.2,0,1.6-.7,1.8-.9.2-.2.8-1.4.9-1.6.1-.2,0-.3,0-.2,0,0-.5.3-.6.5-.2.2-1,.7-1,.7,0,0-.3.4-.3.4M83,502.8c-.1-.2-.5-1.2-.4-1.2,0,0,.2,0,.2,0,0,0,.1.3.2.4,0,0,0-.1,0-.1.2,0,.2.5.5.6,0,0,0,0,0-.1,0,0,.2,0,.2.1,0,0,.5.7.4.8-.1,0-.9-.6-.9-.6,0,.1.9.9,1,1,0,.1.3.6.3.7,0,0,0,0,0,0-.1,0-1.5-1.4-1.7-1.6M80,500c0,0,.5.3.6.5,0,.1.1.2.1.2,0,0,0-.2,0-.2,0,0,.2,0,.5.6,0,0-.1-.2,0-.3.1,0,.3.3.4.4.1.1,0-.2,0-.2,0,0,.2,0,.2,0,0,0,.2.6.3.5,0,0-.1-.3,0-.3,0,0,.2.1.2.2,0,0,.3.8.3.9,0,0-.4-.2-.5-.3-.1-.1-.8-.7-.8-.7,0,0,.2.3.4.5.5.5,1.1.9,1.1.9,0,0,.2.3.1.4-.6,0-1.6-1.3-1.7-1.4-.2-.2-1.2-1.8-1.1-1.9M84.7,504.7s-.8-.5-1-.7c-.2-.2-.6-.4-.6-.5,0,0-.2,0,0,.2.1.2.7,1.4.9,1.6.2.2,1.6.9,1.8.9l-.4-.6s-.9-.3-1.3-.7c0,0,.3,0,.8.3.4.3.2,0,.2,0,0,0-.2-.4-.3-.4M87.9,503.4c0,0-.2,0-.1.1,0,.1,0,1.3-.1,1.5,0,.3-.2.7-.2.7,0,0,.1,0,.2-.1,0-.2.4-1.3.4-2,0-.2-.1-.2-.1-.2M94.6,503.6c0,.7.3,1.9.4,2,0,.2.1.1.2.1s0-.4-.2-.7c0-.3-.1-1.4-.1-1.5,0-.1-.2-.1-.1-.1,0,0-.1,0-.1.2"/>
  <g>
    <path class="st6" d="M537.2,620.6c-.8,0-1.5,0-2.3,0l.3-7.7c.7,0,1.3,0,2,0v7.7ZM543.6,620.3l-.7-7.7c.7,0,1.3-.1,2-.2l1,7.6c-.8,0-1.5.2-2.3.3ZM552.2,618.8l-1.8-7.5c.6-.2,1.3-.3,1.9-.5l2.1,7.4c-.7.2-1.5.4-2.2.6ZM560.5,616.2l-2.8-7.2c.6-.2,1.2-.5,1.9-.8l3.1,7.1c-.7.3-1.4.6-2.1.9ZM568.3,612.5l-3.8-6.7c.6-.3,1.2-.7,1.7-1l4,6.6c-.6.4-1.3.8-2,1.1ZM575.6,607.8l-4.6-6.1c.5-.4,1.1-.8,1.6-1.2l4.8,6c-.6.5-1.2.9-1.8,1.4ZM582.1,602.1l-5.4-5.5c.5-.5.9-.9,1.4-1.4l5.6,5.3c-.5.6-1.1,1.1-1.6,1.6ZM587.8,595.6l-6.1-4.7c.4-.5.8-1.1,1.2-1.6l6.3,4.4c-.4.6-.9,1.2-1.4,1.8ZM592.6,588.4l-6.7-3.8c.3-.6.6-1.2,1-1.8l6.8,3.5c-.4.7-.7,1.3-1.1,2ZM596.4,580.5l-7.2-2.8c.2-.6.5-1.2.7-1.9l7.3,2.6c-.3.7-.5,1.4-.8,2.1ZM599,572.3l-7.5-1.8c.2-.6.3-1.3.4-2l7.5,1.6c-.2.7-.3,1.5-.5,2.2ZM600.5,563.7l-7.7-.8c0-.7.1-1.3.2-2l7.7.5c0,.8-.1,1.5-.2,2.3ZM593.1,555.3c0-.7,0-1.3-.1-2l7.7-.5c0,.8,0,1.5.1,2.3l-7.7.3ZM592.3,547.7c-.1-.7-.2-1.3-.4-2l7.5-1.6c.2.7.3,1.5.4,2.2l-7.6,1.3ZM590.5,540.3c-.2-.6-.4-1.3-.6-1.9l7.2-2.6c.3.7.5,1.4.7,2.2l-7.3,2.3ZM587.7,533.3c-.3-.6-.6-1.2-.9-1.8l6.8-3.6c.4.7.7,1.4,1,2l-6.9,3.3ZM584,526.6c-.4-.6-.7-1.1-1.1-1.6l6.3-4.5c.4.6.9,1.2,1.3,1.9l-6.4,4.2ZM579.3,520.6c-.4-.5-.9-1-1.3-1.5l5.6-5.3c.5.6,1,1.1,1.5,1.7l-5.8,5.1ZM573.9,515.2c-.5-.4-1-.9-1.5-1.3l4.8-6c.6.5,1.2,1,1.8,1.5l-5.1,5.8ZM567.9,510.6c-.6-.4-1.1-.7-1.7-1.1l4-6.6c.7.4,1.3.8,1.9,1.2l-4.2,6.4ZM508.2,509.9l-4.1-6.5c.6-.4,1.3-.8,2-1.2l3.8,6.7c-.6.3-1.2.7-1.7,1ZM561.2,506.9c-.6-.3-1.2-.6-1.8-.8l3-7.1c.7.3,1.4.6,2.1.9l-3.3,7ZM514.9,506.3l-3.1-7c.7-.3,1.4-.6,2.1-.9l2.9,7.1c-.6.2-1.2.5-1.8.8ZM554.1,504.1c-.6-.2-1.3-.4-1.9-.6l2-7.4c.7.2,1.5.4,2.2.6l-2.3,7.3ZM522.1,503.7l-2.1-7.4c.7-.2,1.5-.4,2.2-.6l1.9,7.5c-.6.2-1.3.3-1.9.5ZM546.7,502.3c-.7-.1-1.3-.2-2-.3l1-7.6c.8,0,1.5.2,2.3.3l-1.3,7.6ZM529.5,502.1l-1.1-7.6c.7-.1,1.5-.2,2.3-.3l.8,7.7c-.7,0-1.3.2-2,.2ZM539.1,501.6c-.6,0-1.2,0-1.7,0h-.3v-7.7c0,0,.3,0,.3,0,.7,0,1.3,0,2,0l-.2,7.7Z"/>
    <path class="st6" d="M547.1,604.9l-1.5-7.5c.6-.1,1.3-.3,1.9-.4l1.9,7.5c-.7.2-1.5.4-2.3.5ZM555.6,602.3l-2.9-7.1c.6-.2,1.2-.5,1.8-.8l3.2,7c-.7.3-1.4.6-2.1.9ZM563.4,598.3l-4.1-6.5c.5-.3,1.1-.7,1.6-1.1l4.4,6.3c-.6.4-1.3.9-1.9,1.3ZM570.4,592.9l-5.2-5.7c.5-.4.9-.9,1.4-1.4l5.5,5.4c-.5.6-1.1,1.1-1.7,1.6ZM576.4,586.3l-6.2-4.6c.4-.5.8-1.1,1.1-1.6l6.4,4.3c-.4.6-.9,1.3-1.3,1.9ZM581,578.8l-6.9-3.4c.3-.6.6-1.2.8-1.8l7,3.1c-.3.7-.6,1.4-1,2.1ZM584.2,570.6l-7.4-2.1c.2-.6.3-1.3.5-1.9l7.5,1.8c-.2.8-.4,1.5-.6,2.3ZM585.8,561.9l-7.7-.7c0-.6.1-1.3.1-1.9l7.7.4c0,.8,0,1.6-.2,2.3ZM578.2,553.7c0-.7-.1-1.3-.2-1.9l7.6-1c.1.8.2,1.5.3,2.3l-7.7.7ZM576.9,546.4c-.2-.6-.4-1.3-.6-1.9l7.3-2.4c.2.7.5,1.5.7,2.2l-7.4,2ZM574.3,539.4c-.3-.6-.6-1.2-.9-1.7l6.8-3.7c.4.7.7,1.4,1.1,2.1l-6.9,3.3ZM570.5,533c-.4-.5-.8-1-1.2-1.5l6-4.8c.5.6,1,1.2,1.4,1.8l-6.2,4.6ZM565.5,527.5c-.5-.4-1-.9-1.5-1.3l5-5.8c.6.5,1.2,1,1.7,1.6l-5.3,5.6ZM559.7,522.9c-.5-.4-1.1-.7-1.7-1l3.9-6.7c.7.4,1.3.8,2,1.2l-4.2,6.5ZM553.1,519.4c-.6-.2-1.2-.5-1.8-.7l2.6-7.2c.7.3,1.5.5,2.2.8l-2.9,7.1ZM522.1,519.3l-2.9-7.1c.7-.3,1.4-.6,2.2-.8l2.5,7.3c-.6.2-1.2.4-1.8.7ZM546,517.2c-.6-.1-1.3-.3-1.9-.4l1.2-7.6c.8.1,1.5.3,2.3.4l-1.6,7.5ZM529.2,517.1l-1.5-7.5c.8-.2,1.5-.3,2.3-.4l1.2,7.6c-.6,0-1.3.2-1.9.3ZM538.6,516.3c-.6,0-1.3,0-2,0l-.2-7.7c.8,0,1.6,0,2.3,0l-.2,7.7Z"/>
    <path class="st6" d="M567.9,569.3l-7.2-2.7c.2-.6.4-1.2.6-1.8l7.4,2.1c-.2.8-.5,1.5-.8,2.3ZM569.9,560.2l-7.7-.5c0-.5,0-1.1,0-1.6v-.2s7.7,0,7.7,0v.3c0,.7,0,1.4,0,2.1ZM561.6,552.7c-.1-.6-.3-1.2-.5-1.8l7.4-2.3c.2.8.4,1.6.6,2.3l-7.5,1.7ZM559.1,546.2c-.3-.5-.6-1.1-1-1.6l6.4-4.2c.4.7.9,1.4,1.3,2.1l-6.7,3.8ZM554.9,540.6c-.4-.4-.9-.8-1.4-1.2l4.9-5.9c.6.5,1.2,1.1,1.8,1.6l-5.4,5.5ZM549.2,536.5c-.4-.2-.8-.4-1.2-.6l-.4-.2,3.1-7.1.6.2c.6.3,1.1.5,1.6.8l-3.6,6.8ZM542.6,534.1c-.6-.1-1.2-.2-1.8-.3l.9-7.6c.8,0,1.6.2,2.4.4l-1.5,7.5Z"/>
  </g>
  <g>
    <path class="st12" d="M466.2,569.3h-5.8c-4.2,0-6.4-2.4-6.4-6v-10.7c0-3.6,2.2-6,6.4-6h6.1v3.1h-6.1c-2.5,0-3,1.3-3,3.2v3.2h8.7v3.2h-8.7v3.7c0,1.9.4,3.1,3,3.1h6.3v2.6c0,.3-.2.5-.5.5Z"/>
    <path class="st12" d="M482.2,569.3l-7.8-17.6c-.1-.3-.3-.4-.3-.6v18.2h-3.4v-22.7h2.5c2.6,0,3.3,1.3,4.4,3.7l4.2,9.4,1.3,3.6-.2-3.6v-13.1h3.4v22.7h-3.9Z"/>
    <path class="st12" d="M496,569.5c-2.2,0-4.5-.6-6.7-1.2l.7-3.2c1.9.5,3.9,1.2,6,1.2s3.8-1.5,3.8-3.1c0-5.2-10.1-3.2-10.1-10.7s3.1-6.2,7.1-6.2,3.9.5,5.8,1.2l-1,3c-1.5-.5-3.2-1-4.8-1-2.6,0-3.6,1.4-3.6,3,0,4.4,10.1,2.8,10.1,10.7s-2.9,6.3-7.3,6.3Z"/>
    <path class="st12" d="M520.3,569.3l-1.8-6.5h-8.4l-1.8,6.5h-3.5l5.2-19.1c.8-3,2.6-3.8,4.2-3.8s3.5.8,4.3,3.8l5.2,19.1h-3.5ZM515.4,551.1c-.3-1.2-.6-1.5-1.1-1.5s-.7.3-1,1.5l-2.4,8.7h6.7l-2.4-8.7Z"/>
    <path class="st12" d="M539.1,569.3h-5.8c-4.2,0-6.4-2.4-6.4-6v-10.7c0-3.6,2.2-6,6.4-6h6.1v3.1h-6.1c-2.5,0-3,1.3-3,3.2v3.2h8.7v3.2h-8.7v3.7c0,1.9.4,3.1,3,3.1h6.3v2.6c0,.3-.2.5-.5.5Z"/>
  </g>
  <path class="st10" d="M401,564.7l7.3-11.8,6.8,11.8h-14.1ZM348.6,552.7l7.4,12h-14.3l6.9-12h0ZM378.4,501.1l7.9,13.7h-15.8s7.9-13.7,7.9-13.7h0ZM391,549.3l7.6-13.3,7.7,13.3h-15.3ZM389.2,552.5l7.6,12.2h-14.6l7-12.2h0ZM367.9,552.3l7.1,12.3h-14.7l7.6-12.3h0ZM366.1,549.2h-15.5l7.8-13.4,7.7,13.4h0ZM376.4,530.3h-14.9s7.2-12.4,7.2-12.4l7.7,12.4h0ZM378.5,530.2l-8.5-13.7h17s-8.5,13.7-8.5,13.7h0ZM380.5,530.3l7.6-12.4,7.1,12.4h-14.8ZM378.5,563.9l-17.2-30.1h34.4s-17.2,30.1-17.2,30.1h0ZM358.1,564.7l-8.4-13.7h17s-8.5,13.7-8.5,13.7h0ZM398.8,564.7l-8.4-13.6h16.9s0,0,0,0l-8.4,13.6h-.1ZM420.1,565.6l-40-69.3-1.6-2.8-1.6,2.8-40,69.3-1.6,2.9h86.6l-1.6-2.9h0Z"/>
  <g>
    <path class="st5" d="M334.8,584.7v-6.2h3v.7h-2.2v2h2.1v.7h-2.1v2.1h2.2v.7h-3ZM336.1,578l-.3-.5,1.2-1,.4.6-1.3.9Z"/>
    <path class="st5" d="M341.7,584.8c-1.9,0-2.7-1.3-2.7-3s.9-3.3,2.9-3.3.9,0,1.3.2v.8c-.5-.1-1-.2-1.4-.2-1.3,0-1.9,1.1-1.9,2.4s.6,2.4,2,2.4,1-.1,1.3-.3v.8c-.4.2-.9.3-1.5.3Z"/>
    <path class="st5" d="M346.6,584.8c-1.8,0-2.6-1.2-2.6-3.1s1.3-3.3,2.8-3.3,2.6,1.1,2.6,3.1-1.3,3.3-2.8,3.3ZM346.7,579.2c-1,0-1.9.8-1.9,2.4s.6,2.5,1.8,2.5,1.9-.8,1.9-2.4-.7-2.5-1.9-2.5Z"/>
    <path class="st5" d="M350.6,584.7v-6.2h.8v5.5h2.1v.7h-2.9Z"/>
    <path class="st5" d="M354.5,584.7v-6.2h3v.7h-2.2v2h2.1v.7h-2.1v2.1h2.2v.7h-3Z"/>
    <path class="st5" d="M364.7,584.7l-2.2-3.8c-.3-.4-.5-.9-.7-1.3,0,.7,0,2.1,0,3.1v2h-.8v-6.2h1.1l2.2,3.7c.3.4.5.9.7,1.4,0-.8,0-2.3,0-3.3v-1.8h.8v6.2h-1Z"/>
    <path class="st5" d="M371,584.7l-.5-1.4h-2.5l-.5,1.4h-.8l2.2-6.2h.9l2.2,6.2h-.9ZM369.5,580.4c-.1-.3-.2-.6-.3-.9h0c0,.3-.2.6-.3.9l-.8,2.2h2.1l-.8-2.2Z"/>
    <path class="st5" d="M374.1,579.2v5.5h-.8v-5.5h-1.7v-.7h4.2v.7h-1.7Z"/>
    <path class="st5" d="M376.8,584.7v-6.2h.8v6.2h-.8Z"/>
    <path class="st5" d="M381.4,584.8c-1.8,0-2.6-1.2-2.6-3.1s1.3-3.3,2.8-3.3,2.6,1.1,2.6,3.1-1.3,3.3-2.8,3.3ZM381.5,579.2c-1,0-1.9.8-1.9,2.4s.6,2.5,1.8,2.5,1.9-.8,1.9-2.4-.7-2.5-1.9-2.5Z"/>
    <path class="st5" d="M389.1,584.7l-2.2-3.8c-.3-.4-.5-.9-.7-1.3,0,.7,0,2.1,0,3.1v2h-.8v-6.2h1.1l2.2,3.7c.3.4.5.9.7,1.4,0-.8,0-2.3,0-3.3v-1.8h.8v6.2h-1Z"/>
    <path class="st5" d="M395.4,584.7l-.5-1.4h-2.5l-.5,1.4h-.8l2.2-6.2h.9l2.2,6.2h-.9ZM394,580.4c-.1-.3-.2-.6-.3-.9h0c0,.3-.2.6-.3.9l-.8,2.2h2.1l-.8-2.2Z"/>
    <path class="st5" d="M397.3,584.7v-6.2h.8v5.5h2.1v.7h-2.9Z"/>
    <path class="st5" d="M401.2,584.7v-6.2h3v.7h-2.2v2h2.1v.7h-2.1v2.1h2.2v.7h-3Z"/>
    <path class="st5" d="M409.2,584.7c-.6,0-1.1,0-1.5,0v-6.2c.5,0,1.1,0,1.8,0,1.9,0,3,.9,3,3s-1.4,3.2-3.3,3.2ZM409.4,579.2c-.3,0-.7,0-.9,0v4.8c.2,0,.5,0,.8,0,1.4,0,2.4-.8,2.4-2.4s-.7-2.4-2.2-2.4Z"/>
    <path class="st5" d="M413.8,584.7v-6.2h3v.7h-2.2v2h2.1v.7h-2.1v2.1h2.2v.7h-3Z"/>
    <path class="st5" d="M419.3,584.8c-.4,0-.8,0-1.2-.1v-.8c.4.1.8.2,1.3.2.7,0,1.3-.3,1.3-1.1,0-1.4-2.7-.8-2.7-2.8s.8-1.7,2.1-1.7.7,0,1.1.1v.8c-.4-.1-.8-.2-1.1-.2-.8,0-1.2.4-1.2,1,0,1.3,2.7.9,2.7,2.8s-.8,1.9-2.2,1.9Z"/>
    <path class="st5" d="M345.6,594.9c0,.7-.1,1.4-.4,2.1-.3.7-.7,1.2-1.2,1.7-.5.5-1.2.9-2,1.1-.8.3-1.6.4-2.6.4h-.5c-.2,0-.4,0-.6,0v5.4h-3.1v-15.3c.7,0,1.4,0,2.1,0,.7,0,1.5,0,2.3,0,2,0,3.5.4,4.5,1.2,1,.8,1.6,2,1.6,3.5ZM342.4,595.1c0-.8-.2-1.4-.7-1.8-.5-.5-1.3-.7-2.3-.7h-.6c-.2,0-.4,0-.5,0v5.1c.3,0,.6,0,.9,0,1,0,1.7-.3,2.3-.7.6-.5.9-1.1.9-2Z"/>
    <path class="st5" d="M366.8,597.7c0,1.3-.2,2.4-.6,3.4-.4,1-1,1.9-1.7,2.6-.7.7-1.5,1.2-2.5,1.6s-2,.6-3.1.6-2.3-.2-3.2-.5c-.9-.4-1.7-.9-2.3-1.5-.6-.7-1.1-1.5-1.4-2.4-.3-1-.5-2-.5-3.2s.2-2.4.6-3.4c.4-1,1-1.8,1.7-2.5.7-.7,1.6-1.2,2.5-1.6,1-.4,2-.6,3.1-.6s2,.2,2.9.5c.9.3,1.7.8,2.3,1.4.7.6,1.2,1.4,1.5,2.4.4,1,.5,2.1.5,3.4ZM363.4,597.9c0-1.7-.4-3-1.1-3.9-.7-.9-1.8-1.4-3.2-1.4s-1.1.1-1.6.3c-.5.2-1,.5-1.4,1-.4.4-.7,1-.9,1.6-.2.6-.4,1.4-.4,2.3s0,1.6.3,2.2c.2.7.4,1.2.8,1.7.3.5.8.8,1.3,1.1.5.3,1.2.4,1.9.4s1,0,1.6-.3c.5-.2,1-.5,1.4-.9.4-.4.7-1,1-1.6.3-.7.4-1.5.4-2.4Z"/>
    <path class="st5" d="M383.2,605.5l-4.7-7.8c-.4-.6-.7-1.1-1-1.7-.3-.6-.5-1.1-.8-1.6,0,.3,0,.7,0,1.2,0,.4,0,.9,0,1.4,0,.5,0,1,0,1.5,0,.5,0,1,0,1.5v5.5h-3v-15.3h4l4.5,7.3c.4.6.7,1.2,1,1.8.3.6.6,1.2.9,1.8,0-.4,0-.8,0-1.3,0-.5,0-1.1,0-1.6,0-.6,0-1.1,0-1.7,0-.6,0-1.1,0-1.5v-4.8h3v15.3h-4Z"/>
    <path class="st5" d="M401.1,592.7v12.8h-3.1v-12.8h-4.2v-2.5h11.5v2.5h-4.2Z"/>
    <path class="st5" d="M421.3,600.8c0,.7-.1,1.4-.4,2-.3.6-.7,1.1-1.3,1.6-.5.4-1.2.8-2,1s-1.7.4-2.7.4-1.1,0-1.7,0c-.6,0-1.1-.2-1.6-.3l.2-2.8c.5.2,1,.3,1.6.4.6.1,1.2.2,1.8.2s1.5-.2,2-.5c.5-.3.8-.8.8-1.5s-.2-.9-.5-1.2c-.3-.3-.8-.5-1.3-.8-.5-.2-1-.4-1.6-.6-.6-.2-1.1-.5-1.6-.8-.5-.3-.9-.7-1.3-1.3-.3-.5-.5-1.2-.5-2s.1-1.3.4-1.9c.3-.6.7-1.1,1.2-1.5.5-.4,1.2-.7,1.9-.9s1.6-.3,2.6-.3.9,0,1.4,0,1,.1,1.5.2l-.2,2.6c-.5-.1-.9-.2-1.4-.3-.5,0-1-.1-1.5-.1-.9,0-1.6.2-2,.5-.4.3-.7.8-.7,1.3s.2.8.5,1.1c.3.3.7.5,1.2.8.5.2,1,.4,1.6.6s1.1.5,1.6.8c.5.3.9.8,1.2,1.3.3.5.5,1.2.5,2Z"/>
    <path class="st5" d="M334.8,621.3v-6.2h3v.7h-2.2v2h2.1v.7h-2.1v2.1h2.2v.7h-3Z"/>
    <path class="st5" d="M341.3,615.8v5.5h-.8v-5.5h-1.7v-.7h4.2v.7h-1.7Z"/>
    <path class="st5" d="M352.4,621.3c-.4,0-.9.1-1.3.1-.9,0-1.6-.1-2.1-.4-.6-.3-1-.6-1.4-1.1-.4-.5-.6-1-.8-1.6-.1-.6-.2-1.2-.2-1.8s.1-1.6.3-2.2.5-1.3.9-1.7c.4-.5.9-.9,1.5-1.1.6-.3,1.3-.4,2.1-.4s.7,0,1.1,0c.4,0,.7.1,1,.2l-.2,1.8c-.7-.2-1.3-.3-2-.3s-.9,0-1.2.3-.6.4-.9.7c-.2.3-.4.7-.5,1.1-.1.4-.2.9-.2,1.4,0,1.1.2,2,.7,2.6.5.6,1.2.9,2.2.9s.6,0,1-.1c.4,0,.7-.2.9-.3l.2,1.8c-.4.1-.8.3-1.2.3Z"/>
    <path class="st5" d="M361.6,621.3v-4.4h-4.1v4.4h-1.9v-10.2h1.9v4.1h4.1v-4.1h1.9v10.2h-1.9Z"/>
    <path class="st5" d="M371.9,621.3l-.7-2.1h-3.7l-.7,2.1h-1.9l3.4-10.2h2.1l3.5,10.2h-2.1ZM369.8,615c0-.3-.2-.6-.3-.8,0-.3-.1-.5-.2-.8h0c-.1.5-.3,1.1-.5,1.7l-.9,2.6h2.7l-.9-2.7Z"/>
    <path class="st5" d="M382.1,620.5c-.7.7-1.7,1-3,1s-1.4-.1-1.9-.3-.9-.5-1.1-.8c-.3-.3-.5-.7-.6-1.2-.1-.4-.2-.9-.2-1.4v-6.7h1.9v6.6c0,.3,0,.6,0,.9s.2.5.3.7c.2.2.4.3.6.5s.6.2,1,.2c.7,0,1.2-.2,1.6-.5s.5-1,.5-1.8v-6.4h1.9v6.3c0,1.4-.4,2.4-1.1,3.1Z"/>
    <path class="st5" d="M391.2,618.2c0,.5,0,.9-.3,1.3-.2.4-.4.8-.8,1.1-.3.3-.7.5-1.2.7-.5.2-1,.3-1.6.3s-.7,0-1,0c-.3,0-.7-.1-1-.2v-1.8c.4.1.7.2,1.1.3.4,0,.7.1,1.1.1s.9-.1,1.2-.3.5-.6.5-1-.1-.6-.3-.8c-.2-.2-.5-.4-.8-.5-.3-.1-.6-.3-1-.4-.4-.1-.7-.3-1-.5-.3-.2-.6-.5-.8-.8-.2-.3-.3-.8-.3-1.4s0-.9.3-1.3c.2-.4.4-.7.7-1,.3-.3.7-.5,1.2-.6s1-.2,1.6-.2.6,0,.9,0c.3,0,.6,0,.9.1v1.7c-.4,0-.7-.1-1-.2-.3,0-.6,0-.9,0-.5,0-1,.1-1.2.3s-.4.5-.4.9.1.5.3.7c.2.2.5.4.8.5s.6.3,1,.4c.4.1.7.3,1,.5s.6.5.8.8.3.8.3,1.3Z"/>
    <path class="st5" d="M398.9,618.2c0,.5,0,.9-.3,1.3-.2.4-.4.8-.8,1.1-.3.3-.7.5-1.2.7-.5.2-1,.3-1.6.3s-.7,0-1,0c-.3,0-.7-.1-1-.2v-1.8c.4.1.7.2,1.1.3.4,0,.7.1,1.1.1s.9-.1,1.2-.3.5-.6.5-1-.1-.6-.3-.8c-.2-.2-.5-.4-.8-.5-.3-.1-.6-.3-1-.4-.4-.1-.7-.3-1-.5-.3-.2-.6-.5-.8-.8-.2-.3-.3-.8-.3-1.4s0-.9.3-1.3c.2-.4.4-.7.7-1,.3-.3.7-.5,1.2-.6s1-.2,1.6-.2.6,0,.9,0c.3,0,.6,0,.9.1v1.7c-.4,0-.7-.1-1-.2-.3,0-.6,0-.9,0-.5,0-1,.1-1.2.3s-.4.5-.4.9.1.5.3.7c.2.2.5.4.8.5s.6.3,1,.4c.4.1.7.3,1,.5s.6.5.8.8.3.8.3,1.3Z"/>
    <path class="st5" d="M400.8,621.3v-10.2h5.3v1.7h-3.4v2.5h3.3v1.6h-3.3v2.8h3.4v1.7h-5.3ZM402.8,610.4l-.6-1.1,2.5-1.7.8,1.3-2.7,1.4Z"/>
    <path class="st5" d="M408.3,621.3v-10.2h5.3v1.7h-3.4v2.5h3.3v1.6h-3.3v2.8h3.4v1.7h-5.3Z"/>
    <path class="st5" d="M421.5,618.2c0,.5,0,.9-.3,1.3-.2.4-.4.8-.8,1.1-.3.3-.7.5-1.2.7-.5.2-1,.3-1.6.3s-.7,0-1,0c-.3,0-.7-.1-1-.2v-1.8c.4.1.7.2,1.1.3.4,0,.7.1,1.1.1s.9-.1,1.2-.3.5-.6.5-1-.1-.6-.3-.8c-.2-.2-.5-.4-.8-.5-.3-.1-.6-.3-1-.4-.4-.1-.7-.3-1-.5-.3-.2-.6-.5-.8-.8-.2-.3-.3-.8-.3-1.4s0-.9.3-1.3c.2-.4.4-.7.7-1,.3-.3.7-.5,1.2-.6s1-.2,1.6-.2.6,0,.9,0c.3,0,.6,0,.9.1v1.7c-.4,0-.7-.1-1-.2-.3,0-.6,0-.9,0-.5,0-1,.1-1.2.3s-.4.5-.4.9.1.5.3.7c.2.2.5.4.8.5s.6.3,1,.4c.4.1.7.3,1,.5s.6.5.8.8.3.8.3,1.3Z"/>
  </g>
  <g>
    <polygon class="st1" points="176.6 570.2 198.4 570.2 198.4 562.8 184.5 562.8 184.5 558.8 195.8 558.8 195.8 551.7 184.5 551.7 184.5 548.1 198.4 548.1 198.4 540.7 176.6 540.7 176.6 570.2"/>
    <path class="st1" d="M220.9,540.7s0,20.4,0,20.7h-.1l-7.2-20.7h-12.6v29.5h7.9v-21.4h.1l7.8,21.4h11.9v-29.5h-7.8Z"/>
    <path class="st1" d="M245.8,570.2h-14.5v-7.4h13.8c1.4,0,1.7-2,.4-2.4l-8.6-2.7c-9.6-3-7.4-17.1,2.6-17.1h11.4v7.4h-11.4c-1.4,0-1.7,2-.4,2.4l9.2,2.9c9.5,2.9,7.4,16.9-2.5,16.9Z"/>
    <path class="st1" d="M300,560.6v-12.5c0-4.1-3.3-7.5-7.5-7.5h-12.6v7.4h7.8l-8.2,7c-6.1,5.2-2.4,15.1,5.6,15.1h14.9v-7.4h-14.9c-1.1,0-1.7-1.4-.8-2.1l8.2-7.6v7.5h7.5Z"/>
    <polygon class="st1" points="277.5 540.7 253.2 540.7 253.2 548.1 261.5 548.1 261.5 570.2 269.3 570.2 269.3 548.1 277.5 548.1 277.5 540.7"/>
  </g>
</svg>