<?xml version="1.0" encoding="UTF-8" standalone="no"?>
<!-- Created with Inkscape (http://www.inkscape.org/) -->

<svg
   version="1.1"
   id="svg2"
   width="1529.0496"
   height="1529.0496"
   viewBox="0 0 1529.0495 1529.0495"
   sodipodi:docname="logo_ensta_new.svg"
   inkscape:version="1.4 (86a8ad7, 2024-10-11)"
   xml:space="preserve"
   xmlns:inkscape="http://www.inkscape.org/namespaces/inkscape"
   xmlns:sodipodi="http://sodipodi.sourceforge.net/DTD/sodipodi-0.dtd"
   xmlns="http://www.w3.org/2000/svg"
   xmlns:svg="http://www.w3.org/2000/svg"><defs
     id="defs6" /><sodipodi:namedview
     id="namedview4"
     pagecolor="#ffffff"
     bordercolor="#000000"
     borderopacity="0.25"
     inkscape:showpageshadow="2"
     inkscape:pageopacity="0.0"
     inkscape:pagecheckerboard="0"
     inkscape:deskcolor="#d1d1d1"
     showgrid="false"
     inkscape:zoom="0.69510771"
     inkscape:cx="973.23046"
     inkscape:cy="735.85718"
     inkscape:window-width="2560"
     inkscape:window-height="1494"
     inkscape:window-x="-11"
     inkscape:window-y="-11"
     inkscape:window-maximized="1"
     inkscape:current-layer="g317" /><g
     inkscape:groupmode="layer"
     inkscape:label="Image"
     id="g8"
     transform="translate(111.68462,34.949438)"><g
       id="g317"
       transform="translate(-334.08275,-475.62052)"><path
         style="fill:#3645fe;stroke-width:0.333333"
         d="M 381.72892,970.0308 V 824.8641 h 106.83333 106.83334 v 36.1666 36.1667 h -68.33334 -68.33333 v 17.6667 17.6667 h 55.33333 55.33334 v 35 35 h -55.33334 -55.33333 v 20 20 h 68.33333 68.33334 v 36.3333 36.3333 H 488.56225 381.72892 Z m 239.66667,0 V 824.8641 l 61.75,0.01 61.75002,0.01 33.9981,98.2444 c 18.6989,54.0343 34.5047,99.7067 35.124,101.4942 0.6908,1.9942 1.3033,3.25 1.5852,3.25 0.3892,0 0.4593,-15.4919 0.4593,-101.5 v -101.5 h 38.5 38.5001 v 145.1667 145.1667 h -58.3495 -58.3494 l -0.457,-1.0834 c -0.2513,-0.5958 -17.5315,-47.8435 -38.40052,-104.9949 -30.71374,-84.112 -38.05477,-103.9126 -38.52697,-103.9167 -0.55433,0 -0.58333,5.2153 -0.58333,104.995 v 105 h -38.5 -38.5 V 970.0394 Z m 297.66662,108.8333 v -36.3333 h 68.43 c 75.46449,0 70.57389,0.1365 74.00549,-2.0656 4.5417,-2.9143 6.5902,-9.459 4.5913,-14.6683 -0.8992,-2.3434 -3.2681,-5.0394 -5.3591,-6.099 -0.8639,-0.4378 -21.5801,-6.9655 -46.0359,-14.5061 -24.45579,-7.5406 -46.34009,-14.4477 -48.63179,-15.3492 -16.7068,-6.5719 -29.8682,-16.9845 -39.3859,-31.1599 -17.5012,-26.066 -18.588,-62.6034 -2.7157,-91.3022 6.4811,-11.7185 15.6531,-21.719 26.6016,-29.0046 7.6679,-5.1024 18.8815,-9.7358 28.1804,-11.6439 9.3159,-1.9116 7.6193,-1.8679 72.56759,-1.8679 h 59.752 v 36.1666 36.1667 h -55.9387 c -38.9306,0 -56.53609,0.1104 -57.90329,0.3632 -5.3176,0.983 -8.8869,4.6829 -9.8629,10.224 -0.8411,4.7752 1.496,9.7224 5.7558,12.1841 0.8151,0.471 22.31389,7.266 49.13969,15.5312 26.2298,8.0816 49.4798,15.3965 51.6667,16.2554 19.7312,7.7497 35.1704,21.7317 44.1045,39.9421 3.5456,7.227 5.8136,14.3583 7.421,23.3334 0.6998,3.9072 0.7757,5.3166 0.7725,14.3333 0,10.9622 -0.3371,13.978 -2.4825,22.4757 -5.1941,20.5739 -17.4784,38.3566 -34.1147,49.3842 -12.2867,8.1444 -25.7705,12.5551 -41.7095,13.6438 -2.7595,0.1884 -34.28,0.3218 -76.76519,0.3247 h -72.0834 z m 295.99999,-72.6667 v -109 h -40.3333 -40.3333 v -36.1667 -36.1666 h 119.3333 119.3333 v 36.1666 36.1667 h -40.3333 -40.3333 v 109 109 h -38.6667 -38.6667 z m 225.1667,108.6214 c -19.1477,-1.3585 -37.0029,-9.1744 -50.9268,-22.2926 -13.9117,-13.1067 -23.5691,-32.362 -26.0516,-51.9427 -0.596,-4.7006 -0.6935,-15.287 -0.1833,-19.8861 1.6307,-14.6983 7.176,-28.5283 16.29,-40.6272 5.1604,-6.8505 8.8871,-10.2119 52.1499,-47.0394 22.8292,-19.4334 41.5183,-35.4459 41.5314,-35.5834 0.013,-0.1375 -17.2263,-0.25 -38.3096,-0.25 h -38.3333 v -36.1667 -36.1666 l 65.0833,0.01 c 69.6271,0.01 67.6774,-0.036 75.25,1.6526 26.3766,5.8814 48.1592,27.116 54.6707,53.2954 2.2831,9.1792 2.13,4.0076 2.244,75.7955 l 0.103,64.9166 h -37.0088 -37.0089 v -36.5 c 0,-20.075 -0.074,-36.5 -0.1642,-36.5 -0.4804,0 -81.9974,75.2693 -82.6688,76.3328 -5.3065,8.6027 -0.6261,16.5434 7.3189,18.5006 l 74.757,0.087 74.7571,0.087 v 36.3298 36.3297 l -74.75,-0.047 c -41.1125,-0.026 -76.55,-0.1751 -78.75,-0.3312 z"
         id="path319"
         sodipodi:nodetypes="cccccccccccccccccccccccccccccsssscccccccsscscccccccssssssssssscccscssscsscssscccccccccccccccccccccsssssssccccssscccssccccccscc" /><g
         transform="matrix(5.9155732,0,0,-5.9155732,639.18509,1440.5871)"
         id="g22"><path
           inkscape:connector-curvature="0"
           id="path24"
           style="fill:#231f20;fill-opacity:1;fill-rule:nonzero;stroke:none"
           d="m 0,0 c -6.656,4.58 -10.243,7.025 -13.608,9.524 -1.62,-2.674 -2.552,-5.811 -2.552,-9.167 0,-6.086 3.068,-11.453 7.741,-14.644 C -6.473,-10.45 -3.856,-6.177 0,0" /></g><g
         transform="matrix(5.9155732,0,0,-5.9155732,742.29469,1461.4998)"
         id="g26"><path
           inkscape:connector-curvature="0"
           id="path28"
           style="fill:#231f20;fill-opacity:1;fill-rule:nonzero;stroke:none"
           d="m 0,0 c -2.741,-2.909 -7.131,-3.336 -10.274,-1.354 -0.606,0.381 -4.936,3.367 -4.936,3.367 -4.784,-6.756 -7.241,-10.151 -9.881,-13.257 2.687,-1.641 5.845,-2.587 9.224,-2.587 9.503,0 17.258,7.478 17.702,16.871 C 1.45,1.91 0.819,0.861 0,0" /></g><g
         transform="matrix(5.9155732,0,0,-5.9155732,722.91882,1402.4422)"
         id="g30"><path
           inkscape:connector-curvature="0"
           id="path32"
           style="fill:#231f20;fill-opacity:1;fill-rule:nonzero;stroke:none"
           d="m 0,0 c -0.59,0.388 -4.389,2.916 -4.389,2.916 -3.112,-4.589 -3.601,-5.263 -5.98,-8.669 0,0 4.136,-2.678 4.732,-3.045 2.14,-1.319 4.98,-0.926 6.646,0.93 0.642,0.713 1.098,1.597 1.272,2.53 C 2.613,-3.614 2.063,-1.357 0,0" /></g><g
         transform="matrix(5.9155732,0,0,-5.9155732,647.44024,1427.3693)"
         id="g34"><path
           inkscape:connector-curvature="0"
           id="path36"
           style="fill:#231f20;fill-opacity:1;fill-rule:nonzero;stroke:none"
           d="m 0,0 c 2.249,3.582 4.278,6.774 7.472,11.598 0,0 6.698,-4.418 7.295,-4.843 C 15.472,6.253 15.982,5.75 16.39,5.264 13.643,11.495 7.415,15.847 0.168,15.847 -5.608,15.847 -10.737,13.082 -13.973,8.806 -10.405,6.69 -6.142,3.949 0,0" /></g><g
         transform="matrix(5.9155732,0,0,-5.9155732,549.29911,1362.9744)"
         id="g38"><path
           inkscape:connector-curvature="0"
           id="path40"
           style="fill:#231f20;fill-opacity:1;fill-rule:nonzero;stroke:none"
           d="M 0,0 C 0.004,1.234 -0.993,2.238 -2.227,2.242 -3.461,2.247 -4.466,1.25 -4.47,0.016 -4.474,-1.219 -3.477,-2.224 -2.243,-2.228 -1.008,-2.231 -0.004,-1.234 0,0" /></g><g
         transform="matrix(5.9155732,0,0,-5.9155732,570.44552,1328.376)"
         id="g42"><path
           inkscape:connector-curvature="0"
           id="path44"
           style="fill:#231f20;fill-opacity:1;fill-rule:nonzero;stroke:none"
           d="M 0,0 C 0.355,0.254 0.435,0.61 0.236,0.89 L 0.23,0.896 C 0.006,1.21 -0.336,1.213 -0.687,0.962 l -0.545,-0.39 0.687,-0.962 z m -2.007,0.664 1.053,0.753 c 0.621,0.444 1.268,0.37 1.653,-0.168 L 0.705,1.241 C 1.133,0.643 0.875,-0.014 0.288,-0.434 l -0.531,-0.379 0.614,-0.859 -0.469,-0.335 z" /></g><g
         transform="matrix(5.9155732,0,0,-5.9155732,599.70867,1312.1372)"
         id="g46"><path
           inkscape:connector-curvature="0"
           id="path48"
           style="fill:#231f20;fill-opacity:1;fill-rule:nonzero;stroke:none"
           d="M 0,0 -0.004,0.009 C -0.262,0.593 -0.901,0.89 -1.497,0.626 -2.094,0.362 -2.299,-0.298 -2.042,-0.881 L -2.038,-0.89 C -1.78,-1.474 -1.141,-1.771 -0.544,-1.507 0.052,-1.243 0.258,-0.583 0,0 m -2.588,-1.143 -0.003,0.008 c -0.374,0.846 -0.034,1.842 0.888,2.25 C -0.78,1.522 0.172,1.107 0.546,0.263 L 0.55,0.254 c 0.373,-0.846 0.034,-1.842 -0.889,-2.25 -0.922,-0.407 -1.875,0.008 -2.249,0.853" /></g><g
         transform="matrix(5.9155732,0,0,-5.9155732,611.21329,1298.2149)"
         id="g50"><path
           inkscape:connector-curvature="0"
           id="path52"
           style="fill:#231f20;fill-opacity:1;fill-rule:nonzero;stroke:none"
           d="M 0,0 0.563,0.124 1.154,-2.57 2.84,-2.201 2.952,-2.714 0.703,-3.207 Z" /></g><g
         transform="matrix(5.9155732,0,0,-5.9155732,638.66804,1305.6383)"
         id="g54"><path
           inkscape:connector-curvature="0"
           id="path56"
           style="fill:#231f20;fill-opacity:1;fill-rule:nonzero;stroke:none"
           d="M 0,0 -1.419,1.909 -0.74,1.949 0.264,0.552 1.105,2.058 1.765,2.097 0.58,0.049 0.657,-1.258 0.077,-1.293 Z" /></g><g
         transform="matrix(5.9155732,0,0,-5.9155732,663.03193,1297.4581)"
         id="g58"><path
           inkscape:connector-curvature="0"
           id="path60"
           style="fill:#231f20;fill-opacity:1;fill-rule:nonzero;stroke:none"
           d="M 0,0 -1.034,0.12 -0.973,0.651 1.673,0.345 1.612,-0.187 0.578,-0.066 0.262,-2.797 -0.316,-2.729 Z" /></g><g
         transform="matrix(5.9155732,0,0,-5.9155732,684.51079,1297.9434)"
         id="g62"><path
           inkscape:connector-curvature="0"
           id="path64"
           style="fill:#231f20;fill-opacity:1;fill-rule:nonzero;stroke:none"
           d="M 0,0 2.327,-0.714 2.176,-1.208 0.4,-0.662 0.15,-1.479 1.724,-1.962 1.573,-2.455 -0.001,-1.972 -0.26,-2.814 1.538,-3.367 1.387,-3.86 l -2.35,0.721 z" /></g><g
         transform="matrix(5.9155732,0,0,-5.9155732,705.00471,1315.4013)"
         id="g66"><path
           inkscape:connector-curvature="0"
           id="path68"
           style="fill:#231f20;fill-opacity:1;fill-rule:nonzero;stroke:none"
           d="M 0,0 0.004,0.008 C 0.447,0.83 1.425,1.171 2.3,0.699 2.833,0.412 3.055,0.053 3.189,-0.36 L 2.66,-0.561 C 2.545,-0.222 2.375,0.057 2.045,0.235 1.492,0.533 0.846,0.295 0.541,-0.271 L 0.537,-0.279 C 0.232,-0.845 0.383,-1.522 0.937,-1.821 1.292,-2.013 1.596,-1.99 1.969,-1.893 L 2.117,-2.398 C 1.646,-2.55 1.209,-2.57 0.668,-2.279 -0.174,-1.825 -0.447,-0.83 0,0" /></g><g
         transform="matrix(5.9155732,0,0,-5.9155732,735.26108,1322.1427)"
         id="g70"><path
           inkscape:connector-curvature="0"
           id="path72"
           style="fill:#231f20;fill-opacity:1;fill-rule:nonzero;stroke:none"
           d="m 0,0 0.442,-0.37 -0.877,-1.047 1.202,-1.006 0.877,1.046 0.442,-0.37 -2.109,-2.518 -0.443,0.371 0.889,1.061 -1.201,1.007 -0.889,-1.062 -0.442,0.371 z" /></g><g
         transform="matrix(5.9155732,0,0,-5.9155732,757.93842,1343.194)"
         id="g74"><path
           inkscape:connector-curvature="0"
           id="path76"
           style="fill:#231f20;fill-opacity:1;fill-rule:nonzero;stroke:none"
           d="m 0,0 0.328,-0.423 -0.719,-2.779 1.795,1.39 0.347,-0.45 -2.595,-2.009 -0.296,0.381 0.739,2.862 -1.847,-1.43 -0.347,0.448 z" /></g><g
         transform="matrix(5.9155732,0,0,-5.9155732,775.01786,1367.8269)"
         id="g78"><path
           inkscape:connector-curvature="0"
           id="path80"
           style="fill:#231f20;fill-opacity:1;fill-rule:nonzero;stroke:none"
           d="m 0,0 0.276,-0.506 -2.883,-1.57 -0.276,0.506 z" /></g><g
         transform="matrix(5.9155732,0,0,-5.9155732,771.8436,1399.7213)"
         id="g82"><path
           inkscape:connector-curvature="0"
           id="path84"
           style="fill:#231f20;fill-opacity:1;fill-rule:nonzero;stroke:none"
           d="M 0,0 0.27,0.688 0.79,0.475 0.486,-0.229 c 0.201,-0.05 0.418,-0.036 0.636,0.04 L 1.13,-0.187 C 1.734,0.021 2.084,0.632 1.873,1.249 1.661,1.865 1.021,2.127 0.417,1.92 L 0.409,1.916 C -0.195,1.709 -0.545,1.098 -0.333,0.481 -0.264,0.277 -0.143,0.115 0,0 m -0.221,-0.526 c -0.276,0.197 -0.492,0.48 -0.617,0.843 -0.328,0.954 0.167,1.869 1.041,2.168 L 0.212,2.489 C 1.086,2.789 2.05,2.366 2.377,1.412 2.705,0.458 2.21,-0.456 1.336,-0.756 L 1.327,-0.759 C 0.977,-0.88 0.605,-0.883 0.266,-0.771 L 0.085,-1.23 -0.426,-1.014 Z" /></g><g
         transform="matrix(5.9155732,0,0,-5.9155732,780.36735,1414.6604)"
         id="g86"><path
           inkscape:connector-curvature="0"
           id="path88"
           style="fill:#231f20;fill-opacity:1;fill-rule:nonzero;stroke:none"
           d="M 0,0 1.877,0.221 1.944,-0.353 0.09,-0.57 c -0.606,-0.072 -0.895,-0.422 -0.834,-0.935 0.059,-0.508 0.404,-0.783 1.005,-0.713 L 2.138,-1.997 2.205,-2.57 0.355,-2.787 C -0.618,-2.902 -1.172,-2.41 -1.272,-1.558 -1.372,-0.71 -0.946,-0.111 0,0" /></g><g
         transform="matrix(5.9155732,0,0,-5.9155732,793.52712,1442.9962)"
         id="g90"><path
           inkscape:connector-curvature="0"
           id="path92"
           style="fill:#231f20;fill-opacity:1;fill-rule:nonzero;stroke:none"
           d="m 0,0 -0.187,-2.428 -0.515,0.039 0.143,1.853 -0.852,0.065 -0.126,-1.641 -0.515,0.04 0.127,1.641 -0.88,0.068 -0.144,-1.876 -0.515,0.04 0.189,2.451 z" /></g><g
         transform="matrix(5.9155732,0,0,-5.9155732,565.81775,1557.7031)"
         id="g94"><path
           inkscape:connector-curvature="0"
           id="path96"
           style="fill:#231f20;fill-opacity:1;fill-rule:nonzero;stroke:none"
           d="M 0,0 -0.471,0.334 1.431,3.012 1.901,2.678 Z" /></g><g
         transform="matrix(5.9155732,0,0,-5.9155732,551.51155,1546.7036)"
         id="g98"><path
           inkscape:connector-curvature="0"
           id="path100"
           style="fill:#231f20;fill-opacity:1;fill-rule:nonzero;stroke:none"
           d="m 0,0 -0.377,0.379 0.371,2.847 -1.61,-1.6 -0.4,0.403 L 0.312,4.343 0.653,4 0.272,1.069 1.929,2.716 2.329,2.313 Z" /></g><g
         transform="matrix(5.9155732,0,0,-5.9155732,545.50903,1515.7045)"
         id="g102"><path
           inkscape:connector-curvature="0"
           id="path104"
           style="fill:#231f20;fill-opacity:1;fill-rule:nonzero;stroke:none"
           d="m 0,0 -0.536,0.062 c 0.055,0.413 0.011,0.76 -0.214,1.101 -0.195,0.298 -0.457,0.396 -0.664,0.259 L -1.422,1.417 C -1.618,1.288 -1.651,1.108 -1.433,0.521 -1.19,-0.154 -1.146,-0.597 -1.651,-0.93 l -0.008,-0.006 c -0.47,-0.309 -1.053,-0.131 -1.411,0.414 -0.263,0.399 -0.351,0.796 -0.311,1.221 l 0.535,-0.018 c -0.022,-0.369 0.043,-0.679 0.208,-0.93 0.186,-0.282 0.439,-0.352 0.619,-0.232 l 0.008,0.004 c 0.211,0.14 0.223,0.327 0.002,0.934 -0.241,0.673 -0.231,1.111 0.223,1.41 l 0.008,0.006 c 0.513,0.338 1.084,0.136 1.464,-0.44 C -0.039,1.014 0.077,0.522 0,0" /></g><g
         transform="matrix(5.9155732,0,0,-5.9155732,518.86055,1496.2071)"
         id="g106"><path
           inkscape:connector-curvature="0"
           id="path108"
           style="fill:#231f20;fill-opacity:1;fill-rule:nonzero;stroke:none"
           d="M 0,0 0.411,-0.957 -0.08,-1.168 -1.132,1.28 -0.641,1.491 -0.23,0.534 2.296,1.62 2.525,1.085 Z" /></g><g
         transform="matrix(5.9155732,0,0,-5.9155732,508.96144,1478.1259)"
         id="g110"><path
           inkscape:connector-curvature="0"
           id="path112"
           style="fill:#231f20;fill-opacity:1;fill-rule:nonzero;stroke:none"
           d="M 0,0 -0.151,0.557 3.019,1.416 3.17,0.858 Z" /></g><g
         transform="matrix(5.9155732,0,0,-5.9155732,507.9043,1457.6639)"
         id="g114"><path
           inkscape:connector-curvature="0"
           id="path116"
           style="fill:#231f20;fill-opacity:1;fill-rule:nonzero;stroke:none"
           d="M 0,0 0.129,-1.034 -0.402,-1.1 -0.731,1.544 -0.201,1.61 -0.072,0.577 2.656,0.917 2.728,0.34 Z" /></g><g
         transform="matrix(5.9155732,0,0,-5.9155732,514.36291,1438.0626)"
         id="g118"><path
           inkscape:connector-curvature="0"
           id="path120"
           style="fill:#231f20;fill-opacity:1;fill-rule:nonzero;stroke:none"
           d="m 0,0 -1.887,0.121 0.038,0.576 1.863,-0.12 C 0.623,0.538 0.97,0.83 1.003,1.346 1.037,1.855 0.748,2.189 0.144,2.228 L -1.743,2.35 -1.706,2.926 0.153,2.806 C 1.131,2.742 1.587,2.158 1.532,1.302 1.477,0.45 0.951,-0.062 0,0" /></g><g
         transform="matrix(5.9155732,0,0,-5.9155732,510.70355,1404.5045)"
         id="g122"><path
           inkscape:connector-curvature="0"
           id="path124"
           style="fill:#231f20;fill-opacity:1;fill-rule:nonzero;stroke:none"
           d="m 0,0 -0.262,-1.008 -0.517,0.134 0.67,2.579 L 0.408,1.57 0.146,0.562 2.807,-0.129 2.661,-0.691 Z" /></g><g
         transform="matrix(5.9155732,0,0,-5.9155732,608.85298,1572.1223)"
         id="g126"><path
           inkscape:connector-curvature="0"
           id="path128"
           style="fill:#231f20;fill-opacity:1;fill-rule:nonzero;stroke:none"
           d="M 0,0 C 0.506,-0.145 0.891,-0.028 1.027,0.448 L 1.03,0.458 C 1.166,0.936 0.898,1.236 0.393,1.38 L 0.208,1.433 -0.184,0.053 Z M -0.624,2.711 0.644,2.351 C 1.958,1.978 2.43,1.143 2.152,0.164 L 2.149,0.155 C 1.871,-0.823 1.002,-1.327 -0.335,-0.947 l -1.229,0.349 z" /></g><g
         transform="matrix(5.9155732,0,0,-5.9155732,633.95691,1562.9024)"
         id="g130"><path
           inkscape:connector-curvature="0"
           id="path132"
           style="fill:#231f20;fill-opacity:1;fill-rule:nonzero;stroke:none"
           d="M 0,0 2.931,-0.144 2.885,-1.087 1.083,-0.998 1.066,-1.347 2.745,-1.43 2.705,-2.259 1.025,-2.177 1.007,-2.55 2.833,-2.64 2.787,-3.582 -0.168,-3.438 Z" /></g><g
         transform="matrix(5.9155732,0,0,-5.9155732,688.16187,1567.6048)"
         id="g134"><path
           inkscape:connector-curvature="0"
           id="path136"
           style="fill:#231f20;fill-opacity:1;fill-rule:nonzero;stroke:none"
           d="M 0,0 C 0.282,0.086 0.431,0.271 0.359,0.506 L 0.356,0.515 C 0.283,0.755 0.072,0.823 -0.22,0.734 L -0.521,0.643 -0.296,-0.09 Z m -1.888,1.186 1.48,0.452 C 0.466,1.904 1.182,1.697 1.42,0.917 L 1.423,0.908 C 1.666,0.113 1.189,-0.494 0.301,-0.766 l -0.358,-0.109 0.273,-0.893 -1.099,-0.336 z" /></g><g
         transform="matrix(5.9155732,0,0,-5.9155732,718.21656,1557.4892)"
         id="g138"><path
           inkscape:connector-curvature="0"
           id="path140"
           style="fill:#231f20;fill-opacity:1;fill-rule:nonzero;stroke:none"
           d="m 0,0 -0.687,0.571 0.14,-0.883 z M -1.842,1.47 -0.85,2.033 2.123,-0.264 1.038,-0.881 0.651,-0.569 -0.396,-1.164 -0.322,-1.653 -1.39,-2.261 Z" /></g><g
         transform="matrix(5.9155732,0,0,-5.9155732,740.86785,1536.6634)"
         id="g142"><path
           inkscape:connector-curvature="0"
           id="path144"
           style="fill:#231f20;fill-opacity:1;fill-rule:nonzero;stroke:none"
           d="M 0,0 C 0.201,0.187 0.24,0.392 0.096,0.546 L 0.089,0.553 C -0.062,0.715 -0.262,0.677 -0.456,0.495 L -0.822,0.153 -0.363,-0.339 Z M -2.321,0.073 -1.092,1.22 C -0.646,1.636 -0.258,1.789 0.083,1.777 0.375,1.768 0.627,1.654 0.869,1.396 L 0.876,1.389 C 1.218,1.022 1.266,0.589 1.098,0.156 L 2.482,-0.152 1.522,-1.048 0.377,-0.771 0.37,-0.778 0.197,-0.939 0.868,-1.658 0.027,-2.442 Z" /></g><g
         transform="matrix(5.9155732,0,0,-5.9155732,747.5282,1515.0576)"
         id="g146"><path
           inkscape:connector-curvature="0"
           id="path148"
           style="fill:#231f20;fill-opacity:1;fill-rule:nonzero;stroke:none"
           d="M 0,0 0.68,0.928 3.455,-1.106 2.775,-2.034 Z" /></g><g
         transform="matrix(5.9155732,0,0,-5.9155732,772.2192,1509.8358)"
         id="g150"><path
           inkscape:connector-curvature="0"
           id="path152"
           style="fill:#231f20;fill-opacity:1;fill-rule:nonzero;stroke:none"
           d="M 0,0 -0.39,0.873 C 0.03,1.085 0.323,1.417 0.5,1.779 0.59,1.966 0.58,2.068 0.496,2.109 L 0.487,2.113 C 0.399,2.156 0.303,2.083 0.075,1.784 -0.404,1.159 -0.899,0.646 -1.554,0.964 l -0.008,0.004 c -0.588,0.286 -0.819,0.968 -0.405,1.82 0.291,0.597 0.647,0.97 1.104,1.191 L -0.41,3.135 C -0.764,2.946 -1.026,2.643 -1.167,2.355 -1.242,2.2 -1.223,2.104 -1.148,2.067 l 0.009,-0.004 c 0.084,-0.041 0.178,0.017 0.399,0.314 0.531,0.721 1.018,1.139 1.642,0.836 L 0.911,3.208 C 1.56,2.893 1.698,2.164 1.293,1.333 0.988,0.706 0.536,0.227 0,0" /></g><path
         inkscape:connector-curvature="0"
         id="path154"
         style="fill:#231f20;fill-opacity:1;fill-rule:nonzero;stroke:none;stroke-width:5.91556"
         d="m 851.70854,1393.5769 h 19.71661 v 89.6267 h -19.71661 z" /><g
         transform="matrix(5.9155732,0,0,-5.9155732,944.81024,1438.7734)"
         id="g156"><path
           inkscape:connector-curvature="0"
           id="path158"
           style="fill:#231f20;fill-opacity:1;fill-rule:nonzero;stroke:none"
           d="m 0,0 h -2.641 v 4.632 h 2.576 C 1.602,4.632 2.64,3.81 2.64,2.315 2.64,1.017 1.666,0 0,0 m 0.216,7.641 h -6.19 V -7.511 h 3.333 v 4.546 h 2.533 c 3.398,0 6.125,1.84 6.125,5.346 0,3.095 -2.186,5.26 -5.801,5.26" /></g><g
         transform="matrix(5.9155732,0,0,-5.9155732,1079.9243,1438.7734)"
         id="g160"><path
           inkscape:connector-curvature="0"
           id="path162"
           style="fill:#231f20;fill-opacity:1;fill-rule:nonzero;stroke:none"
           d="m 0,0 h -2.642 v 4.632 h 2.577 C 1.602,4.632 2.64,3.81 2.64,2.315 2.64,1.017 1.665,0 0,0 M 0.216,7.641 H -5.975 V -7.511 h 3.333 v 4.546 h 2.534 c 3.397,0 6.125,1.84 6.125,5.346 0,3.095 -2.187,5.26 -5.801,5.26" /></g><g
         transform="matrix(5.9155732,0,0,-5.9155732,1185.4397,1445.6883)"
         id="g164"><path
           inkscape:connector-curvature="0"
           id="path166"
           style="fill:#231f20;fill-opacity:1;fill-rule:nonzero;stroke:none"
           d="M 0,0 -2.014,4.913 -4.026,0 Z m -3.508,8.918 h 3.074 L 6.06,-6.342 H 2.574 l -1.385,3.399 h -6.407 l -1.385,-3.399 h -3.398 z" /></g><g
         transform="matrix(5.9155732,0,0,-5.9155732,1285.698,1437.1096)"
         id="g168"><path
           inkscape:connector-curvature="0"
           id="path170"
           style="fill:#231f20;fill-opacity:1;fill-rule:nonzero;stroke:none"
           d="m 0,0 c 1.623,0 2.554,0.866 2.554,2.144 v 0.043 c 0,1.427 -0.995,2.164 -2.619,2.164 H -3.377 V 0 Z m -6.71,7.359 h 6.927 c 1.926,0 3.42,-0.541 4.415,-1.538 C 5.476,4.978 5.931,3.788 5.931,2.358 V 2.315 c 0,-2.445 -1.322,-3.982 -3.246,-4.696 l 3.7,-5.411 H 2.488 l -3.246,4.849 H -0.801 -3.377 V -7.792 H -6.71 Z" /></g><path
         inkscape:connector-curvature="0"
         id="path172"
         style="fill:#231f20;fill-opacity:1;fill-rule:nonzero;stroke:none;stroke-width:5.91556"
         d="m 1354.2424,1393.5769 h 19.7167 v 89.6267 h -19.7167 z" /><g
         transform="matrix(5.9155732,0,0,-5.9155732,1445.5517,1429.5534)"
         id="g174"><path
           inkscape:connector-curvature="0"
           id="path176"
           style="fill:#231f20;fill-opacity:1;fill-rule:nonzero;stroke:none"
           d="m 0,0 c -2.619,0.67 -3.269,1.018 -3.269,2.013 0,0.735 0.67,1.341 1.948,1.341 1.277,0 2.597,-0.563 3.939,-1.493 L 4.35,4.372 c -1.537,1.233 -3.42,1.927 -5.628,1.927 -3.094,0 -5.302,-1.84 -5.302,-4.59 0,-3.008 1.969,-3.874 5.021,-4.653 2.532,-0.65 3.051,-1.104 3.051,-1.948 0,-0.887 -0.822,-1.45 -2.185,-1.45 -1.732,0 -3.161,0.714 -4.525,1.839 l -1.969,-2.358 c 1.818,-1.623 4.134,-2.425 6.429,-2.425 3.268,0 5.562,1.71 5.562,4.719 C 4.804,-1.926 3.073,-0.801 0,0" /></g><path
         inkscape:connector-curvature="0"
         id="path178"
         style="fill:#000000;fill-opacity:1;fill-rule:nonzero;stroke:none;stroke-width:3.79183"
         d="M 1594.2073,1214.3731 H 381.45276 v -3.3822 H 1594.2073 Z"
         sodipodi:nodetypes="ccccc" /></g><g
       id="g299"
       transform="translate(477.97592,-1074.2549)" /></g></svg>
